<svg xmlns="http://www.w3.org/2000/svg"><defs><font id="Simple-Line-Icons" horiz-adv-x="512"><font-face units-per-em="512" ascent="480" descent="-32"/><glyph class="hidden" unicode="" d="M0 480L512-32H0z" horiz-adv-x="0"/><glyph unicode="" d="M480.016 78.656l-139.248 66.032c18.576 9.312 91.128 12.264 97.128 28.64 0 0-28.672 44.008-35.672 101.168-2.72 22.184-7.376 51.296-12 92.296C382.72 433.296 326.784 480 256.128 480h-.256c-70.656 0-126.592-46.704-134.088-113.2-4.624-41-9.28-70.112-12-92.296-7-57.168-35.672-101.168-35.672-101.168 6-16.376 78.544-19.328 97.128-28.64L31.984 78.656S0 67.424 0 40.92V-1.344C0-19.032 14.312-32 31.984-32h448.032C497.688-32 512-19.032 512-1.344V40.92c0 26.504-31.984 37.736-31.984 37.736zM32 0v40.92c0 1.704 6.048 5.8 10.968 7.672 1.064.376 1.72.672 2.72 1.16l139.248 66.032c11.064 5.232 18.16 16.344 18.296 28.576.128 12.232-6.72 23.488-17.656 28.968-10.84 5.44-25.168 8.128-47.624 12.016-5.328.936-12.608 2.248-19.672 3.656 9.16 20.552 19.28 49.296 23.264 81.816.984 8.096 2.248 17.208 3.656 27.296 2.424 17.168 5.424 38.936 8.376 65.112C159.16 412.656 201.216 448 255.872 448h.256c54.656 0 96.72-35.344 102.296-84.784 2.952-26.168 5.952-47.944 8.376-65.112 1.408-10.088 2.672-19.2 3.656-27.296 3.984-32.512 14.112-61.256 23.264-81.816-7.064-1.408-14.344-2.72-19.672-3.656-22.456-3.888-36.784-6.576-47.624-12.016a32.036 32.036 0 0 1-17.656-28.968c.144-12.232 7.232-23.344 18.296-28.576l139.248-66.032c1-.488 1.656-.784 2.72-1.16 4.92-1.872 10.248-5.968 10.968-7.672L480.016 0H32z"/><glyph unicode="" d="M32.032 32.656c0 12.72 9.544 16.704 13.36 18.472l140.52 66.312c10.072 4.624 17.024 14.16 18.376 25.16 1.36 11-3.08 21.92-11.728 28.856-33.24 26.688-48.728 85.344-48.728 116.592V368c0 33.432 58.2 79.928 112.064 79.928 54.336 0 111.96-45.768 111.96-79.928v-79.96c0-30.776-12.8-89.656-47.128-116.68a31.995 31.995 0 0 1 6.44-54.216l47.96-22.752 7.904 31.936-42.504 19.888c44.328 34.888 59.328 103.416 59.328 141.824V368c0 52.96-73.312 111.928-143.96 111.928-70.656 0-144.064-58.968-144.064-111.928v-79.96c0-34.936 15.944-105.624 60.696-141.544L32.008 80.184S.032 65.936.032 48.2V.184c0-17.672 14.32-31.984 31.976-31.984h351.96v32L32.032.184v32.472zm463.936 31.408h-48v48c0 8.84-7.168 16-16 16s-16-7.16-16-16v-48h-48c-8.832 0-16-7.16-16-16 0-8.832 7.168-16 16-16h48v-48c0-8.832 7.168-16 16-16s16 7.168 16 16v48h48c8.832 0 16 7.168 16 16 0 8.84-7.16 16-16 16z"/><glyph unicode="" d="M31.752.12v32.472c0 12.72 9.552 16.712 13.36 18.472l140.52 66.312c10.072 4.624 17.024 14.16 18.376 25.16 1.36 11-3.08 21.92-11.728 28.856-33.24 26.688-48.728 85.352-48.728 116.592v79.96c0 33.432 58.2 79.928 112.064 79.928 54.336 0 111.968-45.768 111.968-79.928v-79.96c0-30.776-12.8-89.656-47.128-116.688a31.995 31.995 0 0 1 6.44-54.216l81.12-38.624 19.072 27.032-86.832 40.672c44.328 34.888 59.328 103.424 59.328 141.832v79.96c0 52.96-73.312 111.928-143.968 111.928-70.656 0-144.064-58.968-144.064-111.928v-79.96c0-34.936 15.944-105.624 60.696-141.544L31.728 80.12S-.248 65.872-.248 48.136V.12c0-17.672 14.32-31.984 31.976-31.984h319.856l-26 31.992L31.752.12zm474.352 118.128c-6.952 5.456-17.016 4.216-22.456-2.736L415.224 11.16l-42.528 42.536c-6.248 6.248-16.384 6.248-22.632 0s-6.248-16.376 0-22.624l56.568-56.568c6.248-6.248 16.376-6.248 22.624 0a15.871 15.871 0 0 1 3.44 5.144L508.848 95.8c5.44 6.952 4.216 17.008-2.744 22.448z"/><glyph unicode="" d="M399.56 288.072v79.96c0 52.96-73.304 111.928-143.952 111.928-70.656 0-144.064-58.968-144.064-111.928v-79.96c0-34.936 15.944-105.616 60.696-141.536L31.72 80.216S-.256 65.968-.256 48.232V.216c0-17.672 14.32-31.984 31.976-31.984h303.968v32L31.744.216v32.472c0 12.72 9.552 16.712 13.36 18.472l140.52 66.312c10.072 4.624 17.024 14.168 18.376 25.168 1.36 11-3.08 21.912-11.728 28.848-33.24 26.688-48.728 85.344-48.728 116.6v79.96c0 33.432 58.2 79.928 112.064 79.928 54.344 0 111.952-45.768 111.952-79.928v-79.96c0-30.776-12.8-89.664-47.112-116.68a31.897 31.897 0 0 1-11.984-28.896c1.296-11.08 8.28-20.656 18.424-25.312l9.056-4.176 14.032 25.896-9.744 7.36c44.328 34.864 59.328 103.384 59.328 141.792zM462.312 40.6l45.248 45.256c6.248 6.232 6.248 16.376 0 22.624-6.24 6.24-16.376 6.24-22.616 0l-45.256-45.264-45.248 45.264c-6.248 6.24-16.384 6.24-22.624 0-6.248-6.248-6.248-16.392 0-22.624L417.064 40.6 371.816-4.648c-6.248-6.24-6.248-16.384 0-22.632 6.24-6.232 16.376-6.232 22.624 0l45.248 45.256 45.256-45.256c6.24-6.232 16.376-6.232 22.616 0 6.248 6.248 6.248 16.392 0 22.632L462.312 40.6z"/><glyph unicode="" d="M367.904 16.064H142.936c-8.84 0-16-7.16-16-16s7.16-16 16-16h224.968c8.84 0 16 7.16 16 16s-7.152 16-16 16zm140.752 403.12c-1.512 7.44-8.08 12.784-15.672 12.784h-78.312v15.968c0 8.84-7.16 16-16 16H110.904c-8.84 0-16-7.16-16-16v-15.968H19.016c-7.592 0-14.16-5.344-15.672-12.784-.472-2.312-11.2-58.376 19.952-96.576 17.92-21.96 45.304-33.464 81.248-34.488C125.04 227.544 176.576 182.688 238.64 176V64.544h-47.888c-8.84 0-16-7.16-16-16s7.16-16 16-16h129.344c8.84 0 16 7.16 16 16s-7.16 16-16 16H270.64v111.44c62.168 6.56 113.816 51.4 134.368 112.04 37.168.544 65.368 12.12 83.696 34.584 31.152 38.208 20.424 94.264 19.952 96.576zM48.2 342.72c-14.168 17.248-15.592 42.704-14.872 57.248h61.576v-54.016c0-8.648.8-17.08 1.968-25.384-21.84 2.04-38.224 9.416-48.672 22.152zm334.472 3.232c0-76.544-57.36-138.832-127.856-138.832-70.528 0-127.904 62.28-127.904 138.832v85.984H382.68v-85.984zm81.128-3.232c-10.84-13.216-28.016-20.744-51.136-22.432 1.192 8.392 2.008 16.92 2.008 25.664v54.016h64c.72-14.56-.704-40-14.872-57.248z"/><glyph unicode="" d="M352.072 480H159.928c-26.512 0-48-21.488-48-48V16c0-26.512 21.488-48 48-48h192.144c26.512 0 48 21.488 48 48v416c0 26.512-21.488 48-48 48zm16-464c0-8.832-7.168-16-16-16H159.928c-8.832 0-16 7.168-16 16v416c0 8.832 7.168 16 16 16h192.144c8.832 0 16-7.168 16-16V16zM256.024 79.912c-17.64 0-31.92-14.296-31.92-31.912s14.288-31.92 31.92-31.92c17.64 0 31.92 14.304 31.92 31.92s-14.28 31.912-31.92 31.912zm32 352.088h-64c-8.832 0-16-7.168-16-16s7.168-16 16-16h64c8.832 0 16 7.168 16 16s-7.168 16-16 16z"/><glyph unicode="" d="M480 432.096H32c-17.592 0-32-14.4-32-32V128c0-17.592 14.408-31.992 32-31.992h208V47.904h-80c-8.832 0-16-7.168-16-16s7.168-16 16-16h192c8.832 0 16 7.168 16 16s-7.168 16-16 16h-80v48.104h208c17.592 0 32 14.4 32 31.992v272.096c0 17.6-14.408 32-32 32zM480 128H32v272.096h448V128z"/><glyph unicode="" d="M467.16 447.048c5.216 0 8.888-.968 10.8-1.704 2.296-6.112 5.376-28.016-17.264-50.672L355.36 289.344l-10.16-10.16.832-14.328c1.752-29.984 5-83.72 7.8-129.784 2.472-41 4.816-79.72 4.968-83.016.08-2.264.112-2.8-2-5.344-4.72-5.736-13.528-15.456-20.952-23.512-11.512 31.016-35.704 96.528-49.064 133.2l-17.168 47.184-35.512-35.512L168.8 105.28l-9.096-9.08-.28-12.84c-.216-10.248-.168-28.64-.144-44.856.032-11.296.064-21.56-.016-27.216-.144-.264 2.184-.576 1.968-.952-1.392 2.232-2.888 4.64-4.472 7.144-13.168 21-31.392 50.048-36.952 59.112l-4.064 6.64-6.672 4.032c-24.264 14.656-51.144 31.576-67.544 42.144.568.328 1.032-1.408 1.408-1.208H44c5.16 0 13.688-.112 23.248-.248 12.504-.168 26.688-.376 37.544-.376 4.16 0 7.856.032 10.832.096l12.84.296 9.08 9.08 62.872 64.856 35.392 35.376-46.968 17.28c-35.296 12.984-102.904 38.232-134.528 50.112 8.112 7.472 17.888 16.344 23.592 21.064 1.592 1.312 2.832 1.984 3.688 1.984l1.128-.032c3.528-.168 47.344-3.032 89.704-5.8 44.968-2.936 95.72-6.248 124.576-8.08l14.424-.904 10.216 10.216 105.296 105.304c16.224 16.2 32.16 18.624 40.224 18.624m0 32c-18.904 0-42.112-7.264-62.84-28L299.016 345.752c-59.312 3.752-211.216 13.8-214.984 13.904a50.71 50.71 0 0 1-2.44.064c-5.128 0-13.984-.984-24.064-9.312-11.832-9.784-36.504-32.984-36.504-32.984-5.952-5.968-8.968-13.36-8.248-20.312.44-4.2 2.72-11.856 13.032-15.888 6.264-2.456 105.952-39.752 151.984-56.688L114.92 159.68a455.676 455.676 0 0 0-10.128-.096c-19.168 0-48.888.624-60.8.624-1.576 0-2.84 0-3.736-.032-3.624-.112-11.128 1.672-30.92-14.872l-1.408-1.312C1.992 138.056.6 132.136.472 128.224c-.128-4.032.952-9.84 6.784-14.512C10.76 110.88 55.68 82.12 92.52 59.872c8.832-14.408 49.472-79 51.592-82.504 3.096-5.232 8.16-8.216 14.216-8.408h.504c5.888 0 11.936 2.92 17.856 8.672C193.44-2.776 191.128 5.336 191.2 8.744c.264 10.688-.184 55.968.2 73.92l65.296 62.8C273.384 99.624 309.864.96 312.304-5.32c4.064-10.312 11.72-12.576 15.92-13a18.12 18.12 0 0 1 2.08-.112c6.312 0 12.856 2.968 18.216 8.328 0 0 23.128 24.544 32.952 36.488 9.84 11.936 9.456 22.128 9.264 26.936-.08 3.328-9.344 154.408-12.784 213.408L483.28 372.056c37.328 37.344 31.392 82.344 17.528 96.184-6.12 6.152-18.512 10.808-33.648 10.808z"/><glyph unicode="" d="M424.576 480h-319c-23 0-33.016-17-33.016-33v-63.656H55.096c-8.656 0-15.672-7.016-15.672-15.672S46.44 352 55.096 352H72.56v-64.376H56.592c-8.656 0-15.672-7.016-15.672-15.672s7.016-15.672 15.672-15.672H72.56v-64.72H56.248c-8.656 0-15.672-7.016-15.672-15.672s7.016-15.672 15.672-15.672H72.56V95.984H56.248c-8.656 0-15.672-7.016-15.672-15.672S47.592 64.64 56.248 64.64H72.56V0c0-26.512 20.768-32 32.264-32h319.752c26.512 0 48 21.488 48 48v416c0 26.512-21.48 48-48 48zM104.56 0v64.64h16.672c8.656 0 15.672 7.016 15.672 15.672s-7.016 15.672-15.672 15.672H104.56v64.232h16.672c8.656 0 15.672 7.016 15.672 15.672s-7.016 15.672-15.672 15.672H104.56v64.72h17.016c8.656 0 15.672 7.016 15.672 15.672s-7.016 15.672-15.672 15.672H104.56V352h15.512c8.656 0 15.672 7.016 15.672 15.672s-7.016 15.672-15.672 15.672H104.56V447c0 .376.032.688.08.968.248.016.56.032.936.032h255V0H104.56zm336.016 16c0-8.832-7.168-16-16-16h-32v448h32c8.832 0 16-7.168 16-16V16z"/><glyph unicode="" d="M396.424 111.64c-50.672 0-79.432 23.816-98.472 39.576-6.736 5.576-12.864 10.952-18.44 15.832-8.456 7.424-19 16.672-22.672 17.952-.112 0-1.856.08-1.968.096-.584-.048-2.072-.344-2.224-.36-2.536-1.032-11.544-8.784-18.784-15-6.568-5.64-14.056-12.08-22.52-18.688l-1.544-1.184c-21.736-16.968-48.792-38.08-96.576-38.08-35.496 0-70.464 16.064-91.288 41.936C7.976 171.064-6.712 201.232 2.6 246.456c1.128 5.472 5.008 9.952 10.216 11.816 5.24 1.888 11.008.856 15.304-2.688.312-.232 11.288-8.672 29.528-8.672 9.184 0 18.752 2.168 28.416 6.472 16.568 7.376 28.368 28.064 40.856 42.032 17.088 19.08 36.424 40.704 68.344 40.952 22.024 0 41.896-8.144 59.624-24.248 17.656 16.032 37.384 24.128 58.84 24.128 32.552-.248 52.296-21.888 69.72-41 12.72-13.936 24.736-34.608 41.304-41.984 9.664-4.296 19.336-6.472 28.744-6.472 18.936 0 30.752 8.656 31.224 9.032 4.384 3.248 10.16 4.096 15.24 2.112 5.072-2 8.84-6.44 9.856-11.832 8.544-44.72-6.48-74.704-20.592-91.984-21.384-26.2-56.952-42.48-92.8-42.48zM255.368 217.064c.496 0 1.84-.048 2.312-.096.016 0 2.344-.168 2.344-.184a48.508 48.508 0 0 0 1.648-.216c11.576-1.64 22.312-11.064 38.608-25.344 5.352-4.704 11.248-9.872 17.736-15.248 17.392-14.408 39.048-32.328 78.408-32.328 26.656 0 52.872 11.816 68.392 30.84 10.2 12.488 15.504 27.36 15.84 44.392-7.512-2.344-16.64-4.096-27.16-4.096-13.832 0-27.784 3.096-41.488 9.184-22.624 10.048-38.152 34.56-51.84 49.576-17.264 18.936-28.736 30.544-46.04 30.688-23.08 0-37.976-14.528-47.208-25.456-3.016-3.56-7.408-5.608-12.048-5.608s-9.04 2.064-12.04 5.624c-9.264 10.968-24.208 25.56-46.92 25.56-17.544-.128-28.704-11.64-45.496-30.424-13.528-15.112-28.848-39.736-51.616-49.84-13.696-6.096-27.552-9.184-41.152-9.184-10.2 0-19.032 1.704-26.312 4.016-.016-17.36 5.056-32.456 15.168-45.016 14.968-18.576 40.52-30.128 66.72-30.128 37 0 57.448 15.968 77.232 31.408l1.544 1.208c8.024 6.264 15.12 12.376 21.344 17.72 14.256 12.248 23.664 20.344 33.824 22.144.008-.008 4.848.808 8.2.808z"/><glyph unicode="" d="M256.792 480c-79.064 0-144.752-64.112-144.752-143.168V111.176C112.04 32.112 177.728-32 256.792-32s143.176 64.112 143.176 143.168v225.664c0 79.056-64.112 143.168-143.176 143.168zm111.176-368.832C367.968 49.872 318.096 0 256.792 0S144.04 49.872 144.04 111.168v225.664C144.04 398.128 195.496 448 256.792 448s111.176-49.872 111.176-111.168V111.168zM256.168 384c-8.832 0-16-7.168-16-16v-80c0-8.832 7.168-16 16-16s16 7.168 16 16v80c0 8.832-7.168 16-16 16z"/><glyph unicode="" d="M480.144 449.912v14.504c0 8.84-7.16 16-16 16H351.832c-8.84 0-16-7.16-16-16v-65.328c0-.024.016-.048.016-.072v-198.76c0-48.16-27.168-87.328-75.328-87.328s-84.328 39.168-84.328 87.328v249.656h-.048v14.504c0 8.84-7.16 16-16 16H47.832c-8.84 0-16-7.16-16-16v-65.328c0-.328.168-.6.184-.92V192.92c0-124.456 99.392-225.328 223.832-225.328S480.176 68.464 480.176 192.92v256.992h-.032zm-32-1.496v-64.168h-80.128v64.168h80.128zm-304 0v-64.168H64.016v64.168h80.128zM255.84-.416C149.232-.416 64.008 86.32 64.008 192.912v159.336h80.168V200.256c0-65.904 50.424-119.328 116.328-119.328S367.84 134.352 367.84 200.256v151.992h80.328V192.912C448.168 86.32 362.456-.416 255.84-.416z"/><glyph unicode="" d="M297.672 447.64h.088m-.088 0l-36.104-189.688 130.792-.44L214.328.36l36.104 208.688-130.784.456L297.672 447.64m.024 32c-.864 0-1.728-.032-2.576-.096-5.648-.456-9.392-2.344-13.832-5.328a32.146 32.146 0 0 1-6.696-5.968 28.249 28.249 0 0 1-1.648-2.144L93.64 228.8a31.827 31.827 0 0 1-2.68-33.216c5.432-10.704 16.416-17.488 28.456-17.576l92.368-.672L182.744 6.24c-2.76-14.704 5.08-29.36 18.88-35.264a32.099 32.099 0 0 1 12.696-2.608c10.056 0 18.32 4.704 24.52 13.2L418.368 238.72a31.847 31.847 0 0 1 2.68 33.216c-5.432 10.704-16.416 17.488-28.456 17.576l-92.368.16 28.728 150.44c.6 2.424.912 4.936.912 7.528 0 17.312-13.784 31.424-31.032 31.984-.384.016-.76.016-1.136.016z"/><glyph unicode="" d="M390.632 176.424c-8.128 3.64-17.544-.032-21.128-8.096-.328-.712-33.064-72.104-114.72-73.064-.504 0-1-.016-1.504-.016-76.832 0-109.968 70.184-111.344 73.2-3.656 8-13.096 11.56-21.16 7.936-8.048-3.64-11.624-13.104-7.984-21.168 1.704-3.784 42.688-91.968 140.424-91.968.64 0 1.296.016 1.936.016 101.936 1.2 141.92 88.328 143.56 92.032 3.624 8.08-.016 17.536-8.08 21.128zM256 480C114.608 480 0 365.392 0 224S114.608-32 256-32 512 82.608 512 224 397.392 480 256 480zm0-480C132.488 0 32 100.488 32 224s100.488 224 224 224 224-100.488 224-224S379.512 0 256 0zm-80.248 240.088c17.632 0 31.92 14.296 31.92 31.912s-14.288 31.912-31.92 31.912c-17.64 0-31.92-14.296-31.92-31.912s14.28-31.912 31.92-31.912zm160 0c17.632 0 31.92 14.296 31.92 31.912s-14.288 31.912-31.92 31.912c-17.64 0-31.92-14.296-31.92-31.912s14.28-31.912 31.92-31.912z"/><glyph unicode="" d="M256 480C114.608 480 0 365.392 0 224S114.608-32 256-32 512 82.608 512 224 397.392 480 256 480zm224-256c0-33.16-7.296-64.632-20.28-92.968l-141.608 75.776c1.512 5.488 2.392 11.232 2.392 17.192 0 35.624-28.872 64.504-64.504 64.504-7.312 0-14.312-1.272-20.856-3.512l-84.808 136.456C181.832 438.368 217.808 448 256 448c123.512 0 224-100.488 224-224zm-224 32.496c17.92 0 32.504-14.576 32.504-32.504S273.92 191.496 256 191.496 223.504 206.08 223.504 224 238.08 256.496 256 256.496zM123.288 404.312l85.088-136.92c-.376-.416-.768-.824-1.144-1.256l-141.584 75.76a225.771 225.771 0 0 0 57.64 62.416zM32 224c0 31.84 6.72 62.128 18.752 89.584l142.184-76.08a64.718 64.718 0 0 1-1.44-13.504c0-35.624 28.872-64.504 64.504-64.504 6.2 0 12.176.92 17.848 2.552l85.096-136.896C328.104 9.128 293.112 0 256 0 132.488 0 32 100.488 32 224zM386.224 41.92l-84.752 136.344c.248.248.48.512.728.768l142.144-76.072a226.025 226.025 0 0 0-58.12-61.04z"/><glyph unicode="" d="M508.2 231.68l-4.24 4.04c-.08.08-.168.112-.264.184l-64.872 59.216c-4.672 4.472-12.224 4.472-16.912 0l-2.744-4.032c-4.672-4.472-3.152-11.704 1.52-16.168l38.232-34.672H273.248V426.92l34.672-38.232c4.472-4.672 11.704-6.192 16.168-1.512l4.032 2.736c4.472 4.688 4.472 12.24 0 16.92l-56.584 61.984a15.935 15.935 0 0 1-6.16 6.648l-.712.744c-2.216 2.336-5.168 3.504-8.112 3.488-2.952.016-5.888-1.152-8.144-3.488l-4.048-4.232c-.08-.08-.088-.184-.168-.272l-57.752-63.872c-4.464-4.664-4.464-12.224 0-16.912l4.032-2.736c4.464-4.672 11.712-3.16 16.184 1.512l34.576 38.552V240.256H53.08l38.232 34.672c4.672 4.472 6.192 11.704 1.52 16.168l-2.736 4.032c-4.68 4.472-12.248 4.472-16.92 0l-61.992-56.592a15.976 15.976 0 0 1-6.64-6.144l-.744-.712c-2.344-2.224-3.504-5.176-3.488-8.12-.008-2.952 1.144-5.888 3.488-8.144l4.232-4.048c.08-.08.184-.088.264-.168l63.872-57.752c4.672-4.464 12.232-4.464 16.92 0l2.736 4.032c4.672 4.472 3.152 11.72-1.52 16.184l-38.56 34.576h189.504V19.76l-34.576 38.552c-4.472 4.672-11.72 6.184-16.184 1.512l-4.032-2.736c-4.464-4.688-4.464-12.248 0-16.912l57.752-63.872c.08-.088.096-.184.168-.264l4.048-4.24c2.256-2.336 5.192-3.504 8.144-3.488 2.936-.016 5.888 1.152 8.112 3.488l4.048 4.24c.08.08.112.168.184.264l59.216 64.872c4.472 4.672 4.472 12.232 0 16.912l-4.032 2.744c-4.472 4.672-11.704 3.152-16.168-1.52L273.256 21.08v187.168H460.24l-38.552-34.576c-4.672-4.472-6.184-11.72-1.512-16.184l2.736-4.032c4.688-4.464 12.248-4.464 16.912 0l63.872 57.752c.088.088.184.096.264.168l4.24 4.048c2.336 2.248 3.504 5.184 3.488 8.144.016 2.928-1.152 5.888-3.488 8.112z"/><glyph unicode="" d="M496 80h-64v296.952l59.728 59.648c6.24 6.248 6.24 16.384 0 22.632-6.248 6.248-16.384 6.248-22.632 0L409.792 400H112v64c0 8.84-7.16 16-16 16s-16-7.16-16-16v-64H16c-8.84 0-16-7.16-16-16 0-8.832 7.16-16 16-16h64V64c0-1.472.472-2.8.84-4.144.16-.608.128-1.232.36-1.816a15.874 15.874 0 0 1 8.832-8.84c.688-.28 1.44-.248 2.144-.424C93.44 48.456 94.64 48 96 48h304v-64c0-8.84 7.16-16 16-16s16 7.16 16 16v64h64c8.84 0 16 7.16 16 16s-7.16 16-16 16zM377.744 368L112 102.608V368h265.744zM134.64 80L400 344.992V80H134.64z"/><glyph unicode="" d="M464.072 392H47.928c-26.512 0-48-21.488-48-48V104c0-26.512 21.488-48 48-48h416.144c26.512 0 48 21.488 48 48v240c0 26.512-21.488 48-48 48zM47.928 360h416.144c8.832 0 16-7.168 16-16v-32H31.928v32c0 8.832 7.176 16 16 16zM464.072 88H47.928c-8.832 0-16 7.168-16 16v144h448.144V104c0-8.832-7.176-16-16-16z"/><glyph unicode="" d="M405.208-5.36l-85.2 100.832v176.752h10.656c8.84 0 16 7.16 16 16s-7.16 16-16 16h-26.656c-8.84 0-16-7.16-16-16V89.312c0-3.968 1.472-7.784 4.128-10.72L357.32-.08H154.68l65.184 78.672a15.971 15.971 0 0 1 4.128 10.72v198.912c0 8.84-7.16 16-16 16h-26.656c-8.84 0-16-7.16-16-16s7.16-16 16-16h10.656V95.472L106.792-5.36a16.02 16.02 0 0 1-2.752-17.216 16 16 0 0 1 14.624-9.504h274.672a16 16 0 0 1 14.624 9.504 16.004 16.004 0 0 1-2.752 17.216zM240 320.16c17.632 0 31.92 14.296 31.92 31.92 0 17.608-14.288 31.904-31.92 31.904-17.64 0-31.92-14.296-31.92-31.904 0-17.624 14.28-31.92 31.92-31.92zm104.24 47.496c31.184 0 56.464 25.168 56.464 56.208s-25.272 56.208-56.464 56.208c-31.176 0-56.464-25.168-56.464-56.208s25.288-56.208 56.464-56.208zm-.248 80.512c13.328 0 24.168-10.792 24.168-24.064 0-13.264-10.84-24.064-24.168-24.064s-24.168 10.8-24.168 24.064c.008 13.272 10.84 24.064 24.168 24.064z"/><glyph unicode="" d="M255.864 448c54.336 0 111.96-45.768 111.96-79.928v-79.96c0-30.776-12.8-89.656-47.128-116.688a31.995 31.995 0 0 1 6.44-54.216l139.248-66.032c1.088-.496 13.344-2.552 13.344-19.672l.016-31.232L32 .248V32.72c0 12.72 9.544 16.712 13.36 18.472l140.512 66.312c10.08 4.624 17.032 14.16 18.384 25.16 1.36 11-3.08 21.92-11.728 28.856-33.24 26.688-48.728 85.352-48.728 116.592v79.96C143.808 401.496 202.008 448 255.864 448m0 32C185.208 480 111.8 421.032 111.8 368.072v-79.96c0-34.936 15.944-105.624 60.696-141.544l-140.52-66.32S0 66 0 48.264V.248c0-17.672 14.32-31.984 31.976-31.984h447.776c17.672 0 31.984 14.312 31.984 31.984v48.016c0 18.8-31.984 31.984-31.984 31.984L340.504 146.28c44.328 34.888 59.328 103.424 59.328 141.832v79.96c0 52.96-73.32 111.928-143.968 111.928z"/><glyph unicode="" d="M255.992 461.936C115.008 461.936.32 347.232.32 206.248c0-88.576 44.84-169.592 119.952-216.704 7.472-4.736 17.344-2.44 22.048 5.048s2.44 17.36-5.048 22.048c-27.048 16.976-49.52 39.024-66.712 64.44l16.776 9.688c7.656 4.424 10.28 14.2 5.856 21.856-4.44 7.672-14.232 10.28-21.856 5.856l-16.8-9.696c-12.2 25.256-19.648 52.896-21.64 81.712h17.808c8.84 0 16 7.16 16 16s-7.16 16-16 16H32.976c2.12 29.344 9.888 57.152 22.28 82.296l16.08-9.28a15.872 15.872 0 0 1 7.984-2.144 16.01 16.01 0 0 1 13.872 8c4.424 7.656 1.8 17.44-5.856 21.856l-15.92 9.184a225.572 225.572 0 0 0 59.992 59.512l9.008-15.6c2.968-5.144 8.344-8 13.872-8 2.72 0 5.472.688 7.984 2.144 7.656 4.424 10.28 14.2 5.856 21.856l-8.976 15.536c24.664 11.896 51.84 19.328 80.488 21.408v-19.936c0-8.84 7.16-16 16-16s16 7.16 16 16v20c29.296-2.04 57.064-9.696 82.192-21.976l-8.68-15.024c-4.424-7.656-1.8-17.44 5.856-21.856a15.872 15.872 0 0 1 7.984-2.144c5.528 0 10.904 2.856 13.872 8l8.64 14.968a225.594 225.594 0 0 0 59.44-59.408l-14.984-8.656c-7.656-4.424-10.28-14.2-5.856-21.856 2.968-5.144 8.344-8 13.872-8 2.72 0 5.472.688 7.984 2.144l15.064 8.696C469.32 279.08 477 251.304 479.048 222H461.48c-8.84 0-16-7.16-16-16s7.16-16 16-16h17.56c-2.024-28.44-9.296-55.72-21.248-80.656l-15.84 9.144c-7.64 4.424-17.456 1.784-21.856-5.856-4.424-7.656-1.8-17.44 5.856-21.856L441.84 81.6c-17.552-26.12-40.72-48.696-68.68-65.912-7.528-4.64-9.856-14.504-5.232-22.016a16.003 16.003 0 0 1 13.64-7.608c2.856 0 5.768.768 8.376 2.376C466.176 35.392 511.68 116.832 511.68 206.256c0 140.976-114.704 255.68-255.688 255.68zm118.064-205.8c7.648 4.424 10.272 14.2 5.856 21.856-4.416 7.648-14.208 10.272-21.856 5.848l-86.912-50.176c-4.64 2.624-9.928 4.248-15.64 4.248-17.64 0-31.92-14.296-31.92-31.904 0-17.624 14.288-31.92 31.92-31.92 17.64 0 31.92 14.296 31.92 31.92 0 .032-.008.072-.008.104l86.64 50.024z"/><glyph unicode="" d="M470.368 385.152c-13.872 9.984-52.528 23.248-214.504 23.248-173.576 0-199.328-15.232-207.592-20.216C4.288 361.76.112 244.776-.272 221.056.256 189.728 5.32 85.496 48.24 59.712 56.488 54.744 82.096 39.6 255.864 39.6c162.08 0 200.688 13.2 214.504 23.144 37.488 26.968 41.8 119.84 41.904 158.72-.096 31.264-3.376 135.936-41.904 163.688zM451.68 88.712C446.104 84.696 414.088 71.6 255.864 71.6 102.896 71.6 70.8 83.472 64.736 87.128 49.296 96.392 33 145.568 31.72 221.144c1.264 75.408 17.784 130.456 33.048 139.608 6.08 3.672 38.296 15.64 191.096 15.64 158.096 0 190.2-13.184 195.816-17.216 13.704-9.872 28.376-61.84 28.592-137.816-.216-77.168-14.984-122.856-28.592-132.648zm-91.472 147.872L216.24 324.928a16.009 16.009 0 0 1-24.272-13.704v-176.72a16.009 16.009 0 0 1 16-16c2.856 0 5.736.768 8.264 2.296L360.2 209.176c4.8 2.904 7.736 8.096 7.736 13.704s-2.928 10.816-7.728 13.704zm-136.232-73.736v120.048l97-60.016-97-60.032z"/><glyph unicode="" d="M342.2 400.656c26.44 0 50.312-10.816 67.128-28.184 20.92 4.048 40.64 11.424 58.36 21.64-6.856-20.816-21.44-38.28-40.408-49.328 18.56 2.184 36.328 6.952 52.816 14.08-12.36-17.872-27.92-33.608-45.888-46.184.168-3.816.264-7.672.264-11.512 0-117.864-92.504-253.808-261.656-253.808-51.92 0-100.28 14.816-140.952 40.112a188.77 188.77 0 0 1 21.92-1.264c43.08 0 82.752 14.248 114.232 38.2-40.264.688-74.248 26.504-85.904 61.92a94.027 94.027 0 0 1 17.312-1.608c8.36 0 16.504 1.08 24.2 3.128-42.064 8.168-73.768 44.224-73.768 87.464v1.144c12.408-6.688 26.576-10.704 41.672-11.168-24.688 16.016-40.92 43.28-40.92 74.232a86.533 86.533 0 0 0 12.456 44.816c45.344-53.936 113.104-89.456 189.544-93.192-1.576 6.512-2.392 13.392-2.392 20.312 0 49.272 41.176 89.2 91.984 89.2m137.896-41.808h.08M342.2 432.656c-62.832 0-114.888-45.904-122.904-105.216-51.408 10.328-98.16 37.544-131.752 77.472a31.996 31.996 0 0 1-27 11.312 32.056 32.056 0 0 1-24.888-15.392 118.787 118.787 0 0 1-17.048-61.328c0-14.424 2.592-28.472 7.504-41.608a32.08 32.08 0 0 1-8.248-21.456v-1.144c0-31.344 12.392-60.432 32.968-82.232a31.904 31.904 0 0 1 .888-16.736c7.096-21.592 20.016-40.2 36.768-54.376-11.248-2.504-22.856-3.768-34.704-3.768-6.264 0-12.36.344-18.128 1.048a30.6 30.6 0 0 1-3.816.216c-13.44 0-25.64-8.472-30.168-21.392-4.968-14.16.544-29.856 13.28-37.784 47.264-29.408 101.856-44.936 157.856-44.936 182.016 0 291.504 142.488 293.632 281.672a214.78 214.78 0 0 1 39.224 42.576 31.695 31.695 0 0 1 6.48 19.248c0 10.888-5.448 20.512-13.744 26.296 3.592 12.312-.504 25.64-10.504 33.784a31.964 31.964 0 0 1-20.2 7.168 31.876 31.876 0 0 1-15.984-4.28c-10.576-6.096-21.888-10.92-33.8-14.392-21.552 16.216-48.272 25.248-75.712 25.248z"/><glyph unicode="" d="M264.008 448.128V336.192h112.16v-47.984H264.504l-.16-139.264c0-25.888 1.344-42.504 4.08-49.872 4.264-11.624 19.784-26.504 48.592-26.504 22.344 0 52.488 6.72 75.08 23.624V21.536c-18.84-8.984-36.36-12.608-51.624-16.232C325.192 1.696 308.64-.12 290.896-.12c-19.768 0-76.832.544-100.248 60.2-4.216 10.736-6.328 26.328-6.328 46.736v181.312h-64.424l.312 49.064c21.328 0 85.312 12.952 85.312 110.936h58.488m0 32H205.52c-17.672 0-32-14.328-32-32 0-73.248-40.816-78.936-53.312-78.936-17.608 0-31.92-14.232-32-31.84l-.312-49.064a32.035 32.035 0 0 1 9.312-22.736 32.029 32.029 0 0 1 22.688-9.424h32.424V106.816c0-24.688 2.8-43.816 8.544-58.44 14.424-36.72 48.688-80.504 130.032-80.504 20.144 0 39.296 2.112 56.936 6.28l3.528.832c14.936 3.512 34.016 7.888 54.504 17.656a31.99 31.99 0 0 1 18.232 28.888v74.656a31.994 31.994 0 0 1-17.672 28.608 31.827 31.827 0 0 1-14.328 3.392 32.002 32.002 0 0 1-19.168-6.376c-19.048-14.264-43.424-17.248-55.904-17.248-12.8 0-17.56 4.64-18.608 5.872-.544 2.512-2.064 11.888-2.064 38.504l.112 107.264h79.704c17.672 0 32 14.328 32 32v47.984c0 17.672-14.328 32-32 32h-80.16v79.944c0 17.672-14.328 32-32 32z"/><glyph unicode="" d="M290.88 439.752c1.904 0 3-.08 3-.08h41.784l-.216-48h-41.504c-22.84 0-22.312-19.504-22.312-19.504v-76.096h80.816l-11.28-47.936h-69.8V8.248h-47.952l-.032 239.888H159.68l-.128 47.936h63.856v74.592c.008 65.04 54.024 69.088 67.472 69.088m44.784-.08h.08m-44.864 32.08c-11.504 0-33.984-1.904-55.28-14.736-20.16-12.128-44.184-36.968-44.184-86.344V328.08H159.56a32.071 32.071 0 0 1-22.672-9.408 32.002 32.002 0 0 1-9.328-22.704l.128-47.936c.064-17.624 14.376-31.888 32-31.888h31.704l.032-207.888c0-17.672 14.328-32 32-32h47.952c17.672 0 32 14.328 32 32v207.888h37.8c14.2 0 26.704 9.36 30.704 22.984l11.28 47.936a31.962 31.962 0 0 1-5.096 28.184 31.955 31.955 0 0 1-25.608 12.832H303.64v31.576l31.816.016c17.608 0 31.92 14.232 32 31.856l.216 46.376c.032.592.048 1.168.048 1.768 0 17.672-14.296 32-31.968 32H294.784c-.92.048-2.248.08-3.904.08z"/><glyph unicode="" d="M511.712 367.624a16.023 16.023 0 0 1-7.488 12.456l-142.592 88.984a15.977 15.977 0 0 1-18.528-1.144l-87.112-70.472-87.096 70.472c-5.296 4.28-12.768 4.768-18.528 1.144L7.776 380.08a16.023 16.023 0 0 1-7.488-12.456 15.948 15.948 0 0 1 5.656-13.376l82.608-69.408-70.768-55.592a15.968 15.968 0 0 1-6.112-13.208c.2-5.12 2.84-9.832 7.112-12.68l65.488-43.656c-3.216-2.92-5.272-7.104-5.272-11.8V83.736c0-5.56 2.888-10.72 7.624-13.64L247.608-21.12c2.56-1.576 5.472-2.36 8.376-2.36s5.816.8 8.392 2.376l159.112 91.216a16.006 16.006 0 0 1 7.608 13.624V159c0 1.032-.12 2.04-.304 3.016l62.024 41.344a15.985 15.985 0 0 1 7.112 12.664 15.985 15.985 0 0 1-6.08 13.208l-70.456 55.576 82.656 69.44a15.932 15.932 0 0 1 5.664 13.376zm-143.376-82.952L255.992 214.28l-112.344 70.392 112.344 73.112 112.344-73.112zM43.4 364.576l114.232 71.296 71.184-57.592-113.672-73.984-71.744 60.28zm71.56-99.688l112.984-70.8-64.032-49.016-109 72.656 60.048 47.16zm-3.952-123l44.672-29.784c5.672-3.784 13.16-3.528 18.592.608l64.704 49.52v-141.4l-127.968 71.84v49.216zm288.096-49.216l-128.128-72.84V163.72l66.328-50.984a15.993 15.993 0 0 1 9.752-3.312c3.096 0 6.184.888 8.872 2.688l43.168 28.784V92.672zm57.624 125.088l-109.016-72.664-63.72 48.968 113 70.816 59.736-47.12zm-59.896 86.536L283.16 378.28l71.2 57.592 114.232-71.296-71.76-60.28z"/><glyph unicode="" d="M255.992 479.864c-34.928 0-68.232-7.056-98.592-19.784a16.02 16.02 0 0 1-3.072-1.336C63.696 419.336.136 328.968.136 223.992c0-141.08 114.784-255.856 255.856-255.856 141.096 0 255.872 114.784 255.872 255.856 0 141.096-114.776 255.872-255.872 255.872zm223.872-255.872c0-1.792-.096-3.56-.136-5.336-24.512 6.504-86.696 18.72-163.4 1.872-6.76 15.448-14.256 31.288-22.64 47.408-.704 1.352-1.392 2.64-2.088 3.976 82.064 31.672 116.944 74.336 131.384 100.976 35.344-39.608 56.88-91.776 56.88-148.896zM398.768 396.28c-7.456-17.6-34.52-63-122.36-95.944-39.448 72.112-70.112 115.336-87.296 137.32 21.128 6.632 43.592 10.208 66.88 10.208 54.216 0 103.992-19.384 142.776-51.584zm-240.744 28.96c13.608-16.64 45.192-58.528 87.552-135.224-100-30.144-181.224-26.52-209.416-23.896 13.408 70.072 59.536 128.656 121.864 159.12zM32.136 223.992c0 3.448.104 6.872.264 10.288 9.624-.968 24.576-2.04 44.144-2.04 43.448 0 108.856 5.376 184.504 29.072 1.424-2.688 2.832-5.368 4.272-8.136 7.216-13.888 13.744-27.592 19.704-41.032-13.688-4.304-27.696-9.536-41.936-15.984C151.776 154.808 108.992 95.808 93.752 69.992c-38.136 40.16-61.616 94.376-61.616 154zM118.048 47.88c8.12 15.376 45.304 77.04 138.224 119.128 13.984 6.336 27.76 11.392 41.192 15.456 30.368-77.16 40.904-140.784 44.088-165.296C315.176 6.216 286.288.136 255.992.136c-52.008 0-99.896 17.88-137.944 47.744zm253.76-15.4c-4.616 30.8-16.072 88.696-42.984 157.832 74.224 14.776 132.976.28 147.808-4.04C465.52 121.168 426.264 65.528 371.808 32.48z"/><glyph unicode="" d="M453.976 407.76a31.999 31.999 0 0 1-21.832 8.608c-.736 0-1.472-.032-2.2-.08-.456-.032-5.592-.344-13.64-.344-13.328 0-39.344.904-63.984 6.968-31.832 7.816-68.56 44.08-79.248 51.232a31.978 31.978 0 0 1-17.784 5.392c-6.184 0-12.392-1.8-17.768-5.376-1.296-.872-39.752-42.016-77.376-51.248-24.624-6.064-51.144-6.968-64.456-6.968-8.048 0-13.184.312-13.688.344-.704.048-1.408.08-2.112.08A32.093 32.093 0 0 1 58 407.728a31.983 31.983 0 0 1-10.16-23.36v-80.016C47.84 8.536 241.4-29.552 249.624-31.04c1.872-.328 3.768-.504 5.656-.504s3.8.168 5.656.504c8.216 1.488 203.2 39.576 203.2 335.392v80.016a31.906 31.906 0 0 1-10.16 23.392zm-21.824-103.408C432.152 31.896 255.296.464 255.296.464s-175.44 31.44-175.44 303.888v80.016s6.048-.424 15.84-.424c16.784 0 45.016 1.232 72.08 7.888 44.312 10.872 87.512 55.704 87.512 55.704s45.128-44.832 89.392-55.704c27.096-6.656 54.84-7.888 71.624-7.888 9.784 0 15.84.424 15.84.424s.008-10.176.008-80.016zM323.8 306.88c-6.248 6.248-16.384 6.248-22.624 0l-45.256-45.256-45.256 45.256c-6.248 6.248-16.384 6.248-22.632 0s-6.248-16.384 0-22.624L233.288 239l-45.256-45.256c-6.248-6.24-6.248-16.376 0-22.624s16.384-6.248 22.632 0l45.256 45.256 45.256-45.256c6.24-6.248 16.376-6.248 22.624 0s6.248 16.384 0 22.624L278.544 239l45.256 45.256c6.248 6.24 6.248 16.376 0 22.624z"/><glyph unicode="" d="M416.072 480H95.928c-26.512 0-48-21.488-48-48V16c0-26.512 21.488-48 48-48h320.144c26.512 0 48 21.488 48 48v416c0 26.512-21.488 48-48 48zm16-464c0-8.832-7.168-16-16-16H95.928c-8.832 0-16 7.168-16 16v416c0 8.832 7.168 16 16 16h320.144c8.832 0 16-7.168 16-16V16zM256.024 79.912c-17.64 0-31.92-14.296-31.92-31.912s14.28-31.92 31.92-31.92c17.632 0 31.92 14.304 31.92 31.92s-14.288 31.912-31.92 31.912zm32 352.088h-64c-8.832 0-16-7.168-16-16s7.168-16 16-16h64c8.832 0 16 7.168 16 16s-7.168 16-16 16z"/><glyph unicode="" d="M510.256 265.312l-51.392 76.84 25.576 89.408a16.015 16.015 0 0 1-4.112 15.752c-4.128 4.128-10.128 5.656-15.768 4.016l-89.256-26.064-77.144 51.952c-4.856 3.264-11.08 3.656-16.232.968a16.052 16.052 0 0 1-8.704-13.752l-2.768-92.968-73.248-57.296c-4.592-3.592-6.856-9.408-5.936-15.16s4.904-10.544 10.408-12.512l68.728-24.64c-.464-.368-.952-.696-1.384-1.128L3.648-4.648c-6.248-6.248-6.248-16.376 0-22.624C6.776-30.4 10.864-31.96 14.96-31.96s8.184 1.56 11.312 4.688l265.376 265.376c1.032 1.032 1.832 2.2 2.52 3.408l26.896-73.776a16.03 16.03 0 0 1 12.576-10.328c.816-.128 1.64-.184 2.456-.184 4.904 0 9.592 2.264 12.656 6.216l56.888 73.584 91.952 3.28c5.832.2 11.08 3.56 13.72 8.768a16.014 16.014 0 0 1-1.056 16.24zm-113.232 3.416a15.99 15.99 0 0 1-12.096-6.2l-43.736-56.552-24.488 67.16a15.974 15.974 0 0 1-9.64 9.576l-67.296 24.128 56.312 44.032A16.062 16.062 0 0 1 302.224 363l2.128 71.472 59.296-39.936a16.094 16.094 0 0 1 13.424-2.096l68.624 20.048-19.672-68.736a16.088 16.088 0 0 1 2.168-13.424l40.28-59.064-71.448-2.536z"/><glyph unicode="" d="M416.528 447.696h-32.232V339.992c0-52.192-28.328-91.68-89.048-122.6 63.032-31.904 89.552-71.08 89.552-129.536 0-38.064-.168-70-.296-87.56h32.032c8.84 0 16-7.144 16-15.984s-7.16-16-16-16H95.472c-8.84 0-16 7.16-16 16s7.16 15.984 16 15.984h32.968c-.12 17.56-.296 49.504-.296 87.56 0 58.456 26.144 97.624 89.072 129.528-60.616 30.92-88.568 70.408-88.568 122.6v107.712H95.472c-8.84 0-16 7.152-16 16 0 8.832 7.16 15.992 16 15.992h321.064c8.84 0 16-7.16 16-15.992-.008-8.848-7.16-16-16.008-16zM160.136 87.856c0-38.144.176-70.112.296-87.56H352.52c.112 17.456.296 49.424.296 87.56 0 44.504-16.56 79.016-96.592 112.2-80.008-33.184-96.088-67.696-96.088-112.2zm192.176 359.84h-191.68V339.992c0-30.688 10.32-70.208 95.584-105.264 85.28 35.056 96.096 74.576 96.096 105.264v107.704z"/><glyph unicode="" d="M495.424 131.848V260.92l8.048 4.248c5.232 2.72 8.528 8.112 8.592 14.016a16 16 0 0 1-8.296 14.184l-240.72 128.8c-4.816 2.64-10.64 2.624-15.488-.048L8.16 293.16c-5.096-2.84-8.248-8.232-8.216-14.08s3.248-11.2 8.408-13.984l105.192-55.992c-1.32-2.328-2.136-4.984-2.136-7.848V65.864c0-4.56 1.952-8.92 5.36-11.952 3.472-3.08 36.72-30.048 138.376-30.048 101.296 0 135.44 25.488 139 28.392a15.967 15.967 0 0 1 5.872 12.392v138.864c0 2.248-.472 4.384-1.304 6.32l64.712 34.184V131.76c-9.488-5.552-15.92-15.736-15.92-27.512 0-17.672 14.328-32 32-32s32 14.328 32 32c0 11.848-6.52 22.072-16.08 27.6zM368.016 73.816c-12.576-6.048-45.856-17.952-112.872-17.952-67.44 0-99.968 12.672-111.736 18.768V193.2l103.904-55.312a15.947 15.947 0 0 1 7.592-1.92c2.544 0 5.096.608 7.408 1.832l105.704 55.832V73.816zm-112.984 96.28l-205.8 109.28 206.16 110.488 206.8-110.168-207.16-109.6z"/><glyph unicode="" d="M255.992 480.064c-114.608 0-207.84-99.952-207.84-222.8V-16.072c0-6.608 4.08-12.544 10.248-14.92a15.606 15.606 0 0 1 5.752-1.08c4.424 0 8.768 1.84 11.856 5.264l60.296 66.56 47.216-65.216a15.959 15.959 0 0 1 12.84-6.608h.112a15.99 15.99 0 0 1 12.832 6.456l47.408 63.672 46.592-63.576a15.995 15.995 0 0 1 12.904-6.544c5.096 0 9.888 2.424 12.904 6.528l47.784 65.144 59-66.312c4.408-4.952 11.472-6.688 17.64-4.312a16.009 16.009 0 0 1 10.312 14.952v273.336c0 122.84-93.248 222.792-207.856 222.792zm175.856-454.08l-44.2 49.688c-3.216 3.608-7.904 5.656-12.704 5.344a16.054 16.054 0 0 1-12.16-6.512L316.224 11 269.72 74.456A15.987 15.987 0 0 1 256.88 81h-.064a15.967 15.967 0 0 1-12.832-6.456L196.64 10.968l-46 63.544a15.94 15.94 0 0 1-12.08 6.576c-.296.016-.576.032-.872.032a15.992 15.992 0 0 1-11.856-5.264L80.144 25.432v231.84c0 105.2 78.888 190.8 175.84 190.8 96.968 0 175.856-85.592 175.856-190.8V25.984zM336 303.92c-17.64 0-31.92-14.296-31.92-31.904 0-17.624 14.28-31.92 31.92-31.92s31.92 14.296 31.92 31.92c0 17.608-14.28 31.904-31.92 31.904zm-160 0c-17.64 0-31.92-14.296-31.92-31.904 0-17.624 14.288-31.92 31.92-31.92s31.92 14.296 31.92 31.92c0 17.608-14.28 31.904-31.92 31.904z"/><glyph unicode="" d="M371.608 442.224c-12.8 6.008-24.904 11.664-35.92 17.192-28.232 14.144-53.832 21.016-78.232 21.016-49.144 0-83.152-28.352-104.48-49.68l-17.792-17.808-11.872-11.888L106.08 383.8l-26.864-26.896-29.664-29.688c-55.344-55.4-64.184-111.8-28.632-182.904 5.512-11.04 11.184-23.168 17.184-36.016C70.456 39.104 103.896-32.448 158.632-32.448c1.536 0 3.056.048 4.608.168 56.488 4.424 72.512 77.144 86.656 141.296 2.248 10.16 4.376 19.904 6.56 28.64 3.8 15.104 11.28 24.488 31.776 45.032l2.816 2.832 1.736 1.736 2.248 2.24 2.312 2.304c20.544 20.544 29.928 28.016 45.048 31.832 8.656 2.176 18.376 4.32 28.512 6.544 64.112 14.152 136.8 30.184 141.2 86.76 4.44 57.416-69.232 91.92-140.496 125.288zm107.624-122.392c-3.112-39.888-92.408-51.664-145.552-64.992-23.504-5.936-37.808-18.376-59.392-39.968-1.504-1.504-3.016-3.008-4.544-4.536-1.512-1.512-3.016-3.048-4.528-4.544-21.584-21.608-34-35.904-39.912-59.44C211.968 93.16 200.208 3.768 160.368.632c-.72-.056-1.44-.072-2.16-.072-42.272 0-77.84 96.12-109.224 158.832-31.872 63.752-18.216 105.112 22.68 146.048 7.848 7.864 17.608 17.624 29.568 29.592 12.216 12.232 26.744 26.776 43.96 44 11.952 11.968 21.704 21.712 29.56 29.592 25.4 25.424 50.968 40.32 81.96 40.32 18.904 0 39.816-5.528 63.936-17.624 63.728-31.952 161.944-68.24 158.584-111.488zm-239.84-15.472h32v32h-32v-32zm0 48h32v32h-32v-32zm48 0h32v32h-32v-32zm0-48h32v32h-32v-32zm-122.448-96.08l12.168 12.168c6 6 6 15.736 0 21.728-6 6-15.72 6-21.72 0L143.216 230l-12.176 12.176c-6 6-15.72 6-21.72 0-6-6-6-15.728 0-21.728l12.176-12.176-12.176-12.176c-6-5.992-6-15.72 0-21.72 6-6 15.728-6 21.72 0l12.176 12.168 12.528-12.528c6-6 15.72-6 21.72 0s6 15.736 0 21.736l-12.52 12.528z"/><glyph unicode="" d="M254.208-31.64C133.584-31.64 48.024 52 48.024 167.248c0 61.184 36.688 127.096 38.248 129.856 3.184 5.672 9.44 8.752 15.968 8.032a16.026 16.026 0 0 0 13.44-11.784c.096-.376 9.984-37.376 23.032-57.92 8.768-13.824 17.656-23.592 27.656-30.376-6.768 29.328-11.952 73.456-3.512 118.736C186.024 448.08 283.848 477.816 288.04 479.016c5.392 1.544 11.112.16 15.216-3.576a15.988 15.988 0 0 0 4.904-14.832c-.16-.872-16.312-87.888 17.968-162.032 3.112-6.736 7.456-14.56 12.128-22.392 1.328 10.752 3.392 22.184 6.56 33.28 12.576 43.984 45.096 59 46.472 59.608 5.424 2.472 11.752 1.656 16.44-2.016a16.03 16.03 0 0 0 5.84-15.504c-.168-1.08-4.704-31.016 20.768-73.472 23-38.336 29.64-63.184 29.64-110.84 0-115.24-88.216-198.88-209.768-198.88zm-156.36 277.8c-8.784-22.152-17.832-51.624-17.832-78.904C80.016 70.552 152.112.368 254.2.368c103 0 177.768 70.184 177.768 166.888 0 41.768-5.16 61.16-25.08 94.376-13.312 22.184-19.888 42.128-23.032 58-3.168-5.128-6.112-11.392-8.264-18.936-9.752-34.096-7.296-73.968-7.264-74.376.472-7.136-3.872-13.736-10.624-16.128s-14.264-.032-18.408 5.832c-1.2 1.704-29.656 41.984-42.2 69.12-26.048 56.296-25.608 117.168-22.952 152.232-26.36-15.36-66.832-49.672-79.832-119.456-12.656-67.904 11.936-135.8 12.2-136.472a16.053 16.053 0 0 0-2.904-16.296c-3.92-4.44-9.952-6.408-15.768-5.016-1.984.488-47.016 12.2-76.168 58.144-5.208 8.232-9.88 18.192-13.824 27.88z"/><glyph unicode="" d="M512.688 154.104c-.488 6.92-26.504 159.656-30.576 184.112-.392 2.344-.704 4.84-1.048 7.472C477.92 370.264 472.048 416 398.328 416c-8.84 0-16-7.16-16-16s7.16-16 16-16c45.56 0 47.968-18.704 51-42.392.392-3.032.768-5.936 1.216-8.64 1.872-11.264 10.352-56.08 17.672-100.512-18.776 14.312-42.144 22.904-67.56 22.904-40.824 0-77.16-21.976-97.136-54.68-9.608 3.632-25.912 8.168-47.696 8.168-21.472 0-37.256-4.568-47.016-8.544-19.424 32.912-55.152 55.064-96.136 55.064-26.632 0-51.368-9.36-70.92-24.92 7.416 44.992 16.2 91.016 18.104 102.512.456 2.704.832 5.608 1.216 8.64 3.032 23.688 5.44 42.392 51 42.392 8.84 0 16 7.16 16 16s-7.16 16-16 16c-73.72 0-79.592-45.736-82.736-70.312-.344-2.624-.656-5.128-1.048-7.472C24.208 313.752-.216 162.024-.696 155.096c-.112-1.544.072-3.024.376-4.472-.152-2.312-.36-4.608-.36-6.952C-.68 82 50.992 32 112.664 32s111.672 50 111.672 111.672c0 9.328-1.272 18.336-3.424 26.992 6.56 2.64 18.416 6.168 34.904 6.168 16.088 0 28.232-3.216 35.152-5.664-2.304-8.816-3.664-17.984-3.664-27.496C287.304 82 338.976 32 400.648 32S512.32 82 512.32 143.672c0 1.672-.176 3.304-.248 4.96.488 1.744.76 3.568.616 5.472zM112.672 64.008c-44.096 0-81.344 36.488-81.344 79.672s37.248 79.672 81.344 79.672c43.936 0 79.672-35.736 79.672-79.672s-35.736-79.672-79.672-79.672zm287.984 0c-44.096 0-81.344 36.488-81.344 79.672s37.248 79.672 81.344 79.672c38 0 69.816-26.744 77.728-62.392.328-3.264.6-6.336.808-9.144.096-1.344.456-2.608.92-3.832.08-1.44.216-2.856.216-4.312 0-43.928-35.736-79.664-79.672-79.664z"/><glyph unicode="" d="M511.656 243.352a31.927 31.927 0 0 1-6.048 15.232h.08l-.44.44c-1.64 2.16-3.56 4.064-5.704 5.752L290.904 466.48c-18.112 18.112-49.752 18.144-67.888 0L14.408 266.352c-4.512-4.2-14.44-15.544-14.44-26.672V-.08c0-17.592 14.408-32 32-32h448c17.592 0 32 14.408 32 32v239.128c.112 1.44-.032 2.88-.312 4.304zm-376.76-126.52L31.968 22.048V207.64l102.928-90.808zm32.888-13.192c1.144.76 2.232 1.624 3.184 2.704.184.208.312.456.48.672l70.584 65c3.624 2.92 7.92 4.456 12.44 4.456 4.592 0 9.184-1.608 12.264-4L458.536-.08H55.168l112.616 103.72zm210.944 11.08l101.24 89.848V23.648l-101.24 91.072zM51.888 258.584L245.64 443.856c3.032 3.016 7.048 4.688 11.312 4.688 4.28 0 8.296-1.672 11.328-4.688L448.968 271.68h-.488l27.448-27.896-121.152-107.52-67.624 60.832c-18.84 14.768-45.888 15.408-65.84-.688l-62.752-57.792L37.664 245.288l13.496 13.296h.728z"/><glyph unicode="" d="M511.656 243.36a31.927 31.927 0 0 1-6.048 15.232h.08l-.44.44c-1.64 2.16-3.56 4.064-5.704 5.752l-83.576 84.192v51.632c0 8.84-7.16 16-16 16h-50.664l-58.4 49.856c-18.112 18.112-49.752 18.144-67.888 0l-58.2-49.856h-52.848c-8.84 0-16-7.16-16-16V347.92l-81.56-81.56c-8.672-5.736-14.44-15.544-14.44-26.672V-.064c0-17.592 14.408-32 32-32h448c17.592 0 32 14.408 32 32v239.12c.112 1.44-.032 2.88-.312 4.304zM134.432 117.248L31.968 22.208v185.448l102.464-90.408zm30.848-15a15.818 15.818 0 0 1 5.688 4.112c.856.968 1.528 2.032 2.112 3.128l68.952 63.968c3.624 2.92 7.92 4.456 12.44 4.456 4.592 0 9.184-1.608 12.264-4L458.656-.056H55l110.28 102.304zm213.888 12.888l100.8 89.448V23.768l-100.8 91.368zm69.8 156.552h-.488l27.448-27.896-59.96-53.216V304.68l33-32.992zM245.64 443.84c3.032 3.016 7.048 4.688 11.312 4.688 4.28 0 8.296-1.672 11.328-4.688l32.312-27.232h-87.216l32.264 27.232zm138.328-59.232V162.184l-28.656-25.44-68.16 61.784c-18.84 14.768-45.888 15.408-65.84-.688L158 139.12l-30.032 26.504v218.984h256zM51.888 258.592l44.08 44.064V193.848l-58.312 51.448 13.496 13.296h.736z"/><glyph unicode="" d="M452.808 124.056c-18.672 22.712-44.24 54.872-44.24 87.68v104.48c0 90.008-67.32 163.24-153.344 163.24-86.04 0-152.832-73.232-152.832-163.24v-104.48c0-32.256-27.744-62.744-45.336-86.4-15.824-21.256-28.312-38.048-19.88-54.832C44.592 55.736 63.16 53.84 78.504 53.84h91.68c.024-47.104 38.224-85.288 85.336-85.288 47.12 0 85.32 38.184 85.344 85.288h93.832c9.76 0 32.576 0 40.432 16.6 7.928 16.808-4.76 32.256-22.32 53.616zM255.504 2.072c-28.608 0-51.816 23.176-51.856 51.768H307.36c-.04-28.592-23.232-51.768-51.856-51.768zm179.192 85.832H78.504c-2.448 0-4.496.08-6.184.184 3.296 5.104 8.136 11.624 12.072 16.928 19.496 26.2 52.072 63.184 52.072 106.712v104.48c0 71.232 51.52 129.176 118.76 129.176 67.24 0 119.28-57.944 119.28-129.176v-104.48c0-45.008 30.04-82.624 51.984-109.304 3.696-4.496 8.12-9.88 11.56-14.48-1.016-.024-2.136-.04-3.352-.04z"/><glyph unicode="" d="M510.528 60.016l-93.632 173.152c9.552 21.68 14.896 45.64 14.896 70.848 0 97.152-78.76 175.904-175.904 175.904-97.168 0-175.92-78.76-175.92-175.904 0-25.816 5.608-50.312 15.592-72.392L1.512 60.096c-3.032-5.512-2.528-12.312 1.264-17.344 3.8-5.016 10.216-7.376 16.344-5.936L99.432 55.24l27.488-76.56a15.996 15.996 0 0 1 13.872-10.544 15.1 15.1 0 0 1 1.184-.048 16.002 16.002 0 0 1 14.096 8.44l81.848 152.488c5.904-.6 11.896-.904 17.96-.904 5.56 0 11.048.288 16.472.8l83.624-152.504a15.993 15.993 0 0 1 15.28-8.264c6.28.504 11.688 4.624 13.816 10.544l27.488 76.56 80.312-18.424c6.16-1.488 12.512.904 16.312 5.904 3.816 4.992 4.328 11.76 1.344 17.288zm-365.64-36.688l-20.128 56.08c-2.752 7.624-10.736 12.064-18.64 10.184l-59.4-13.624 67.704 123.488c22.296-30.12 53.976-52.84 90.72-63.896L144.888 23.328zm-32.776 280.688c0 79.272 64.504 143.768 143.784 143.768 79.272 0 143.768-64.496 143.768-143.768s-64.496-143.784-143.768-143.784c-79.288 0-143.784 64.512-143.784 143.784zm293.76-214.424c-7.936 1.872-15.888-2.56-18.64-10.184L366.968 22.92 305.392 135.2c37.72 11.048 70.168 34.368 92.752 65.368l67.424-124.664-59.696 13.688z"/><glyph unicode="" d="M510.512 114.296l-41.144 75.648c-.064.104-.048.2-.112.296l-2.936 5.072c-1.64 2.808-4.216 4.616-7.096 5.296a11.056 11.056 0 0 1-8.704-1.488l-4.92-3.168c-.096-.056-.152-.144-.248-.208l-72.8-49.16c-5.44-3.504-7.208-10.84-3.968-16.456l3.272-3.6c3.24-5.592 10.632-5.824 16.08-2.32l43.52 29.592C421.152 70.8 354.088 7.104 271.976-.288v320.8H336c8.832 0 16 7.168 16 16s-7.168 16-16 16h-64.72c-.12.416-.224.832-.384 1.232 28.552 6.64 49.848 32.184 49.848 62.768 0 35.624-28.872 64.504-64.504 64.504-35.624 0-64.496-28.872-64.496-64.504 0-30.408 21.056-55.832 49.368-62.64-.168-.44-.288-.904-.424-1.36H176c-8.832 0-16-7.168-16-16s7.168-16 16-16h63.992V-.28C157.904 7.112 90.912 70.784 80.584 153.776l43.472-29.56c5.44-3.504 12.832-3.272 16.072 2.32l3.28 3.6c3.24 5.608 1.472 12.952-3.976 16.456l-72.8 49.16c-.096.072-.152.16-.24.208l-4.928 3.168a11.078 11.078 0 0 1-8.704 1.488c-2.872-.68-5.456-2.496-7.096-5.296l-2.936-5.08c-.056-.096-.048-.192-.104-.296L1.488 114.296C-1.76 108.712.016 101.36 5.464 97.848l4.56-1.712c5.44-3.496 12.128-.32 15.376 5.272l23.952 44.488C64.04 43.536 151.904-33.016 255.992-33.016c104.032 0 191.96 76.544 206.68 178.856l23.92-44.432c3.248-5.592 9.944-8.768 15.384-5.272l4.56 1.712c5.448 3.512 7.224 10.864 3.976 16.448zm-286.76 302.216c0 17.92 14.576 32.504 32.496 32.504s32.504-14.576 32.504-32.504-14.576-32.504-32.504-32.504c-17.912.008-32.496 14.584-32.496 32.504z"/><glyph unicode="" d="M511.824 334.76c.232 11.832-2.952 39.424-38.92 49.032l-357.88 71.968-3.328.344c-26.472 0-48-21.528-48-48v-64.352l-16 .04C21.32 343.68-.12 322.216-.12 295.808V39.904c0-26.472 21.528-48 48-48h416.232c26.472 0 48 21.528 48 48l-.288 294.856zM95.696 408.104c0 8.36 6.44 15.232 14.608 15.936l353-71.44c.128-.064-2.624-8.968-15.44-8.8H95.696v64.304zM480.12 39.896c0-8.832-7.168-16-16-16H47.88c-8.832 0-16 7.168-16 16v255.912c0 8.832 7.168 16 16 16h400.032c15.704 0 32.2 5.352 32.2 15.944V39.896zM95.912 199.752c-17.672 0-32-14.328-32-32s14.328-32 32-32 32 14.328 32 32-14.328 32-32 32z"/><glyph unicode="" d="M496 144h-16.136v.808c0 80.96-43.264 151.904-107.832 191.192h80.408c5.544-9.52 15.752-16 27.56-16 17.672 0 32 14.328 32 32s-14.328 32-32 32c-11.816 0-22.016-6.48-27.56-16H304v16c0 8.832-7.168 16-16 16h-64c-8.832 0-16-7.168-16-16v-16H59.56c-5.544 9.52-15.744 16-27.56 16-17.672 0-32-14.328-32-32s14.328-32 32-32c11.816 0 22.016 6.48 27.56 16h80.4C75.392 296.704 32.136 225.768 32.136 144.808V144H16c-8.832 0-16-7.168-16-16V64c0-8.832 7.168-16 16-16h64c8.832 0 16 7.168 16 16v64c0 8.832-7.168 16-16 16H64.136v.808c0 89.224 61.232 164.336 143.864 185.696V320c0-8.832 7.168-16 16-16h64c8.832 0 16 7.168 16 16v10.504c82.632-21.368 143.864-96.48 143.864-185.696V144H432c-8.832 0-16-7.168-16-16V64c0-8.832 7.168-16 16-16h64c8.832 0 16 7.168 16 16v64c0 8.832-7.168 16-16 16zM64 80H32v32h32V80zm208 256h-32v32h32v-32zM480 80h-32v32h32V80z"/><glyph unicode="" d="M480 448.2H32c-17.672 0-32-14.328-32-32V127.448c0-17.672 14.328-32 32-32h63.768V15.792a15.984 15.984 0 0 1 9.816-14.752c2-.84 4.112-1.248 6.184-1.248 4.128 0 8.168 1.592 11.216 4.592l92.512 91.064H480c17.672 0 32 14.328 32 32V416.2c0 17.672-14.328 32-32 32zm0-320.744H202.392L127.768 54v73.456H32V416.2h448V127.456zm-368 128.04h288c8.832 0 16 7.168 16 16s-7.168 16-16 16H112c-8.832 0-16-7.168-16-16s7.168-16 16-16zm0 64h288c8.832 0 16 7.168 16 16s-7.168 16-16 16H112c-8.832 0-16-7.168-16-16s7.168-16 16-16zm0-128h192c8.832 0 16 7.168 16 16s-7.168 16-16 16H112c-8.832 0-16-7.168-16-16s7.168-16 16-16z"/><glyph unicode="" d="M256-32.08c-10.144 0-19.688 3.936-26.872 11.096L10.872 197.264c-14.768 14.84-14.768 38.976-.032 53.784l79.952 79.936a16.001 16.001 0 0 0 18.72 2.872 16.02 16.02 0 0 0 8.344-16.984c-.816-4.576-1.184-8.248-1.184-11.56 0-35 28.488-64.072 63.504-64.072 35.048 0 60.64 29.072 60.64 64.072 0 35.048-25.592 63.544-60.64 63.544-3.28 0-6.936-.376-11.512-1.184-6.936-1.28-13.752 2.16-16.984 8.344a16.015 16.015 0 0 0 2.872 18.72l74.544 74.56c14.44 14.376 39.408 14.344 53.784.032l54.576-54.608c11.392 35.408 44.64 61.112 83.768 61.112 48.512 0 87.984-39.488 87.984-88.016 0-39.128-25.688-72.376-61.112-83.752l53.016-52.984c14.8-14.84 14.8-38.976.016-53.8L282.904-20.952C275.688-28.144 266.144-32.08 256-32.08zM87.448 282.392l-53.952-53.936c-2.328-2.344-2.328-6.216.032-8.592L251.712 1.672c3.064-3.032 5.472-3.064 8.592.032L478.48 219.896c2.344 2.36 2.344 6.2-.016 8.576l-76.952 76.904c-4.816 4.816-6.064 12.16-3.096 18.28s9.424 9.752 16.264 8.92l2.44-.312c1.344-.184 2.688-.408 4.096-.408 30.872 0 55.984 25.096 55.984 55.952 0 30.888-25.112 56.016-55.984 56.016-30.856 0-55.968-25.128-55.968-56.016 0-1.28.2-2.528.376-3.784l.344-2.856a16.002 16.002 0 0 0-9.016-16.144c-6.08-2.904-13.408-1.656-18.2 3.128l-78.472 78.512c-3.064 3.032-5.472 3.064-8.592-.032l-48.56-48.56c41.64-10.312 69.688-47.984 69.688-92.768 0-52.656-39.96-96.064-92.648-96.064-44.768.008-82.424 31.544-92.72 73.152z"/><glyph unicode="" d="M476.368 352.536h-60.36V479.76H95.992V352.536h-60.36c-19.656 0-35.656-16-35.656-35.672V99.92c0-19.672 16-35.672 35.656-35.672h60.36V-31.76h320.016v96.008h60.36c19.656 0 35.656 16 35.656 35.672v216.944c0 19.672-16 35.672-35.656 35.672zm-348.376 95.72h256.016v-95.72H127.992v95.72zM384.008.24H127.992v176.2h256.016V.24zm96.016 99.68c0-2.04-1.64-3.672-3.656-3.672h-60.36V208.44H95.992V96.256h-60.36a3.658 3.658 0 0 0-3.656 3.672v216.936a3.663 3.663 0 0 0 3.656 3.672h440.736a3.663 3.663 0 0 0 3.656-3.672V99.92zM416 288.28h-16c-8.832 0-16-7.168-16-16s7.168-16 16-16h16c8.832 0 16 7.168 16 16s-7.168 16-16 16z"/><glyph unicode="" d="M512 319.752c0 17.672-14.328 32-32 32h-54.624c14.136 13.944 23.184 32.224 23.184 54.736 0 27.72-15.92 57.832-60.608 57.832-58.8 0-107.92-62.608-131-97.704-23.096 35.088-73.72 97.696-132.512 97.696-44.688 0-60.608-30.112-60.608-57.832 0-22.504 9.296-40.792 23.72-54.736H32c-17.672 0-32-14.328-32-32V223.96h32.28V15.68c0-17.672 14.328-32 32-32h383.84c17.672 0 32 14.328 32 32v208.288H512v95.784zm-124.048 112.56c19.784 0 28.608-8.312 28.608-25.832 0-35.544-39.672-54.72-76.984-54.72h-54.168c22.736 33.768 62.752 80.552 102.544 80.552zm-263.512 0c39.8 0 81.328-46.784 104.064-80.544H174.32c-37.312 0-78.488 19.672-78.488 55.216 0 17.512 8.824 25.328 28.608 25.328zM480 255.968H272v63.784h208v-63.784zM32 319.752h208v-63.784H32v63.784zm32.28-95.784H240V15.688H64.28v208.28zm383.848-208.28H272v208.28h176.128V15.688z"/><glyph unicode="" d="M16.88 448.12h224c8.832 0 16 7.168 16 16s-7.168 16-16 16h-224c-8.832 0-16-7.168-16-16s7.16-16 16-16zm0-96h224c8.832 0 16 7.168 16 16s-7.168 16-16 16h-224c-8.832 0-16-7.168-16-16s7.16-16 16-16zm240-80c0 8.832-7.168 16-16 16h-224c-8.832 0-16-7.168-16-16s7.168-16 16-16h224c8.832 0 16 7.168 16 16zm249.56 45.608L349.984 474.176c-4.952 4.96-12.328 5.92-18.296 3.008-6.272-2.168-10.808-8.056-10.808-15.064v-354.2c-16.96 12.568-39.216 20.264-63.688 20.264-53.032 0-96.048-35.888-96.048-80.144 0-44.264 43.016-80.168 96.048-80.168 53.064 0 96.048 35.904 96.048 80.168 0 2.008-.184 3.968-.36 5.936v372.048L483.8 295.096c6.248-6.248 16.384-6.248 22.632 0 6.248 6.248 6.248 16.384.008 22.632zM320.88 46.488C319.728 24.24 293.784.08 256.816.08c-37.824 0-64.176 25.28-64.176 47.936 0 22.672 26.352 47.92 64.176 47.92 36.968 0 62.912-24.128 64.064-46.392v-3.056z"/><glyph unicode="" d="M507.424 290.168l-184.08 185.008c-3.968 3.984-9.688 5.608-15.16 4.248a15.98 15.98 0 0 1-11.472-10.784c-11.08-35.656-12.36-67.92-3.896-97.344a15.691 15.691 0 0 1-2.208-1.808l-85.552-85.536c-27.6 12.8-57.272 19.728-86.848 19.728-18.8 0-37.232-2.784-54.784-8.232-5.344-1.672-9.44-6-10.784-11.424a16.005 16.005 0 0 1 4.184-15.144l109.488-110.192L13.232 3.168-.08-31.896l32.184 12.44 156.68 155.52L299.696 24.432a15.967 15.967 0 0 1 11.344-4.72c1.264 0 2.544.16 3.816.456a16.031 16.031 0 0 1 11.472 10.8c14.488 46.616 10.24 96.672-10.168 141.56l87.352 87.368c.312.312.528.664.816 1 13.184-3.768 26.848-5.784 41.024-5.784 17.608 0 36.28 2.528 55.488 8.504 5.344 1.656 9.44 6 10.784 11.424a16.034 16.034 0 0 1-4.2 15.128zM301.576 67.928L100.184 270.632c51.688 6.032 107.424-14.8 147.784-55.16 40.16-40.152 59.752-95.648 53.608-147.544zm-1.464 133.8c-8.416 12.864-18.232 25.088-29.512 36.376-11.232 11.232-23.504 21.128-36.48 29.664l72.064 72.048c7.352-12.784 16.832-25 28.504-36.664 11.928-11.92 24.544-21.568 37.8-29.032l-72.376-72.392zm57.2 124.048c-30.768 30.768-42.624 65.064-36.344 106.44l143.456-144.2c-41.328-5.928-75.8 6.448-107.112 37.76z"/><glyph unicode="" d="M480 440.048H32c-17.592 0-32-14.408-32-32V39.952c0-17.592 14.408-32 32-32h448c17.592 0 32 14.408 32 32v368.096c0 17.592-14.408 32-32 32zm0-400.096H32v94.28l128.424 124.456L292.816 126.44c5.456-6.624 15.168-5.784 22.064-.56l58.44 52.904 105.4-108.192c.4-.4.848-.696 1.28-1.04v-29.6zm0 75.152l-94.016 96.208c-5.704 5.624-14.64 6.2-20.968 1.376l-60.28-52.512-132.472 131.04a16.045 16.045 0 0 1-11.344 5.8c-4.408.16-8.752-1.28-11.984-4.312L32 178.904v229.144h448V115.104zM368 279.936c17.64 0 31.92 14.304 31.92 31.92 0 17.608-14.28 31.912-31.92 31.912s-31.92-14.304-31.92-31.912c0-17.616 14.28-31.92 31.92-31.92z"/><glyph unicode="" d="M496.592 412.496l-160.48 66.536-159.72-63.216L15.408 479a13.95 13.95 0 0 1-3.984.56C4.856 479.592 0 474.688 0 467.312v-415c0-8.784 6.936-17.936 15.408-20.28L176.576-31.56 336.08 33.192l160.512-63.064c1.376-.376 2.72-.56 3.984-.56 6.56 0 11.424 4.872 11.424 12.248v410.368c0 8.784-6.936 17.944-15.408 20.312zM192 389.432l128 50.152V58.832L192 8.24v381.192zM32 436.656l128-47.288V8.488L32 60.624v376.032zM480 11L352 59.192v379.912l128-55.192V11z"/><glyph unicode="" d="M10.92 329.096l237.544-129.36a16.045 16.045 0 0 1 7.656-1.952c2.608 0 5.216.64 7.592 1.92l240.048 129.36a15.971 15.971 0 0 1 8.408 14.264 16.043 16.043 0 0 1-8.752 14.08l-237.56 120.64a16.047 16.047 0 0 1-14.44.032L11.392 357.44c-5.312-2.672-8.72-8.08-8.816-14.032s3.128-11.472 8.344-14.312zm247.656 116.76l203.08-103.136-205.488-110.736L53.08 342.576l205.496 103.28zM500.672 239.84l-47.488 24.112-34.28-18.488 40-20.312-205.48-110.728L50.328 225.016l42.656 21.44L58.8 265.08l-50.16-25.2c-5.312-2.672-8.72-8.08-8.816-14.032s3.128-11.472 8.344-14.312l237.544-129.36a16.045 16.045 0 0 1 7.656-1.952c2.608 0 5.216.64 7.592 1.92l240.048 129.36a15.971 15.971 0 0 1 8.408 14.264 15.999 15.999 0 0 1-8.744 14.072zm0-112l-44.984 22.112-34.28-18.488 37.504-18.312L253.424 2.424 50.328 113.016l39.656 17.936L55.8 149.576 8.64 127.872c-5.312-2.672-8.72-8.08-8.816-14.032s3.128-11.472 8.344-14.312l237.544-129.36a16.045 16.045 0 0 1 7.656-1.952c2.608 0 5.216.64 7.592 1.92l240.048 129.36a15.971 15.971 0 0 1 8.408 14.264 16.002 16.002 0 0 1-8.744 14.08z"/><glyph unicode="" d="M511.368 8.68l-41.704 251.888c-3.72 32.656-33.488 59.216-66.36 59.216h-35.328v42.64c0 65.08-46.424 118.016-111.488 118.016-65.048 0-112.472-52.936-112.472-118.016v-42.64H105.68c-32.872 0-62.64-26.56-66.264-58.528L.776 9.176C-.712-4.104 1.888-14.576 8.48-21.968c6.216-6.952 15.264-10.488 26.872-10.488h436.784c16.456 0 25.888 6.608 30.92 12.16 4.608 5.104 9.824 14.072 8.312 28.976zM176.024 362.432c0 47.424 33.064 86.016 80.472 86.016s79.488-38.592 79.488-86.016v-42.64h-159.96v42.64zM473.584-.224L37.336-.448c-2.752 0-5.504 1.472-4.856 5.344l38.624 252.048c1.92 16.72 17.752 30.84 34.576 30.84h38.344V251.32C134.488 245.784 128 235.576 128 223.752c0-17.672 14.328-32 32-32s32 14.328 32 32c0 11.808-6.464 22-15.976 27.544v36.496h159.952v-36.496C326.472 245.752 320 235.552 320 223.752c0-17.672 14.328-32 32-32s32 14.328 32 32c0 11.824-6.488 22.032-16.024 27.576v36.464h35.328c16.832 0 32.656-14.128 34.704-31.72L479.68 4.432c.2-2.048-1.408-4.656-6.096-4.656z"/><glyph unicode="" d="M464.752 272.792c0 84.392-44.488 160.936-118.984 204.784-7.624 4.504-17.44 1.936-21.904-5.688-4.472-7.608-1.936-17.424 5.688-21.904 64.624-38.016 103.2-104.264 103.2-177.184 0-121.184-87.968-209.144-209.16-209.144-27.096 0-53.392 5.08-78.16 15.08-8.184 3.328-17.528-.64-20.832-8.832-3.312-8.2.64-17.528 8.832-20.832 28.608-11.56 58.936-17.424 90.16-17.424.096 0 .192.008.288.008V.152h-46.464c-9.232 0-16.72-7.152-16.72-15.976 0-8.824 7.488-15.968 16.72-15.968H303.84c9.232 0 16.72 7.152 16.72 15.968 0 8.832-7.488 15.976-16.72 15.976h-48.192v33.4c122.904 14.28 209.104 110.456 209.104 239.24zm-65.064-1.44c0 97.328-78.872 176.704-176.2 176.704-97.344 0-176.232-79.376-176.232-176.704s78.888-175.72 176.232-175.72c97.328 0 176.2 78.392 176.2 175.72zm-320.44 0c0 79.512 64.704 144.704 144.232 144.704 79.512 0 144.2-65.184 144.2-144.704s-64.688-143.72-144.2-143.72c-79.528 0-144.232 64.2-144.232 143.72z"/><glyph unicode="" d="M512.512 224c0 136.008-106.832 247.552-241.16 255.512-2.768.304-5.544.504-8.36.504-.832 0-1.664-.088-2.496-.112-1.496.024-2.984.112-4.496.112C114.56 480.016-.512 365.168-.512 224S114.56-32.016 256-32.016c1.512 0 3 .088 4.504.12.832-.032 1.664-.12 2.496-.12 2.816 0 5.592.2 8.36.504C405.68-23.552 512.512 87.976 512.512 224zm-47.728-82.416c-8.816 2.56-30.96 8.12-70.032 12.696 3.232 22.096 5 45.448 5 69.72 0 19.128-1.104 37.672-3.144 55.504 49.504 5.912 71.192 13.36 72.648 13.872l-5.96 16.792c11.12-26.544 17.28-55.648 17.28-86.168 0-29.096-5.64-56.88-15.792-82.416zM142.744 224c0 17.904 1.184 35.384 3.352 52.2 25.944-2.04 56.968-3.544 93.432-3.896V161.272c-35.496-.344-65.832-1.784-91.344-3.736-3.52 21.096-5.44 43.44-5.44 66.464zm128.728 221.888c39.232-11.368 72.824-65.848 87.872-138.056-24.184-1.928-53.312-3.336-87.872-3.664v141.72zm-31.944-.392V304.184c-34.184.344-63.44 1.736-88.032 3.616 15.352 71.304 49.216 125.376 88.032 137.696zm0-316.112V2.512C203.328 14 171.432 61.8 154.848 126.024c23.88 1.752 52.048 3.032 84.68 3.36zM271.472 2.112v127.28c32.976-.312 61.032-1.64 84.608-3.464-16.304-65.064-48-113.208-84.608-123.816zm0 159.16v111.016c36.656.344 67.496 1.888 93.096 4a422.46 422.46 0 0 0 3.248-52.296c0-23.064-1.856-45.432-5.264-66.56-25.208 2.04-55.4 3.504-91.08 3.84zM457.4 323.032c-4.832-1.504-25.032-7.24-65.512-12.016-9.024 47.976-25.336 88.984-46.56 118.584 48.768-21.192 88.568-59.152 112.072-106.568zM179.408 434.704c-26.104-29.976-47.416-73.08-59.048-124.056-36.24 3.928-57.96 8.544-66.656 10.64 25.36 52.32 70.52 93.376 125.704 113.416zM41.816 291.408c6.16-1.672 29.456-7.472 72.776-12.264a397.919 397.919 0 0 1-3.84-55.152c0-24.136 2.184-47.36 6.12-69.344-37.2-4.016-60.08-8.824-70.344-11.304A222.417 222.417 0 0 0 31.424 224c0 23.48 3.656 46.128 10.392 67.408zm18.728-177.584c11.632 2.472 32.456 6.232 63.296 9.464 12.144-44.856 31.896-82.808 55.568-109.984-50.56 18.36-92.648 54.376-118.864 100.52zm284.784-95.416c19.112 26.632 34.24 62.512 43.648 104.4 31.704-3.64 51.608-7.896 61.648-10.432-24.008-41.536-60.928-74.696-105.296-93.968z"/><glyph unicode="" d="M112 424H16c-8.832 0-16-7.168-16-16v-96c0-8.832 7.168-16 16-16s16 7.168 16 16v80h80c8.832 0 16 7.168 16 16s-7.168 16-16 16zm384-272c-8.832 0-16-7.168-16-16V56h-80c-8.832 0-16-7.168-16-16s7.168-16 16-16h96c8.832 0 16 7.168 16 16v96c0 8.832-7.168 16-16 16zM112 56H32v80c0 8.832-7.168 16-16 16s-16-7.168-16-16V40c0-8.832 7.168-16 16-16h96c8.832 0 16 7.168 16 16s-7.168 16-16 16zm384 368h-96c-8.832 0-16-7.168-16-16s7.168-16 16-16h80v-80c0-8.832 7.168-16 16-16s16 7.168 16 16v96c0 8.832-7.168 16-16 16z"/><glyph unicode="" d="M480.08 376h-240l-48 48h-160c-17.672 0-32-14.328-32-32v-80h-.152v-32H.08V56c0-17.672 14.328-32 32-32h448c17.672 0 32 14.328 32 32v288c0 17.672-14.328 32-32 32zM32.072 392h145.376l39.312-38.624L226.816 344H480.08v-32h-448v80zm0-336v224h448V56h-448z"/><glyph unicode="" d="M400 343.856h32c8.832 0 16 7.168 16 16v16c0 8.832-7.168 16-16 16h-32c-8.832 0-16-7.168-16-16v-16c0-8.832 7.168-16 16-16zm0-96h32c8.832 0 16 7.168 16 16v16c0 8.832-7.168 16-16 16h-32c-8.832 0-16-7.168-16-16v-16c0-8.832 7.168-16 16-16zm0-96h32c8.832 0 16 7.168 16 16v16c0 8.832-7.168 16-16 16h-32c-8.832 0-16-7.168-16-16v-16c0-8.832 7.168-16 16-16zm0-96h32c8.832 0 16 7.168 16 16v16c0 8.832-7.168 16-16 16h-32c-8.832 0-16-7.168-16-16v-16c0-8.832 7.168-16 16-16zm-320 288h32c8.832 0 16 7.168 16 16v16c0 8.832-7.168 16-16 16H80c-8.832 0-16-7.168-16-16v-16c0-8.832 7.168-16 16-16zm0-96h32c8.832 0 16 7.168 16 16v16c0 8.832-7.168 16-16 16H80c-8.832 0-16-7.168-16-16v-16c0-8.832 7.168-16 16-16zm0-96h32c8.832 0 16 7.168 16 16v16c0 8.832-7.168 16-16 16H80c-8.832 0-16-7.168-16-16v-16c0-8.832 7.168-16 16-16zm0-96h32c8.832 0 16 7.168 16 16v16c0 8.832-7.168 16-16 16H80c-8.832 0-16-7.168-16-16v-16c0-8.832 7.168-16 16-16zm400 416.192H32c-17.592 0-32-14.408-32-32V7.952c0-17.592 14.408-32 32-32h448c17.592 0 32 14.408 32 32v432.096c0 17.592-14.408 32-32 32zm0-464.096H32v432.096h448V7.952z"/><glyph unicode="" d="M50.936 314.872c-9.064 0-16.384-7.328-16.384-16.384 0-9.048 7.32-16.384 16.384-16.384 151.504 0 262.672-112.184 262.672-263.68 0-9.048 7.328-16.376 16.384-16.376s16.384 7.328 16.384 16.376c0 170.184-125.264 296.448-295.44 296.448zm.144 163.816c-9.056 0-16.384-7.328-16.384-16.384 0-9.056 7.328-16.384 16.384-16.384 235.088 0 426.336-191.248 426.336-426.328 0-9.048 7.328-16.376 16.384-16.376s16.384 7.328 16.384 16.376c-.008 253.144-205.96 459.096-459.104 459.096zM92.008 150.2c-49.736 0-90.184-40.56-90.184-90.44 0-49.856 40.456-90.456 90.184-90.456s90.2 40.592 90.2 90.456c0 49.88-40.464 90.44-90.2 90.44zm0-149.216c-32.304 0-58.584 26.376-58.584 58.784s26.28 58.768 58.584 58.768c32.312 0 58.608-26.36 58.608-58.768S124.32.984 92.008.984z"/><glyph unicode="" d="M511.92 193.728c.048 10.528-1.608 50.248-2.872 61.608-14.56 130.376-120.376 225-251.592 225-136.672 0-247.408-105.312-254.92-244.952-.16-3.048-1.28-24.672-1.36-37.544l-.04-7.16C.48 187.72.08 184.664.08 181.512V74.184c0-23.44 19.064-42.504 42.504-42.504h43.144c23.44 0 42.512 19.064 42.512 42.504v107.32c0 23.44-19.08 42.504-42.512 42.504H42.576c-2.944 0-5.816-.304-8.592-.872.24 5.192.456 9.288.512 10.528 6.584 122.392 103.568 214.672 222.96 214.672 114.64 0 207.064-82.672 219.784-196.56.536-4.752 1.224-16.832 1.776-28.96-3.096.72-6.288 1.192-9.6 1.192h-42.64c-23.44 0-42.504-19.064-42.504-42.504V74.672c0-16.184 9.2-30.128 22.544-37.296L304.096-2.952v2.608c0 8.832-7.168 16-16 16h-48c-8.832 0-16-7.168-16-16v-16c0-8.832 7.168-16 16-16h48c.136 0 .256.04.392.04l28.68.112 164.776 64.688c2.16.896 3.992 2.232 5.496 3.832 14.424 6.808 24.496 21.368 24.496 38.344v106.832c0 2.608-.32 5.144-.776 7.616.44 1.472.752 3 .76 4.608zm-469.344-1.72H85.72c5.8 0 10.512-4.704 10.512-10.504V74.176c0-5.8-4.72-10.504-10.512-10.504H42.576c-5.8 0-10.504 4.704-10.504 10.504v107.328c.008 5.8 4.712 10.504 10.504 10.504zm373.688-10.504c0 5.8 4.704 10.504 10.504 10.504h42.64c5.8 0 10.512-4.704 10.512-10.504V74.672c0-5.8-4.72-10.504-10.512-10.504h-42.64c-5.8 0-10.504 4.704-10.504 10.504v106.832z"/><glyph unicode="" d="M511.92 177.72c.048 10.528-1.608 50.248-2.872 61.608-14.56 130.376-120.376 225-251.592 225-136.672 0-247.408-105.312-254.92-244.952-.16-3.048-1.28-24.672-1.36-37.544l-.04-7.16C.48 171.712.08 168.656.08 165.504V26.176c0-23.44 19.064-42.504 42.504-42.504h43.144c23.44 0 42.512 19.064 42.512 42.504v139.32c0 23.44-19.08 42.504-42.512 42.504h-43.16c-2.944 0-5.816-.304-8.592-.872.24 5.192.456 9.296.512 10.528 6.592 122.392 103.568 214.672 222.968 214.672 114.64 0 207.064-82.672 219.784-196.56.544-4.752 1.232-16.832 1.784-28.96-3.12.72-6.304 1.192-9.616 1.192h-42.64c-23.44 0-42.504-19.064-42.504-42.504V26.664c0-23.448 19.064-42.504 42.504-42.504h42.64c23.44 0 42.512 19.064 42.512 42.504v138.832c0 2.608-.32 5.144-.784 7.608.464 1.472.768 3.008.784 4.616zM42.568 176h43.144c5.8 0 10.512-4.704 10.512-10.504V26.168c0-5.808-4.72-10.504-10.512-10.504H42.568c-5.8 0-10.504 4.704-10.504 10.504v139.328c.016 5.8 4.72 10.504 10.504 10.504zM479.92 26.672c0-5.8-4.72-10.504-10.512-10.504h-42.64c-5.8 0-10.504 4.704-10.504 10.504v138.824c0 5.8 4.704 10.504 10.504 10.504h42.64c5.8 0 10.512-4.704 10.512-10.504V26.672z"/><glyph unicode="" d="M255.2-31.352c-96.656 0-175.296 77.56-175.296 172.888 0 111.344 155.816 322.424 162.456 331.36a15.99 15.99 0 0 0 12.736 6.456c5.592.048 9.784-2.296 12.832-6.28 6.704-8.768 164.168-216.112 164.168-331.528 0-95.336-79.36-172.896-176.896-172.896zm.176 467.504c-37.2-52.832-143.472-211.032-143.472-294.608C111.904 63.856 176.184.656 255.2.656c79.888 0 144.888 63.2 144.888 140.888.008 86.68-107.072 242.512-144.712 294.608z"/><glyph unicode="" d="M511.488 225.008l-58.752 203.544a16.006 16.006 0 0 1-15.424 11.736H69.64c-7.248 0-13.592-4.872-15.472-11.888L.472 235.224c-.992-3.752-.504-7.504 1-10.768C.608 221.56 0 218.544 0 215.368V39.712c0-17.672 14.328-32 32-32h448c17.672 0 32 14.328 32 32v175.656c0 .856-.184 1.664-.248 2.504.416 2.296.408 4.72-.264 7.136zM81.952 408.288h343.184l46.56-160.92H322.528c-.72-38.408-27.952-64.84-66.528-64.84s-65.312 26.44-66.032 64.84H37.08l44.872 160.92zM480 39.712H32v175.656h131.56c13.968-40.216 47.888-64.84 92.44-64.84s78.968 24.624 92.936 64.84H480V39.712z"/><glyph unicode="" d="M384 480H208c-17.672 0-32-14.328-32-32h176V320h128V64H368V32h112c17.672 0 32 14.328 32 32v287.992L384 480zm0-128v82.752L466.736 352H384zM32 416c-17.672 0-32-14.328-32-32V0c0-17.672 14.328-32 32-32h272c17.672 0 32 14.328 32 32v287.992L208 416H32zM304 0H32v384h144V256h128V0zm-96 288v82.752L290.736 288H208z"/><glyph unicode="" d="M508.528 386.968L458.68 442.64a15.98 15.98 0 0 1-11.968 5.376H271.584V465c0 8.28-7.168 15-16 15s-16-6.72-16-15v-16.984H111.68c-8.84 0-16-7.16-16-16V320.184c0-8.84 7.16-16 16-16h127.904v-32.048H65.288a15.98 15.98 0 0 1-11.968-5.376L3.48 210.104a16.013 16.013 0 0 1 0-21.248l49.84-56.144c3.056-3.424 7.392-4.872 11.968-4.872h174.296V-17c0-8.28 7.168-15 16-15s16 6.72 16 15v144.84h128.232c8.84 0 16 7.16 16 16v112.304c0 8.84-7.16 16-16 16H271.584v32.048h175.128a15.98 15.98 0 0 1 11.968 5.376l49.848 56.16c5.368 6.056 5.368 15.176 0 21.24zM383.824 159.84H72.48l-35.64 39.64 35.64 40.656h311.344V159.84zm55.696 176.344H127.68v79.832h311.84l35.64-39.672-35.64-40.16z"/><glyph unicode="" d="M483.456 330.92l-89.56 96a16.054 16.054 0 0 1-11.712 5.08h-133.56l-.504 33c0 8.28-7.168 15-16 15s-15-6.72-15-15l-.488-33H40.248c-8.84 0-16-7.16-16-16V224c0-8.84 7.16-16 16-16h176.168V-17c0-8.28 7.168-15 16-15s16 6.72 16 15v225h133.768c4.44 0 8.672 1.84 11.704 5.08l89.56 96c5.736 6.152 5.736 15.688.008 21.84zM375.232 240H56.248v160h318.984l74.64-80-74.64-80z"/><glyph unicode="" d="M509.36 332.264l-69.936 133.72c-4.08 7.8-14.632 14.176-23.424 14.176H255.032c-.176.008-.352.056-.528.064-.144 0-.28-.056-.424-.064H96c-8.8 0-19.376-6.36-23.512-14.128L2.736 334.888c-4.144-7.768-3.312-19.968 1.816-27.128L244.56-26.816c2.576-3.592 6-5.408 9.416-5.408 3.392 0 6.792 1.768 9.384 5.296L507.312 305.2c5.192 7.096 6.128 19.272 2.048 27.064zm-38.176 3.92h-85.728l34.328 98.304 51.4-98.304zM287.672 448.16h102.984l-31.944-91.464-71.04 91.464zm46.448-111.976H185.296l70.336 101.048 78.488-101.048zm-177.176 15.272l-32.088 96.704h99.408l-67.32-96.704zm183.432-47.272L254.36 57.912l-81.728 246.272h167.744zM218.464 64.456L46.496 304.184h92.416l79.552-239.728zm155.808 239.728h92.584L290.368 63.904l83.904 240.28zM94.24 438.792l34.048-102.608H39.664L94.24 438.792z"/><glyph unicode="" d="M416.28 272.104c-4.168 0-17.6.08-32.152.184l.056 31.984c0 17.672-14.328 32-32 32l-320.248.08c-17.672 0-32-14.328-32-32V63.88c0-53.016 42.984-96 96-96h192.328c53.016 0 95.504 42.984 95.504 96l.032 16.424c14.512-.112 29.304-.2 32.488-.2 52.888 0 95.784 42.52 95.784 95.536-.008 53.024-42.904 96.464-95.792 96.464zM351.768 63.88c0-35.296-28.2-64-63.504-64H95.936c-35.296 0-64 28.704-64 64l-.048 240.472h.048l320.248-.096-.416-240.376zm64.512 47.76c-3.176 0-17.944.096-32.432.2l.224 128.408c14.56-.104 28.024-.184 32.2-.184 36.56 0 64.312-27.272 64.312-63.92S452.84 111.64 416.28 111.64zM287.936 368.12c8.832 0 16 7.168 16 16v80c0 8.832-7.168 16-16 16s-16-7.168-16-16v-80c0-8.84 7.168-16 16-16zm-192 0c8.832 0 16 7.168 16 16v80c0 8.832-7.168 16-16 16s-16-7.168-16-16v-80c0-8.84 7.168-16 16-16zm96 0c8.832 0 16 7.168 16 16v80c0 8.832-7.168 16-16 16s-16-7.168-16-16v-80c0-8.84 7.168-16 16-16z"/><glyph unicode="" d="M366.592 339.864l-156.576-67.32a15.014 15.014 0 0 1-6.576-6.576L131.712 121.36a15.08 15.08 0 0 1 2.656-17.392 15.112 15.112 0 0 1 10.768-4.512c2.216 0 4.472.488 6.56 1.504l152.864 63.488a14.897 14.897 0 0 1 6.608 6.248l75.44 148.448a15.092 15.092 0 0 1-2.328 17.784c-4.608 4.768-11.792 5.936-17.688 2.936zM178.928 147.592l43.504 88.84 43.936-54.992-87.44-33.848zm113.424 52.6l-44.4 55.576 88.392 34.88-43.992-90.456zM256 480C114.616 480 0 365.384 0 224 0 82.608 114.616-32 256-32c141.392 0 256 114.608 256 256 0 141.384-114.608 256-256 256zM256-.504C132.488-.504 32 100.488 32 224s100.488 224 224 224 224-100.488 224-224S379.512-.504 256-.504z"/><glyph unicode="" d="M500.176 94.192c-7.832 5.504-93.528 62.488-104.032 68.904-4.576 2.8-10.16 4.168-16.232 4.168-7.832 0-16.504-2.28-24.968-6.736-8.248-4.344-33.232-18.56-45.456-25.544-10.768 7.56-36.064 26.936-75.92 66.832-39.608 39.592-59.16 65.096-66.768 75.92 6.968 12.216 21.168 37.2 25.488 45.424 8.184 15.504 9.112 30.984 2.472 41.424-6.232 9.84-62.984 95.904-68.84 104-5.512 7.64-15.408 11.768-26.144 11.768-8.472 0-17.456-2.56-25.248-7.984-.752-.536-76.048-55.128-75.048-86.176 2.776-87.216 87.528-189.712 158.136-260.344S330.728-29.56 418.288-32.352h.72c30.656 0 84.544 74.344 85.064 75.08 14.136 20.2 8.984 42.44-3.896 51.464zm-22.104-32.824C457.776 33.256 428.96 3.896 417.68-.304c-60.016 2.816-144.232 55.56-237.44 148.784-93.2 93.232-145.936 177.352-148.72 237.168 4.048 11.312 33.408 40.312 61.264 60.456 2.064 1.424 4.608 2.248 6.984 2.248.528 0 .968-.048 1.312-.112 9-13.08 57.312-86.216 66.08-99.888.032-1.44-.456-5.096-3.2-10.312-2.92-5.56-12.016-21.768-24.952-44.44l-10.064-17.64 11.672-16.624c8.704-12.36 29.408-39.232 70.312-80.144 41.08-41.096 67.856-61.736 80.168-70.392l16.624-11.672 17.64 10.08c17.096 9.768 37.752 21.472 44.472 25 5.392 2.84 9.08 3.064 10.08 3.064.16 0 .296 0 .408-.016 12.248-7.688 86.968-57.296 100.16-66.344.216-1.28.016-4.064-2.408-7.544zm-136.12 227.496l137.624 136.784-.44-77.528c-.144-6.472 4.984-12.096 11.456-11.944l8.208.008c6.48.16 11.824 4 11.96 10.464l.328 115.504c0 .112-.432.192-.432.304l.632 5.856c.064 3.248-.688 6.144-2.8 8.216a11.037 11.037 0 0 1-8.192 3.272l-5.848-.136c-.112 0-.2-.048-.328-.064l-114.736.512c-6.464-.144-11.808-5.488-11.96-11.96l-.016-8.208c.984-7.616 6.968-12.08 13.44-11.936l75.624-.2-137.144-136.312c-6.248-6.248-6.248-16.384 0-22.632 6.248-6.24 16.376-6.24 22.624 0z"/><glyph unicode="" d="M500.176 94.192c-7.832 5.504-93.528 62.488-104.032 68.904-4.576 2.8-10.16 4.168-16.232 4.168-7.832 0-16.504-2.28-24.968-6.736-8.248-4.344-33.232-18.56-45.456-25.544-10.768 7.56-36.064 26.936-75.92 66.832-39.608 39.592-59.16 65.096-66.768 75.92 6.968 12.216 21.168 37.2 25.488 45.424 8.184 15.504 9.112 30.984 2.472 41.424-6.232 9.84-62.984 95.904-68.84 104-5.512 7.64-15.408 11.768-26.144 11.768-8.472 0-17.456-2.56-25.248-7.984-.752-.536-76.048-55.128-75.048-86.176 2.776-87.216 87.528-189.712 158.136-260.344S330.728-29.56 418.288-32.352h.72c30.656 0 84.544 74.344 85.064 75.08 14.136 20.2 8.984 42.44-3.896 51.464zm-22.104-32.824C457.776 33.256 428.96 3.896 417.68-.304c-60.016 2.816-144.232 55.56-237.44 148.784-93.2 93.232-145.936 177.352-148.72 237.168 4.048 11.312 33.408 40.312 61.264 60.456 2.064 1.424 4.608 2.248 6.984 2.248.528 0 .968-.048 1.312-.112 9-13.08 57.312-86.216 66.08-99.888.032-1.44-.456-5.096-3.2-10.312-2.92-5.56-12.016-21.768-24.952-44.44l-10.064-17.64 11.672-16.624c8.704-12.36 29.408-39.232 70.312-80.144 41.08-41.096 67.856-61.736 80.168-70.392l16.624-11.672 17.64 10.08c17.096 9.768 37.752 21.472 44.472 25 5.392 2.84 9.08 3.064 10.08 3.064.16 0 .296 0 .408-.016 12.248-7.688 86.968-57.296 100.16-66.344.216-1.28.016-4.064-2.408-7.544zM321.92 291.744a11.037 11.037 0 0 1 8.192-3.272l5.856.136c.112 0 .192.048.32.056l114.752-.504c6.456.152 11.808 5.496 11.96 11.968l.008 8.208c-.976 7.616-6.968 12.08-13.432 11.936l-75.752.2 130.976 130.8c6.248 6.248 6.248 16.384 0 22.632-6.248 6.24-16.376 6.24-22.624 0L350.84 342.744l.44 77.416c.144 6.464-4.984 12.096-11.448 11.944l-8.208-.008c-6.48-.16-11.832-4.008-11.968-10.472l-.328-115.504c0-.112.44-.192.44-.304l-.64-5.856c-.064-3.248.696-6.136 2.792-8.216z"/><glyph unicode="" d="M480.848 380.224c0-.528-.048-.968-.112-1.312-13.08-9-86.216-57.312-99.888-66.08-1.44-.032-5.096.456-10.312 3.2-5.56 2.92-21.768 12.016-44.44 24.952l-17.64 10.064-16.624-11.672c-12.36-8.704-39.232-29.408-80.144-70.312-41.088-41.08-61.728-67.856-70.384-80.168l-11.672-16.624 10.08-17.64c9.768-17.096 21.472-37.752 25-44.472 2.84-5.392 3.064-9.08 3.064-10.08 0-.16 0-.296-.016-.408-7.68-12.248-57.296-86.968-66.336-100.16-1.28-.216-4.064-.016-7.544 2.408-28.128 20.304-57.48 49.12-61.688 60.4 2.816 60.016 55.56 144.232 148.784 237.44 93.232 93.2 177.36 145.936 237.176 148.72 11.312-4.048 40.312-33.408 60.456-61.264 1.416-2.064 2.24-4.616 2.24-6.992m31 0c0 8.472-2.56 17.456-7.984 25.248-.528.752-54.128 76.048-85.168 75.048-87.216-2.776-189.72-87.528-260.352-158.136C87.728 251.776 2.944 149.272.152 61.712v-.72c0-30.656 74.336-84.544 75.072-85.064 20.2-14.144 42.44-8.984 51.472 3.888 5.504 7.832 62.488 93.528 68.904 104.032 2.8 4.576 4.168 10.16 4.168 16.232 0 7.832-2.288 16.504-6.736 24.968-4.344 8.248-18.56 33.232-25.544 45.456 7.56 10.768 26.936 36.064 66.832 75.92 39.592 39.608 65.096 59.16 75.92 66.768 12.216-6.968 37.2-21.168 45.424-25.488 15.504-8.184 30.984-9.112 41.424-2.472 9.84 6.232 94.904 62.984 103 68.84 7.64 5.528 11.76 15.424 11.76 26.152z"/><glyph unicode="" d="M480 480.048H32c-17.592 0-32-14.408-32-32V-.048c0-17.592 14.408-32 32-32h448c17.592 0 32 14.408 32 32v448.096c0 17.592-14.408 32-32 32zM480-.048H32v448.096h448V-.048zM112 303.848h32v-32c0-8.832 7.168-16 16-16s16 7.168 16 16v32h32c8.832 0 16 7.168 16 16s-7.168 16-16 16h-32v32c0 8.832-7.168 16-16 16s-16-7.168-16-16v-32h-32c-8.832 0-16-7.168-16-16s7.168-16 16-16zm104.568-119.424c-6.248 6.248-16.376 6.248-22.624 0L160 150.488l-33.944 33.936c-6.248 6.248-16.376 6.248-22.632 0-6.248-6.248-6.248-16.384 0-22.632l33.936-33.936-33.936-33.936c-6.248-6.248-6.248-16.384 0-22.632 6.248-6.248 16.376-6.248 22.632 0L160 105.216l33.944-33.936c6.248-6.248 16.376-6.248 22.624 0 6.248 6.248 6.248 16.384 0 22.632l-33.936 33.936 33.936 33.936c6.248 6.256 6.248 16.384 0 22.64zM304 303.848h96c8.832 0 16 7.168 16 16s-7.168 16-16 16h-96c-8.832 0-16-7.168-16-16s7.168-16 16-16zm0-160h96c8.832 0 16 7.168 16 16s-7.168 16-16 16h-96c-8.832 0-16-7.168-16-16s7.168-16 16-16zm0-64h96c8.832 0 16 7.168 16 16s-7.168 16-16 16h-96c-8.832 0-16-7.168-16-16s7.168-16 16-16z"/><glyph unicode="" d="M212.408 140.328c115.472 0 204.952 65.952 203.576 163.816 0 86.592-91.608 155.816-207.08 155.816-115.488 0-209.08-69.224-209.08-155.816 0-53.936 26.456-111.44 81.704-139.688 0-.328-.096-.576-.096-.936 0-23.44-19.512-55.576-27.2-68.832h.032c-.608-1.44-.976-3-.976-4.672 0-6.56 5.288-11.832 11.848-11.832.968 0 2.544.2 3.112.2.16 0 .216 0 .2-.048 40.832 6.672 101.128 52.624 110.064 63.512 9.168-1.36 15.36-1.576 23.04-1.576 3.264.008 6.736.056 10.856.056zm-47.064 34.44l-20.488-17.016c-4.752-5.488-25.4-22.72-43.176-33.904 10.824 30.84 10.352 40.608 10.352 40.608l1.504 19.576-17.44 8.904c-44.336 22.672-64.264 69.872-64.264 111.2 0 68.832 79.432 123.816 177.08 123.816 97.64 0 175.08-54.984 175.08-123.816-.304-76.304-72.936-132.312-170.576-132.312 0 0-14.904-.576-30.2 1.688l-17.872 1.256zm346.824.136c0 43.368-16.944 76.44-59.224 101.256-1.032-11.536-4.32-23.912-7.896-34.784 27.328-18.888 35.128-38.28 35.128-66.472 0-34.512-16.08-59.544-53.456-78.672l-15.92-7.904s1.656-41 4.112-51.376c-31.224 22.888-41.952 42-41.952 42l-16.832-2.592c-6.656-.968-24.656-.984-24.656-.984-43.472 0-75.688 10.36-103.168 31.872 7.464.456-44.592.44-45.752-.576 31.784-38.816 83.736-63.296 148.92-63.296 3.544 0 6.544-.032 9.36-.032 6.64 0 12 .184 19.92 1.344 7.744-9.392 51.112-50.752 86.408-56.504-.016.032.032.032.184.032.472 0 1.84-.168 2.672-.168 5.672 0 10.248 4.56 10.248 10.232 0 1.44-.328 2.8-.84 4.032h.032c-6.64 11.44-17.064 44.872-17.064 65.128 0 .312-.096.528-.096.816 47.752 24.416 69.872 60.04 69.872 106.648z"/><glyph unicode="" d="M480.008 384.264h-127.8v31c0 26.472-21.528 48-48 48h-96.216c-26.472 0-48-21.528-48-48v-31H32.008c-17.592 0-32-14.408-32-32V240.136h-.016v-32h.016V16.728c0-17.592 14.408-32 32-32h448c17.592 0 32 14.408 32 32v335.536c0 17.592-14.408 32-32 32zm-288.016 31c0 8.832 7.168 16 16 16h96.216c8.832 0 16-7.168 16-16v-31H191.992v31zm-159.984-63h448V240.136H303.824v16.376c0 17.64-14.36 32-32 32h-31.872c-17.64 0-32-14.36-32-32v-16.376H32.008v112.128zm239.84-176.328h-31.904v80.576h31.872l.032-80.576zm-239.84-159.2v191.408h175.936v-32.2c0-17.64 14.36-32 32-32h31.872c17.64 0 32 14.36 32 32v32.2H480V16.736H32.008z"/><glyph unicode="" d="M476.04 479.224l-211.52-57.296c-5.376-1.44-17.048-1.424-22.408.08L36.04 479.112c-18.392 5.064-36.208-8.2-36.208-27.136V62.92c0-16.048 12.168-31.392 27.656-35.704l206.08-57.112c5.512-1.528 12.608-2.376 19.968-2.376 5.048 0 12.504.392 19.36 2.264l211.512 57.296c15.528 4.2 27.752 19.512 27.752 35.624v389.064c.008 18.92-17.808 32.232-36.12 27.248zM240 1.528L35.536 58.056c-1.544.424-3.704 3.248-3.704 4.856v384.016l201.736-55.768c1.952-.544 4.144-.968 6.432-1.328V1.528zm240.168 61.384c0-1.576-2.592-4.328-4.128-4.752L272 2.896v387.96c.296.072.6.112.896.192l207.264 56.064v-384.2zM321 296.848c1.44 0 2.904.184 4.344.592l111.968 31.512c8.512 2.408 13.472 11.232 11.08 19.736s-11.28 13.44-19.736 11.08l-111.968-31.512c-8.512-2.408-13.472-11.232-11.08-19.736 1.984-7.064 8.408-11.672 15.392-11.672zm0-96c1.44 0 2.904.184 4.344.592l111.968 31.512c8.512 2.408 13.472 11.232 11.08 19.736s-11.28 13.44-19.736 11.08l-111.968-31.512c-8.512-2.408-13.472-11.232-11.08-19.728 1.984-7.064 8.408-11.68 15.392-11.68zm0-96c1.44 0 2.904.184 4.344.592l111.968 31.512c8.512 2.408 13.472 11.232 11.08 19.736s-11.28 13.44-19.736 11.08l-111.968-31.512c-8.512-2.408-13.472-11.232-11.08-19.736 1.984-7.056 8.408-11.672 15.392-11.672zM197.312 328.256L85.344 359.768c-8.456 2.36-17.344-2.576-19.736-11.08s2.56-17.328 11.08-19.736l111.968-31.512a15.923 15.923 0 0 1 4.344-.592c6.984 0 13.408 4.608 15.392 11.672 2.392 8.496-2.56 17.328-11.08 19.736zm0-96L85.344 263.768c-8.456 2.36-17.344-2.576-19.736-11.08s2.56-17.328 11.08-19.736l111.968-31.512a15.923 15.923 0 0 1 4.344-.592c6.984 0 13.408 4.608 15.392 11.672 2.392 8.496-2.56 17.328-11.08 19.736zm0-96L85.344 167.768c-8.456 2.36-17.344-2.576-19.736-11.08s2.56-17.328 11.08-19.736l111.968-31.512a15.923 15.923 0 0 1 4.344-.592c6.984 0 13.408 4.608 15.392 11.672 2.392 8.504-2.56 17.328-11.08 19.736z"/><glyph unicode="" d="M507.832 338a15.913 15.913 0 0 1-13 6.752H444.96l-102.568 87.416c-12.488 12.488-32.76 12.504-45.248 0L196.32 344.752h-41.048l-25.704 88.64c-10.08 34.904-34.032 38.672-43.856 38.672H17.168c-8.784 0-15.888-7.112-15.888-15.888s7.112-15.888 15.888-15.888h68.528c2.168 0 8.784 0 13.296-15.592l88.424-324.968a15.875 15.875 0 0 1 15.296-11.592h215.984c6.704 0 12.688 4.2 14.952 10.512l76.128 224.84A15.89 15.89 0 0 1 507.832 338zm-188.064 71.536l76.016-64.792H243.728l76.04 64.792zm87.744-289.632H214.768l-50.576 193.064H472.24l-64.728-193.064zM376 55.936c-22.096 0-40-17.904-40-40s17.904-40 40-40 40 17.904 40 40-17.904 40-40 40zm-144 0c-22.096 0-40-17.904-40-40s17.904-40 40-40 40 17.904 40 40-17.904 40-40 40z"/><glyph unicode="" d="M507.832 338a15.913 15.913 0 0 1-13 6.752H155.264l-25.704 88.64c-10.08 34.904-34.032 38.672-43.856 38.672H17.168c-8.784 0-15.888-7.112-15.888-15.888s7.112-15.888 15.888-15.888h68.528c2.168 0 8.784 0 13.296-15.592l88.424-324.968a15.875 15.875 0 0 1 15.296-11.592h215.984c6.704 0 12.688 4.2 14.952 10.512l76.128 224.84A15.89 15.89 0 0 1 507.832 338zm-100.32-218.096H214.768l-50.576 193.064H472.24l-64.728-193.064zM376 55.936c-22.096 0-40-17.904-40-40s17.904-40 40-40 40 17.904 40 40-17.904 40-40 40zm-144 0c-22.096 0-40-17.904-40-40s17.904-40 40-40 40 17.904 40 40-17.904 40-40 40z"/><glyph unicode="" d="M432 400.648h-95.592v30.688c0 26.472-21.528 48-48 48h-63.816c-26.472 0-48-21.528-48-48v-30.688H80c-17.672 0-32-14.328-32-32V.664c0-17.672 14.328-32 32-32h352c17.672 0 32 14.328 32 32v367.984c0 17.672-14.328 32-32 32zm-223.408 30.688c0 8.832 7.168 16 16 16h63.816c8.832 0 16-7.168 16-16v-30.688h-95.816v30.688zM432 .664H80v367.984h96.592v-32.92s-.424-15.984 15.904-15.984c18 0 16.096 15.984 16.096 15.984v32.92h95.816v-32.92s-1.064-16.064 15.936-16.064c16 0 16.064 16.064 16.064 16.064v32.92H432V.664z"/><glyph unicode="" d="M495.032 8.832c-.168 0-.36 0-.544.016-8.096.264-13.2 6.544-13.888 14.608-.544 5.936-16.984 149.544-241.128 149.392V81.016a15.99 15.99 0 0 0-9.168-14.472c-5.544-2.656-12.216-1.84-16.984 2.112L5.832 240.544c-3.72 3.048-5.856 7.592-5.84 12.392s2.168 9.344 5.888 12.376l207.48 170.28c4.784 3.904 11.392 4.656 16.968 2.048a16.027 16.027 0 0 0 9.144-14.456v-89.816c92.984-2.952 165.496-32.856 212.168-87.488 75.968-88.888 59.016-218.08 58.216-223.456-1.184-7.832-6.936-13.592-14.824-13.592zm-271.56 196.264h.032C383.616 205 444.8 150.936 479.736 103.192c-5.112 38.248-20.032 84.36-52.504 122.016-43.168 50.048-112.72 76.424-203.768 76.424-8.84 0-16 7.16-16 16v71.888L41.248 252.84l166.216-137.952v74.2c0 4.248 1.688 8.328 4.704 11.328 3 2.992 7.064 4.68 11.304 4.68z"/><glyph unicode="" d="M16.968 8.832c.168 0 .36 0 .544.016 8.096.264 13.2 6.544 13.888 14.608.544 5.936 16.488 149.544 240.624 149.392l.504-91.832a15.99 15.99 0 0 1 9.168-14.472c5.544-2.656 12.216-1.84 16.984 2.112l207.488 171.888c3.72 3.048 5.856 7.592 5.84 12.392s-2.168 9.344-5.888 12.376l-207.48 170.28c-4.784 3.904-11.392 4.656-16.968 2.048a16.027 16.027 0 0 1-9.144-14.456l-.504-89.816c-92.976-2.944-164.984-32.856-211.664-87.48C-15.608 157 1.344 27.808 2.144 22.432c1.184-7.84 6.936-13.6 14.824-13.6zm271.56 196.264h-.032C128.392 205 67.2 150.936 32.264 103.184c5.112 38.248 20.032 84.36 52.504 122.016 43.168 50.048 112.72 76.424 203.768 76.424 8.84 0 16 7.16 16 16v71.888L470.752 252.84 304.528 114.888v74.2c0 4.248-1.688 8.328-4.704 11.328a15.98 15.98 0 0 1-11.296 4.68z"/><glyph unicode="" d="M503.184 372.032c-5.392 2.488-11.792 1.544-16.28-2.424l-80.656-72.448-72.816 74.704 72.096 83.264c3.92 4.528 4.872 10.768 2.432 16.256s-7.832 8.848-13.76 8.848h-4.344c-44.56 0-121.488-3.832-155.832-38.672l-6.928-6.88c-36.64-37.384-43.144-98.688-23.84-145.288L18.616 100.944c-24.896-25.24-24.896-66.16 0-91.408l22.536-22.848C53.6-25.928 69.92-32.24 86.24-32.24c16.312 0 32.632 6.312 45.072 18.928l187.36 188.864c17.72-9.576 42-15.832 62.392-15.832 32.688 0 63.672 13.184 87.264 37.128l6.832 6.92c37.304 37.824 36.728 118.648 36.896 154.208.016 6.048-3.464 11.544-8.872 14.056zm-50.352-146.536l-5.936-6.936c-17.872-18.136-41.248-26.824-65.832-26.824-12.16 0-28.544 2.288-39.608 6.896-10 4.152-19.288 10.144-27.6 17.712L108.768 9.536C102.752 3.424 94.752.064 86.24.064c-8.512 0-16.52 3.36-22.544 9.472l-22.528 22.84c-12.432 12.608-12.432 33.112-.008 45.72l200.392 204.432c-6.72 9.784-11.296 20.448-14.024 31.488h-.008c-7.712 31.192-3.216 74.304 21.008 99.024l6.896 6.96c20.776 21.08 74.728 27.312 104.6 29.152l-58.68-67.768c-5.248-6.064-4.984-15.2.608-20.936l92.768-95.168c5.624-5.792 14.72-6.128 20.776-.76l65.304 58.816c-1.944-31.68-8.096-77.688-27.968-97.84z"/><glyph unicode="" d="M512.16 225.208c0-8.832-7.144-15.992-15.984-15.992h-224.44V47.12c0-43.576-35.456-79.04-79.048-79.04s-79.056 35.464-79.056 79.04c0 8.832 7.16 15.992 15.992 15.992s15.992-7.16 15.992-15.992c0-25.952 21.112-47.064 47.08-47.064 25.96 0 47.08 21.112 47.08 47.064v162.096H15.832C7 209.216-.16 216.384-.16 225.208c0 123.648 90.456 202.056 239.928 207.24v31.488c0 8.832 7.16 15.984 15.992 15.984 8.84 0 15.984-7.16 15.984-15.984v-31.488c149.504-5.176 240.416-83.592 240.416-207.24zm-32.584 15.984c-7.888 100.264-89.448 159.56-223.824 159.56-134.376 0-215.448-59.296-223.328-159.552h447.152z"/><glyph unicode="" d="M448.4 400.488H335.76v43.632c0 20.264-16.504 36.248-36.768 36.248H213c-20.264 0-36.76-15.984-36.76-36.248v-43.632H63.6c-8.832 0-16-7.168-16-16s7.168-16 16-16h22.008l37.12-369.96c1.552-17.312 16.304-30.888 33.568-30.888h199.4c17.264 0 32 13.576 33.544 30.736l37.152 370.12H448.4c8.84 0 16 7.168 16 16s-7.16 15.992-16 15.992zM208.24 444.12c0 2.616 2.136 4.752 4.76 4.752h85.992c2.624 0 4.768-2.136 4.768-4.752v-43.632h-95.52v43.632zM357.384 1.4c-.08-.888-1.128-1.768-1.688-1.768h-199.4c-.56 0-1.616.872-1.712 1.92L117.768 368.48h276.456L357.384 1.4z"/><glyph unicode="" d="M511.992 271.864v169.184c0 21.472-17.472 38.952-38.936 38.952l-165.592-.024-7.096.024c-10.84 0-27.248 0-37.96-10.72L9.44 216.304C3.36 210.224 0 202.152 0 193.56c0-8.608 3.344-16.688 9.424-22.768l193.4-193.36C208.88-28.656 216.96-32 225.552-32s16.68 3.344 22.744 9.424l252.976 252.984c10.848 10.824 10.784 26.408 10.72 41.456zm-33.344-18.832L225.44.064 32.064 193.672 284.76 446.424C287.304 448 296.464 448 300.256 448l7.2-.024 165.6.024c3.832 0 6.936-3.12 6.936-6.952V271.736c.032-6.088.064-16.272-1.344-18.704zM384.008 416c-35.344 0-64-28.656-64-64s28.656-64 64-64 64 28.656 64 64-28.656 64-64 64zm0-96c-17.672 0-32 14.328-32 32s14.328 32 32 32 32-14.328 32-32-14.328-32-32-32z"/><glyph unicode="" d="M256 480C114.616 480 0 365.384 0 224S114.616-32 256-32 512 82.616 512 224 397.384 480 256 480zm64-41.488c72.112-21.496 128.824-78.4 150.352-150.512H366.568A128.738 128.738 0 0 1 320 334.528v103.984zm31.816-214.616c0-52.968-42.896-95.904-95.816-95.904s-95.816 42.936-95.816 95.904 42.904 95.912 95.816 95.912 95.816-42.944 95.816-95.912zM224 445.536c10.456 1.496 21.128 2.312 32 2.312 10.864 0 21.544-.816 32-2.312v-97.904c-10.24 2.648-20.928 4.2-32 4.2s-21.752-1.552-32-4.2v97.904zm-32-7.024V334.528A128.738 128.738 0 0 1 145.432 288H41.648c21.52 72.112 78.24 129.016 150.352 150.512zM32.152 223.92c0 10.912.928 21.584 2.44 32.08h97.696c-2.656-10.256-4.12-20.992-4.12-32.088 0-11.032 1.456-21.712 4.08-31.912h-97.68c-1.488 10.44-2.416 21.072-2.416 31.92zM192 9.336C119.832 30.84 63.096 87.824 41.6 160h103.736c11.216-19.328 27.328-35.472 46.664-46.696V9.336zm96-7.024C277.544.816 266.864 0 256 0c-10.872 0-21.544.824-32 2.312V100.2c10.248-2.648 20.928-4.2 32-4.2s21.76 1.552 32 4.2V2.312zm32 7.024v103.968A128.757 128.757 0 0 1 366.656 160h103.736C448.896 87.832 392.16 30.84 320 9.336zM379.752 192c2.624 10.2 4.08 20.88 4.08 31.912 0 11.096-1.464 21.832-4.128 32.088h97.704c1.504-10.496 2.44-21.168 2.44-32.08 0-10.848-.92-21.488-2.416-31.92h-97.68z"/><glyph unicode="" d="M342.952 288.408l137.632 136.784-.448-77.536c-.144-6.464 4.984-12.088 11.456-11.944l8.208.008c6.472.152 11.824 4 11.96 10.464l.336 115.504c0 .112-.44.2-.44.312l.632 5.856c.064 3.248-.696 6.144-2.792 8.216a11.068 11.068 0 0 1-8.2 3.272l-5.848-.136c-.112 0-.2-.04-.32-.056l-114.744.504c-6.464-.144-11.816-5.488-11.96-11.96l-.016-8.208c.984-7.624 6.976-12.08 13.44-11.936l75.624-.2L320.328 311.04c-6.248-6.248-6.248-16.376 0-22.632 6.248-6.24 16.376-6.24 22.624 0zM169.544 159.592L31.912 23.232l.44 77.112c.152 6.472-4.984 12.096-11.448 11.952l-8.712-.016c-6.48-.16-11.824-4-11.96-10.472L-.104-13.696c0-.112.44-.184.44-.312l-.632-5.84c-.072-3.248.688-6.16 2.792-8.216 2.064-2.096 4.976-3.36 8.192-3.28l5.856.144c.112 0 .192.048.32.048l115.248-.504c6.464.16 11.808 5.504 11.96 11.968l.016 8.216c-.984 7.608-6.976 12.08-13.44 11.936l-75.624.2L192.16 136.96c6.248 6.248 6.248 16.376 0 22.624s-16.368 6.256-22.616.008zm342.56-173.28l-.336 115.504c-.144 6.472-5.496 10.312-11.96 10.472l-8.208.016c-6.472.144-11.592-5.488-11.456-11.952l.448-77.536-137.64 136.776c-6.248 6.248-16.376 6.248-22.624 0s-6.248-16.376 0-22.624L457.464.672l-75.616-.2c-6.464.144-12.456-4.328-13.44-11.936l.016-8.216c.152-6.472 5.504-11.816 11.96-11.968l114.752.504c.12 0 .208-.048.32-.048l5.848-.144c3.224-.08 6.136 1.184 8.2 3.28 2.096 2.064 2.848 4.968 2.792 8.216l-.632 5.84c0 .128.44.2.44.312zM55.024 447.336l75.632.2c6.464-.144 12.456 4.32 13.44 11.936l-.016 8.216c-.16 6.472-5.504 11.824-11.96 11.96l-115.256-.496c-.128.016-.208.056-.32.056l-5.856.136a11.037 11.037 0 0 1-8.192-3.272C.392 474-.368 471.104-.296 467.856L.336 462c0-.112-.44-.192-.44-.312l.336-115.504c.144-6.464 5.488-10.312 11.96-10.464l8.712-.008c6.464-.144 11.592 5.48 11.448 11.944l-.44 77.112 137.632-136.36c6.24-6.248 16.376-6.248 22.624 0 6.248 6.248 6.248 16.384 0 22.632L55.024 447.336z"/><glyph unicode="" d="M191.6 306.6l-.336 115.504c-.144 6.464-5.496 10.312-11.96 10.464l-8.208.008c-6.472.144-11.592-5.488-11.456-11.944l.448-77.624L26.952 474.872c-6.248 6.248-16.376 6.248-22.624 0s-6.248-16.376 0-22.624l132.56-131.304-75.544-.2c-6.464.144-12.456-4.32-13.44-11.936l.016-8.208c.16-6.472 5.504-11.824 11.96-11.968l114.752.504c.128-.008.208-.056.32-.056l5.848-.136c3.224-.088 6.136 1.176 8.2 3.272 2.104 2.072 2.856 4.976 2.792 8.216l-.632 5.856c.008.112.44.2.44.312zm131.392-14.384a11.055 11.055 0 0 1 8.2-3.272l5.848.136c.112 0 .192.04.32.056l114.752-.504c6.464.144 11.808 5.496 11.96 11.968l.016 8.208c-.984 7.624-6.976 12.08-13.44 11.936l-75.544.2 132.56 131.304c6.248 6.248 6.248 16.376 0 22.624s-16.376 6.248-22.624 0L351.912 343.016l.44 77.616c.152 6.464-4.976 12.088-11.448 11.944l-8.208-.008c-6.48-.152-11.824-4-11.96-10.464L320.4 306.6c0-.112.44-.192.44-.312l-.632-5.856c-.072-3.248.68-6.144 2.784-8.216zM189.008 156.288c-2.072 2.088-4.976 3.352-8.2 3.272l-5.848-.144c-.112 0-.192-.048-.32-.056l-114.76.504c-6.464-.152-11.808-5.496-11.96-11.96l-.016-8.216c.984-7.608 6.976-12.08 13.44-11.928l75.624-.2L4.328-4.248c-6.248-6.248-6.248-16.376 0-22.624s16.376-6.248 22.624 0l133.136 132.288-.448-78.04c-.144-6.472 4.984-12.096 11.456-11.952l8.208.016c6.472.16 11.824 4 11.96 10.464l.336 115.504c0 .112-.44.184-.44.304l.632 6.352c.072 3.248-.68 6.144-2.784 8.224zm186.024-28.736l75.624.2c6.464-.152 12.456 4.32 13.44 11.928l-.016 8.216c-.16 6.472-5.504 11.816-11.96 11.96H337.368c-.128.008-.208.056-.32.056l-6.848.136c-3.224.088-6.144-2.176-8.2-4.272-2.104-2.072-2.856-4.968-2.792-8.216l.632-5.848c0-.12-.44-.192-.44-.304l.336-115.504c.144-6.464 5.488-10.304 11.96-10.464l8.712-.016c6.472-.144 11.592 5.488 11.448 11.952l-.44 77.264L485.048-26.872c6.248-6.248 16.376-6.248 22.624 0s6.248 16.376 0 22.624l-132.64 131.8z"/><glyph unicode="" d="M201.152 227.072l19.632 27.624-67.152 91.64H1.368v-32h135.744l64.04-87.264zm258.24 87.264l-38.768-34.768c-4.672-4.472-6.184-11.72-1.512-16.184l2.736-4.032c4.688-4.472 12.248-4.472 16.912 0l63.872 57.752c.088.08.192.096.272.168l4.232 4.048c2.336 2.248 3.504 5.184 3.488 8.144.016 2.936-1.152 5.888-3.488 8.112l-4.232 4.048c-.08.08-.168.112-.272.184l-64.864 59.216c-4.68 4.472-12.232 4.472-16.92 0l-2.736-4.032c-4.68-4.472-3.16-11.704 1.512-16.168l38.024-34.488h-115.88l-204.656-288H1.368v-32h152.256l204.664 288h101.104zm43.512-260.72c-.08.08-.168.112-.272.184l-64.864 59.216c-4.68 4.472-12.232 4.472-16.92 0l-2.736-4.032c-4.68-4.472-3.16-11.704 1.512-16.168L457.792 58.2l-99.504.136-57.216 88.504-19.64-27.624 60.328-92.88 117.472-.144-38.608-34.624c-4.672-4.472-6.184-11.72-1.512-16.184l2.736-4.032c4.688-4.472 12.248-4.472 16.912 0l63.872 57.752c.088.08.192.096.272.168l4.232 4.048c2.336 2.248 3.504 5.184 3.488 8.144.016 2.936-1.152 5.888-3.488 8.112l-4.232 4.04z"/><glyph unicode="" d="M450.92 5.312h-416v320h128.8l32.36 31.168-.832.832H34.92c-17.672 0-32-14.328-32-32v-320c0-17.672 14.328-32 32-32h416c17.672 0 32 14.328 32 32v250.336l-32-30.544V5.312zm-315.856 128h32.24c22.432 127.248 133.272 224 266.944 224 5.608 0 10.928-.048 16.312-.088l-58.624-58.616c-6.232-6.248-6.232-16.376 0-22.624 3.128-3.128 7.232-4.688 11.328-4.688s8.168 1.56 11.296 4.688l94.512 97L414.56 470c-6.232 6.248-16.36 6.248-22.624 0-6.232-6.248-6.232-16.376 0-22.624l58.088-58.08c-5.016.008-9.984.024-15.104.024-151.528 0-276.784-110.976-299.856-256.008z"/><glyph unicode="" d="M432 128c-26.344 0-49.648-12.792-64.216-32.44l-210.68 107.36C158.936 209.648 160 216.688 160 224c0 9.152-1.608 17.904-4.44 26.088l211.88 102.808C381.984 332.992 405.448 320 432 320c44.184 0 80 35.824 80 80 0 44.184-35.816 80-80 80s-80-35.816-80-80c0-6.216.784-12.232 2.12-18.04L139.2 277.672C124.56 293.808 103.504 304 80 304c-44.184 0-80-35.816-80-80 0-44.176 35.816-80 80-80 25.448 0 48.064 11.912 62.712 30.432L354.264 66.616C352.832 60.632 352 54.424 352 48c0-44.184 35.816-80 80-80s80 35.816 80 80-35.816 80-80 80zm0 320c26.504 0 48-21.496 48-48s-21.496-48-48-48-48 21.496-48 48 21.496 48 48 48zM80 176c-26.512 0-48 21.496-48 48s21.488 48 48 48c26.504 0 48-21.496 48-48s-21.496-48-48-48zM432 0c-26.504 0-48 21.496-48 48s21.496 48 48 48 48-21.496 48-48-21.496-48-48-48z"/><glyph unicode="" d="M104.84 38.368C94.784 17.464 88.44 3.536 32.496 1.504c1.608 53.984 11.896 59.776 32.496 70.04 8.648 4.312 19.416 9.672 31.056 18.624l-19.48 24.872c-9.2-7.064-17.664-10.784-25.848-14.856C16.4 83.072.224 66.216.224-14.144l.272-16.352 15.728.352c84.816 0 100.664 19.16 116.552 52.16 3.48 7.232 5.416 12.12 11.28 21.864l-23.728 21.552c-7.112-9.704-11.552-18.936-15.488-27.064zm247.64 347.304c-35.384 0-64.176-28.792-64.176-64.168 0-35.392 28.8-64.176 64.176-64.176 35.376 0 64.168 28.792 64.168 64.176 0 35.376-28.8 64.168-64.168 64.168zm0-96.208c-17.664 0-32.04 14.376-32.04 32.04 0 17.656 14.376 32.04 32.04 32.04s32.04-14.384 32.04-32.04c-.008-17.672-14.376-32.04-32.04-32.04zm159.408 175.88c-.488 7.984-6.816 14.384-14.8 14.976 0 0-89.544 6.528-175.688-25.64-31.472-11.752-57.376-30.368-81.552-58.568-20.16-23.512-40.192-66.016-57.872-101.304-6.832-13.624-13.36-26.656-18.896-36.608H74.072a16 16 0 0 1-11.968-5.384L3.456 189.248a15.997 15.997 0 0 1-3.264-15.504 15.96 15.96 0 0 1 11.664-10.72l95.472-21.832c6.504-8.032 17.344-20.048 34.688-39.296L178.184 61.8l19.472-82.36a15.993 15.993 0 0 1 10.616-11.528 16.423 16.423 0 0 1 4.952-.784c3.768 0 7.472 1.328 10.416 3.856l59.28 58.968a15.99 15.99 0 0 1 5.592 12.144v82.56c7.968 4.952 22.096 12.576 35.392 20.016 36.232 20.248 90.312 45.456 112.736 65.392 31.576 28.064 43.08 48.64 54.376 79.056 26.856 72.344 21.144 172.016 20.872 176.224zM461 300.264c-9.856-26.536-18.784-42.416-45.624-66.28-19.832-17.616-74.064-42.912-107.096-61.384-24.656-13.784-39.424-21.832-45.896-27.128a15.974 15.974 0 0 1-5.88-12.392V49.456l-33.76-37.096-14.376 60.8a15.973 15.973 0 0 1-3.696 7.032c-29.424 32.608-73.872 81.904-77.28 85.816a16.01 16.01 0 0 1-8.784 5.424L45.312 188.2l35.952 38h91.016c5.56 0 10.728 2.888 13.632 7.624 7.04 11.464 15.208 27.768 24.672 46.648 16.024 31.976 35.96 74.272 53.56 94.816 20.792 24.264 41.912 39.504 68.448 49.424 59.048 22.064 119.984 24.384 147.84 24.176.52-29.504-.592-97.912-19.432-148.624z"/><glyph unicode="" d="M256 480C114.616 480 0 365.384 0 224 0 82.608 114.616-32 256-32c141.392 0 256.008 114.608 256.008 256 0 141.384-114.616 256-256.008 256zM256-.504C132.488-.504 32 100.488 32 224s100.488 224 224 224 224.008-100.488 224.008-224S379.512-.504 256-.504zM232.472 79.76h40.256v40.624h-40.256V79.76zm23.056 288.472c-23.44 0-42.752-6.32-57.92-18.944-15.168-12.632-22.544-37.928-22.168-58.888l.592-1.168h36.72c0 12.504 4.168 30.472 12.504 36.92 8.328 6.44 18.424 9.664 30.28 9.664 13.664 0 24.168-3.712 31.536-11.136 7.36-7.424 11.032-18.04 11.032-31.832 0-11.592-2.72-21.488-8.184-29.688-5.48-8.2-14.664-19.92-27.544-35.16-13.288-11.984-21.496-21.616-24.616-28.904-3.128-7.296-4.752-20.384-4.872-39.256h38.48c0 11.84.752 20.568 2.248 26.168 1.488 5.592 5.752 11.912 12.784 18.944 15.112 14.576 27.248 28.832 36.44 42.776 9.168 13.928 13.76 29.296 13.76 46.096 0 23.44-7.088 41.704-21.288 54.784-14.208 13.088-34.136 19.624-59.784 19.624z"/><glyph unicode="" d="M287.8 433.296c-8.832 0-16-7.168-16-16s7.168-16 16-16c113.224 0 192.2-82.736 192.2-195.952C480 92.112 387.888 0 274.664 0 161.448 0 78.704 81.8 78.704 195.032c0 8.832-7.168 16-16 16s-16-7.168-16-16C46.704 64.16 143.8-32 274.664-32S512 74.472 512 205.344c0 130.856-93.336 227.952-224.2 227.952zm-47.672-177.424V464c0 8.832-7.168 16-16 16C99.504 480 0 380.496 0 255.872c0-8.832 7.168-16 16-16h208.128c8.832 0 16 7.168 16 16zm-32 16H32.656c7.728 94.248 81.224 167.744 175.472 175.472V271.872z"/><glyph unicode="" d="M482.128 455.168c-17.432 16.704-36.664 25.168-57.192 25.168-32.096 0-55.512-20.736-61.92-27.088C354 444.32 46.44 136.648 46.44 136.648a16.503 16.503 0 0 1-4.224-7.296C35.28 103.72.536-10.008.192-11.152a16.484 16.484 0 0 1 4.104-16.464 16.169 16.169 0 0 1 11.416-4.72c1.656 0 3.328.248 4.96.784 1.176.384 118.568 38.328 137.888 44.096a16.367 16.367 0 0 1 6.768 4.016c12.208 12.064 299.064 295.728 318.104 315.392 19.696 20.296 29.48 41.432 29.104 62.808-.392 21.104-10.624 41.424-30.408 60.408zM357.92 402.08c8.152-1.976 27.376-8.432 47.008-28.24 19.84-20.016 25.208-42.896 26.208-48.104C368.224 263.152 223.408 119.872 166.32 63.4c-5.272 12.28-13.792 27.072-27.496 40.88-16.736 16.864-33.768 26.392-46.904 31.752 56.496 56.504 204.04 204.112 266 266.048zM70.192 109.024c8.792-2.336 27.056-9.112 45.672-27.88 14.336-14.456 21.104-30.4 24.144-40.12-22.24-7.152-70.936-23.96-101.88-33.936 9.168 30.168 24.656 77.152 32.064 101.936zm390.016 245.792a854.39 854.39 0 0 0-3.032-3.08c-5.056 13.024-13.928 29.76-29.288 45.248-15.696 15.824-31.616 25.16-44.376 30.68 1.088 1.08 1.928 1.928 2.256 2.248 1.832 1.808 18.448 17.688 39.16 17.688 11.92 0 23.624-5.44 34.808-16.16 13.256-12.712 20.088-25.256 20.312-37.296.216-12.288-6.456-25.52-19.84-39.328z"/><glyph unicode="" d="M399.672-.144h-368v400h224.8l32.352 31.168-.832.832H31.672c-17.672 0-32-14.328-32-32v-400c0-17.672 14.328-32 32-32h368c17.672 0 32 14.328 32 32v234.328l-32-30.544V-.144zm87.44 459.424c-14.44 13.84-30.376 20.856-47.376 20.856-26.608 0-46.016-17.184-51.296-22.448-7.488-7.392-219.584-219.176-219.584-219.176a13.825 13.825 0 0 1-3.504-6.072c-5.744-21.224-34.536-115.496-34.824-116.432-1.488-4.832-.16-10.096 3.4-13.608a13.321 13.321 0 0 1 9.456-3.92c1.376 0 2.76.2 4.12.624.976.328 98.248 31.784 114.256 36.56a13.53 13.53 0 0 1 5.608 3.312c10.104 9.968 205.056 201.896 220.832 218.192 16.312 16.832 24.424 34.328 24.112 52.048-.296 17.504-8.808 34.352-25.2 50.064zm-21.896-79.84c-8.904-9.184-78.624-78.08-207.224-204.768l-9.84-9.704c-14.744-4.56-50.048-15.904-76.736-24.512 8.592 28.376 18.904 62.656 23.504 78.872 27.48 27.44 209.192 208.872 216.096 215.688 1.344 1.344 13.608 13.128 28.72 13.128 8.576 0 16.84-3.912 25.232-11.96 10.032-9.624 15.2-18.872 15.344-27.512.16-8.896-4.92-18.728-15.096-29.232z"/><glyph unicode="" d="M495.864 127.296c.008.28.08.536.08.816v333.512c.192 1.752.128 3.56-.288 5.376-1.368 7.456-7.864 13.112-15.712 13.112-2.944 0-5.672-.848-8.04-2.24l-298.936-77.824c-5.384-1.336-9.376-5.36-11.016-10.336-1.24-2.272-2-4.832-2-7.6V95.84c-15.232 10.192-34.704 16.328-55.936 16.328-48.768 0-88.32-32.304-88.32-72.136 0-39.84 39.552-72.152 88.32-72.152 48.784 0 88.304 32.304 88.304 72.152 0 2.032-.168 4.032-.368 6.024v325.872l272 70.8v-266.88c-15.224 10.192-34.704 16.328-55.936 16.328-48.768 0-88.32-32.312-88.32-72.136 0-39.84 39.552-72.152 88.32-72.152 48.784 0 88.304 32.304 88.304 72.152a60.403 60.403 0 0 1-.456 7.256zM104.352.024c-33.28 0-56.48 21.096-56.48 40C47.872 58.936 71.064 80 104.352 80c29.616 0 51.2-16.696 55.592-33.704v-.184c0-1.616.312-3.144.76-4.608.032-.496.112-.984.112-1.48 0-18.904-23.2-40-56.464-40zm303.496 80c-32.984 0-55.976 21.088-55.976 40S374.864 160 407.848 160c32.976 0 55.968-21.064 55.968-39.976s-22.984-40-55.968-40z"/><glyph unicode="" d="M426.304 318.352L269.848 474.808c-4.96 4.96-12.336 5.92-18.304 3.008-6.272-2.168-10.8-8.056-10.8-15.064v-354.2c-16.96 12.56-39.216 20.264-63.688 20.264C124.024 128.816 81 92.928 81 48.672c0-44.272 43.024-80.168 96.056-80.168 53.056 0 96.04 35.888 96.04 80.168 0 1.96-.184 3.88-.352 5.816v372.168L403.68 295.728c6.24-6.248 16.376-6.248 22.624 0s6.248 16.384 0 22.624zM176.688.712c-37.824 0-64.176 25.272-64.176 47.936s26.36 47.912 64.176 47.912c37.016 0 63-24.2 64.064-46.496v-2.84C239.68 24.936 213.704.712 176.688.712z"/><glyph unicode="" d="M255.44 128h3.8c44.48 0 76.76 32.8 76.76 77.984v190.704c0 46.72-33.72 83.312-76.768 83.312h-3.792c-43.808 0-79.44-37.376-79.44-83.312V205.984C176 161.528 210.152 128 255.44 128zM208 396.688C208 424.984 229.28 448 255.44 448h3.8c25.512 0 44.76-22.064 44.76-51.312V205.984C304 178.488 286.016 160 259.232 160h-3.792c-27.936 0-47.44 18.904-47.44 45.984v190.704zM400 304c-8.84 0-16-7.168-16-16v-66.536C384 126.264 350.016 80 280.128 80H232.56C141.16 80 128 156.92 128 221.464V288c0 8.832-7.168 16-16 16s-16-7.168-16-16v-66.536C96 111.216 141.944 48 232.56 48H240V0h-80c-8.832 0-16-7.168-16-16s7.168-16 16-16h192c8.832 0 16 7.168 16 16s-7.168 16-16 16h-80v48h8.128C342.112 48 416 78.096 416 221.464V288c0 8.832-7.16 16-16 16z"/><glyph unicode="" d="M480 429.08H32c-17.672 0-32-14.328-32-32v-288c0-17.68 14.328-32 32-32h80c10.248 0 16 13.16 16 15.992v.008c0 2.912-5.44 16.208-16 16.208H51.52c-10.688 0-19.36 8.672-19.36 19.36V377c0 10.696 8.664 19.36 19.36 19.36l409.136.504c10.688 0 19.36-8.664 19.36-19.36V128.656c0-10.688-8.672-19.36-19.36-19.36H259.072l37.992 34.456c4.672 4.472 6.184 11.704 1.512 16.168l-2.736 4.032c-4.688 4.472-12.248 4.472-16.92 0l-64.864-59.216c-.096-.08-.184-.112-.264-.184l-4.24-4.048c-2.336-2.216-3.504-5.168-3.488-8.112-.016-2.952 1.144-5.888 3.488-8.144l4.24-4.048c.08-.08.184-.096.264-.168L277.92 22.28c4.672-4.472 12.232-4.472 16.92 0l2.736 4.032c4.672 4.472 3.16 11.72-1.512 16.184L257.496 77.08H480c17.672 0 32 14.32 32 32v288c0 17.672-14.328 32-32 32z"/></font>
</defs>
</svg>
