<svg xmlns="http://www.w3.org/2000/svg"><defs><font id="feather" horiz-adv-x="1024"><font-face units-per-em="1024" ascent="960" descent="-64"/><glyph horiz-adv-x="512"/><glyph unicode="" glyph-name="activity" d="M640 21.333c-17.067 0-34.133 12.8-38.4 29.867L384 695.467l-89.6-264.533c-4.267-12.8-21.333-25.6-38.4-25.6H85.333c-25.6 0-42.667 17.067-42.667 42.667s17.067 42.667 42.667 42.667h140.8L345.6 844.801c4.267 17.067 21.333 29.867 38.4 29.867s34.133-12.8 38.4-29.867L640 200.534l89.6 264.533c4.267 17.067 21.333 29.867 38.4 29.867h170.667c25.6 0 42.667-17.067 42.667-42.667S964.267 409.6 938.667 409.6h-140.8L678.4 55.467c-4.267-21.333-21.333-34.133-38.4-34.133z"/><glyph unicode="" glyph-name="airplay" d="M853.333 192h-42.667c-25.6 0-42.667 17.067-42.667 42.667s17.067 42.667 42.667 42.667h42.667c25.6 0 42.667 17.067 42.667 42.667v426.667c0 25.6-17.067 42.667-42.667 42.667H170.666c-25.6 0-42.667-17.067-42.667-42.667V320.001c0-25.6 17.067-42.667 42.667-42.667h42.667c25.6 0 42.667-17.067 42.667-42.667S238.933 192 213.333 192h-42.667c-72.533 0-128 55.467-128 128v426.667c0 72.533 55.467 128 128 128h682.667c72.533 0 128-55.467 128-128V320c0-72.533-55.467-128-128-128zm-128-170.667H298.666c-17.067 0-29.867 8.533-38.4 25.6s-4.267 34.133 4.267 46.933l213.333 256c17.067 21.333 51.2 21.333 64 0l213.333-256c8.533-12.8 12.8-29.867 4.267-46.933-4.267-17.067-17.067-25.6-34.133-25.6zm-337.066 85.334h243.2L512 251.734 388.267 106.667z"/><glyph unicode="" glyph-name="alert-circle" d="M512-21.333C251.733-21.333 42.667 187.734 42.667 448S251.734 917.333 512 917.333 981.333 708.266 981.333 448 772.266-21.333 512-21.333zM512 832c-213.333 0-384-170.667-384-384S298.667 64 512 64s384 170.667 384 384-170.667 384-384 384zm0-426.667c-25.6 0-42.667 17.067-42.667 42.667v170.667c0 25.6 17.067 42.667 42.667 42.667s42.667-17.067 42.667-42.667V448c0-25.6-17.067-42.667-42.667-42.667zm0-170.666c-12.8 0-21.333 4.267-29.867 12.8s-12.8 17.067-12.8 29.867c0 4.267 0 12.8 4.267 17.067s4.267 8.533 8.533 12.8c17.067 17.067 42.667 17.067 59.733 0 4.267-4.267 8.533-8.533 8.533-12.8 4.267-4.267 4.267-12.8 4.267-17.067 0-12.8-4.267-21.333-12.8-29.867s-17.067-12.8-29.867-12.8z"/><glyph unicode="" glyph-name="alert-octagon" d="M686.933-21.333H337.066c-12.8 0-21.333 4.267-29.867 12.8L55.466 243.2c-8.533 4.267-12.8 17.067-12.8 29.867v349.867c0 12.8 4.267 21.333 12.8 29.867l251.733 251.733c4.267 8.533 17.067 12.8 29.867 12.8h354.133c12.8 0 21.333-4.267 29.867-12.8l251.733-251.733c4.267-4.267 8.533-17.067 8.533-29.867V268.801c0-12.8-4.267-21.333-12.8-29.867L716.799-12.799c-4.267-4.267-17.067-8.533-29.867-8.533zM354.133 64h320l226.133 226.133v315.733l-230.4 226.133H354.133L128 605.866v-320L354.133 63.999zM512 405.333c-25.6 0-42.667 17.067-42.667 42.667v170.667c0 25.6 17.067 42.667 42.667 42.667s42.667-17.067 42.667-42.667V448c0-25.6-17.067-42.667-42.667-42.667zm0-170.666c-12.8 0-21.333 4.267-29.867 12.8s-12.8 17.067-12.8 29.867c0 4.267 0 12.8 4.267 17.067s4.267 8.533 8.533 12.8c17.067 17.067 42.667 17.067 59.733 0 4.267-4.267 8.533-8.533 8.533-12.8 4.267-4.267 4.267-12.8 4.267-17.067 0-12.8-4.267-21.333-12.8-29.867s-17.067-12.8-29.867-12.8z"/><glyph unicode="" glyph-name="alert-triangle" d="M149.333 21.333c-21.333 0-42.667 4.267-64 17.067C25.6 72.533 4.266 153.6 38.4 213.333L401.067 819.2c8.533 17.067 25.6 34.133 42.667 42.667 59.733 38.4 140.8 17.067 174.933-42.667l362.667-605.867c12.8-21.333 17.067-42.667 17.067-64 0-34.133-12.8-68.267-38.4-89.6-21.333-25.6-51.2-38.4-85.333-38.4H149.335zM473.6 772.267l-358.4-601.6c-12.8-21.333-4.267-46.933 17.067-59.733 4.267-4.267 12.8-4.267 17.067-4.267h721.067c21.333 0 42.667 21.333 42.667 42.667 0 8.533 0 12.8-4.267 21.333l-358.4 601.6c-12.8 21.333-38.4 25.6-59.733 17.067-8.533-4.267-12.8-8.533-17.067-17.067zm38.4-409.6c-25.6 0-42.667 17.067-42.667 42.667v170.667c0 25.6 17.067 42.667 42.667 42.667s42.667-17.067 42.667-42.667V405.334c0-25.6-17.067-42.667-42.667-42.667zM512 192c-12.8 0-21.333 4.267-29.867 12.8s-12.8 17.067-12.8 29.867c0 4.267 0 12.8 4.267 17.067s4.267 8.533 8.533 12.8c17.067 17.067 42.667 17.067 59.733 0 4.267-4.267 8.533-8.533 8.533-12.8 4.267-4.267 4.267-12.8 4.267-17.067 0-12.8-4.267-21.333-12.8-29.867S524.799 192 511.999 192z"/><glyph unicode="" glyph-name="align-center" d="M768 490.667H256c-25.6 0-42.667 17.067-42.667 42.667S230.4 576.001 256 576.001h512c25.6 0 42.667-17.067 42.667-42.667S793.6 490.667 768 490.667zm128 170.666H128c-25.6 0-42.667 17.067-42.667 42.667S102.4 746.667 128 746.667h768c25.6 0 42.667-17.067 42.667-42.667S921.6 661.333 896 661.333zM896 320H128c-25.6 0-42.667 17.067-42.667 42.667S102.4 405.334 128 405.334h768c25.6 0 42.667-17.067 42.667-42.667S921.6 320 896 320zM768 149.333H256c-25.6 0-42.667 17.067-42.667 42.667S230.4 234.667 256 234.667h512c25.6 0 42.667-17.067 42.667-42.667S793.6 149.333 768 149.333z"/><glyph unicode="" glyph-name="align-justify" d="M896 490.667H128c-25.6 0-42.667 17.067-42.667 42.667S102.4 576.001 128 576.001h768c25.6 0 42.667-17.067 42.667-42.667S921.6 490.667 896 490.667zm0 170.666H128c-25.6 0-42.667 17.067-42.667 42.667S102.4 746.667 128 746.667h768c25.6 0 42.667-17.067 42.667-42.667S921.6 661.333 896 661.333zM896 320H128c-25.6 0-42.667 17.067-42.667 42.667S102.4 405.334 128 405.334h768c25.6 0 42.667-17.067 42.667-42.667S921.6 320 896 320zm0-170.667H128c-25.6 0-42.667 17.067-42.667 42.667S102.4 234.667 128 234.667h768c25.6 0 42.667-17.067 42.667-42.667S921.6 149.333 896 149.333z"/><glyph unicode="" glyph-name="align-left" d="M725.333 490.667H128c-25.6 0-42.667 17.067-42.667 42.667S102.4 576.001 128 576.001h597.333c25.6 0 42.667-17.067 42.667-42.667s-17.067-42.667-42.667-42.667zM896 661.333H128c-25.6 0-42.667 17.067-42.667 42.667S102.4 746.667 128 746.667h768c25.6 0 42.667-17.067 42.667-42.667S921.6 661.333 896 661.333zM896 320H128c-25.6 0-42.667 17.067-42.667 42.667S102.4 405.334 128 405.334h768c25.6 0 42.667-17.067 42.667-42.667S921.6 320 896 320zM725.333 149.333H128c-25.6 0-42.667 17.067-42.667 42.667S102.4 234.667 128 234.667h597.333C750.933 234.667 768 217.6 768 192s-17.067-42.667-42.667-42.667z"/><glyph unicode="" glyph-name="align-right" d="M896 490.667H298.667c-25.6 0-42.667 17.067-42.667 42.667s17.067 42.667 42.667 42.667H896c25.6 0 42.667-17.067 42.667-42.667S921.6 490.667 896 490.667zm0 170.666H128c-25.6 0-42.667 17.067-42.667 42.667S102.4 746.667 128 746.667h768c25.6 0 42.667-17.067 42.667-42.667S921.6 661.333 896 661.333zM896 320H128c-25.6 0-42.667 17.067-42.667 42.667S102.4 405.334 128 405.334h768c25.6 0 42.667-17.067 42.667-42.667S921.6 320 896 320zm0-170.667H298.667C273.067 149.333 256 166.4 256 192s17.067 42.667 42.667 42.667H896c25.6 0 42.667-17.067 42.667-42.667S921.6 149.333 896 149.333z"/><glyph unicode="" glyph-name="anchor" d="M512 576c-93.867 0-170.667 76.8-170.667 170.667S418.133 917.334 512 917.334s170.667-76.8 170.667-170.667S605.867 576 512 576zm0 256c-46.933 0-85.333-38.4-85.333-85.333s38.4-85.333 85.333-85.333 85.333 38.4 85.333 85.333S558.933 832 512 832zm0-853.333c-25.6 0-42.667 17.067-42.667 42.667v597.333c0 25.6 17.067 42.667 42.667 42.667s42.667-17.067 42.667-42.667V21.334c0-25.6-17.067-42.667-42.667-42.667zm0 0C251.733-21.333 42.667 187.734 42.667 448c0 25.6 17.067 42.667 42.667 42.667h128c25.6 0 42.667-17.067 42.667-42.667s-17.067-42.667-42.667-42.667h-81.067C153.6 213.333 315.734 64 512 64s358.4 149.333 379.733 341.333h-81.067c-25.6 0-42.667 17.067-42.667 42.667s17.067 42.667 42.667 42.667h128c25.6 0 42.667-17.067 42.667-42.667 0-260.267-209.067-469.333-469.333-469.333z"/><glyph unicode="" glyph-name="aperture" d="M512-21.333C251.733-21.333 42.667 187.734 42.667 448S251.734 917.333 512 917.333 981.333 708.266 981.333 448 772.266-21.333 512-21.333zM512 832c-213.333 0-384-170.667-384-384S298.667 64 512 64s384 170.667 384 384-170.667 384-384 384zm345.6-678.4c-12.8 0-29.867 8.533-38.4 21.333L576 597.333c-12.8 21.333-4.267 46.933 17.067 59.733S640 661.333 652.8 639.999l243.2-422.4c12.8-21.333 4.267-46.933-17.067-59.733-8.533-4.267-17.067-4.267-21.333-4.267zM904.533 576H413.866c-25.6 0-42.667 17.067-42.667 42.667s17.067 42.667 42.667 42.667h490.667c25.6 0 42.667-17.067 42.667-42.667S925.867 576 904.533 576zm-588.8-170.667c-8.533 0-12.8 0-21.333 4.267-21.333 12.8-25.6 38.4-17.067 59.733l243.2 422.4c12.8 21.333 38.4 25.6 59.733 17.067 21.333-12.8 25.6-38.4 17.067-59.733l-243.2-422.4c-8.533-12.8-25.6-21.333-38.4-21.333zm98.134-170.666c-12.8 0-29.867 8.533-38.4 21.333l-243.2 422.4c-12.8 21.333-4.267 46.933 17.067 59.733s46.933 4.267 59.733-17.067l243.2-422.4c12.8-21.333 4.267-46.933-17.067-59.733-8.533-4.267-12.8-4.267-21.333-4.267zm196.266 0H119.466c-25.6 0-42.667 17.067-42.667 42.667s17.067 42.667 42.667 42.667h490.667c25.6 0 42.667-17.067 42.667-42.667s-17.067-42.667-42.667-42.667zM465.067-17.067c-8.533 0-12.8 0-21.333 4.267-21.333 12.8-25.6 38.4-17.067 59.733l243.2 422.4c12.8 21.333 38.4 25.6 59.733 17.067 21.333-12.8 25.6-38.4 17.067-59.733l-243.2-422.4c-8.533-17.067-25.6-21.333-38.4-21.333z"/><glyph unicode="" glyph-name="arrow-down-left" d="M256 149.333c-12.8 0-21.333 4.267-29.867 12.8-17.067 17.067-17.067 42.667 0 59.733l512 512c17.067 17.067 42.667 17.067 59.733 0s17.067-42.667 0-59.733l-512-512c-8.533-8.533-17.067-12.8-29.867-12.8zm384 0H256c-25.6 0-42.667 17.067-42.667 42.667v384c0 25.6 17.067 42.667 42.667 42.667S298.667 601.6 298.667 576V234.667H640c25.6 0 42.667-17.067 42.667-42.667S665.6 149.333 640 149.333z"/><glyph unicode="" glyph-name="arrow-down-right" d="M768 149.333c-12.8 0-21.333 4.267-29.867 12.8l-512 512c-17.067 17.067-17.067 42.667 0 59.733s42.667 17.067 59.733 0l512-512c17.067-17.067 17.067-42.667 0-59.733-8.533-8.533-17.067-12.8-29.867-12.8zm0 0H384c-25.6 0-42.667 17.067-42.667 42.667S358.4 234.667 384 234.667h341.333V576c0 25.6 17.067 42.667 42.667 42.667S810.667 601.6 810.667 576V192c0-25.6-17.067-42.667-42.667-42.667z"/><glyph unicode="" glyph-name="arrow-down" d="M512 64c-25.6 0-42.667 17.067-42.667 42.667v682.667c0 25.6 17.067 42.667 42.667 42.667s42.667-17.067 42.667-42.667V106.667C554.667 81.067 537.6 64 512 64zm0 0c-12.8 0-21.333 4.267-29.867 12.8l-256 256c-17.067 17.067-17.067 42.667 0 59.733s42.667 17.067 59.733 0L511.999 166.4l226.133 226.133c17.067 17.067 42.667 17.067 59.733 0s17.067-42.667 0-59.733l-256-256c-8.533-8.533-17.067-12.8-29.867-12.8z"/><glyph unicode="" glyph-name="arrow-left" d="M853.333 405.333H170.666c-25.6 0-42.667 17.067-42.667 42.667s17.067 42.667 42.667 42.667h682.667C878.933 490.667 896 473.6 896 448s-17.067-42.667-42.667-42.667zm-426.666-256c-12.8 0-21.333 4.267-29.867 12.8l-256 256c-17.067 17.067-17.067 42.667 0 59.733l256 256c17.067 17.067 42.667 17.067 59.733 0s17.067-42.667 0-59.733L230.4 448l226.133-226.133c17.067-17.067 17.067-42.667 0-59.733-8.533-8.533-17.067-12.8-29.867-12.8z"/><glyph unicode="" glyph-name="arrow-right" d="M853.333 405.333H170.666c-25.6 0-42.667 17.067-42.667 42.667s17.067 42.667 42.667 42.667h682.667C878.933 490.667 896 473.6 896 448s-17.067-42.667-42.667-42.667zm-256-256c-12.8 0-21.333 4.267-29.867 12.8-17.067 17.067-17.067 42.667 0 59.733l226.133 226.133-226.133 226.133c-17.067 17.067-17.067 42.667 0 59.733s42.667 17.067 59.733 0l256-256c17.067-17.067 17.067-42.667 0-59.733l-256-256c-8.533-8.533-17.067-12.8-29.867-12.8z"/><glyph unicode="" glyph-name="arrow-up-left" d="M768 149.333c-12.8 0-21.333 4.267-29.867 12.8l-512 512c-17.067 17.067-17.067 42.667 0 59.733s42.667 17.067 59.733 0l512-512c17.067-17.067 17.067-42.667 0-59.733-8.533-8.533-17.067-12.8-29.867-12.8zm-512 128c-25.6 0-42.667 17.067-42.667 42.667v384c0 25.6 17.067 42.667 42.667 42.667h384c25.6 0 42.667-17.067 42.667-42.667S665.6 661.333 640 661.333H298.667V320c0-25.6-17.067-42.667-42.667-42.667z"/><glyph unicode="" glyph-name="arrow-up-right" d="M256 149.333c-12.8 0-21.333 4.267-29.867 12.8-17.067 17.067-17.067 42.667 0 59.733l512 512c17.067 17.067 42.667 17.067 59.733 0s17.067-42.667 0-59.733l-512-512c-8.533-8.533-17.067-12.8-29.867-12.8zm512 128c-25.6 0-42.667 17.067-42.667 42.667v341.333H384c-25.6 0-42.667 17.067-42.667 42.667S358.4 746.667 384 746.667h384c25.6 0 42.667-17.067 42.667-42.667V320c0-25.6-17.067-42.667-42.667-42.667z"/><glyph unicode="" glyph-name="arrow-up" d="M512 64c-25.6 0-42.667 17.067-42.667 42.667v682.667c0 25.6 17.067 42.667 42.667 42.667s42.667-17.067 42.667-42.667V106.667C554.667 81.067 537.6 64 512 64zm256 426.667c-12.8 0-21.333 4.267-29.867 12.8L512 729.6 285.867 503.467c-17.067-17.067-42.667-17.067-59.733 0s-17.067 42.667 0 59.733l256 256c17.067 17.067 42.667 17.067 59.733 0l256-256c17.067-17.067 17.067-42.667 0-59.733-8.533-8.533-17.067-12.8-29.867-12.8z"/><glyph unicode="" glyph-name="at-sign" d="M512 234.667c-119.467 0-213.333 93.867-213.333 213.333S392.534 661.333 512 661.333 725.333 567.466 725.333 448 631.466 234.667 512 234.667zM512 576c-72.533 0-128-55.467-128-128s55.467-128 128-128 128 55.467 128 128-55.467 128-128 128zm0-597.333C251.733-21.333 42.667 187.734 42.667 448S251.734 917.333 512 917.333c123.733 0 243.2-46.933 332.8-136.533S981.333 571.733 981.333 448v-42.667c0-93.867-76.8-170.667-170.667-170.667s-170.667 76.8-170.667 170.667V448c0 25.6 17.067 42.667 42.667 42.667S725.333 473.6 725.333 448v-42.667c0-46.933 38.4-85.333 85.333-85.333s85.333 38.4 85.333 85.333V448c0 102.4-38.4 200.533-110.933 273.067S614.399 832 511.999 832s-200.533-38.4-273.067-110.933C166.399 648.534 127.999 550.4 127.999 448c0-213.333 170.667-384 384-384 85.333 0 166.4 29.867 234.667 81.067 17.067 12.8 46.933 12.8 59.733-8.533 12.8-17.067 12.8-46.933-8.533-59.733-81.067-64-183.467-98.133-285.867-98.133z"/><glyph unicode="" glyph-name="award" d="M512 277.333c-187.733 0-341.333 153.6-341.333 341.333S324.267 959.999 512 959.999s341.333-153.6 341.333-341.333S699.733 277.333 512 277.333zm0 597.334c-140.8 0-256-115.2-256-256s115.2-256 256-256 256 115.2 256 256-115.2 256-256 256zM298.667-64c-8.533 0-17.067 4.267-21.333 8.533-12.8 8.533-21.333 25.6-17.067 42.667l51.2 388.267c4.267 21.333 25.6 38.4 46.933 38.4 21.333-8.533 38.4-29.867 34.133-51.2l-38.4-302.933 136.533 81.067c12.8 8.533 29.867 8.533 42.667 0l136.533-81.067-38.4 302.933c-4.267 21.333 12.8 46.933 38.4 46.933 25.6 4.267 46.933-12.8 46.933-38.4l51.2-388.267c4.267-17.067-4.267-34.133-17.067-42.667s-29.867-8.533-46.933 0l-192 115.2-192-115.2c-4.267-4.267-12.8-4.267-21.333-4.267z"/><glyph unicode="" glyph-name="bar-chart-2" d="M597.333 21.333H426.666c-25.6 0-42.667 17.067-42.667 42.667v768c0 25.6 17.067 42.667 42.667 42.667h170.667C622.933 874.667 640 857.6 640 832V64c0-25.6-17.067-42.667-42.667-42.667zm-128 85.334h85.333v682.667h-85.333V106.667zm469.334-85.334H768c-25.6 0-42.667 17.067-42.667 42.667v554.667c0 25.6 17.067 42.667 42.667 42.667h170.667c25.6 0 42.667-17.067 42.667-42.667V64c0-25.6-17.067-42.667-42.667-42.667zm-128 85.334H896V576h-85.333V106.667zM256 21.333H85.333c-25.6 0-42.667 17.067-42.667 42.667v341.333c0 25.6 17.067 42.667 42.667 42.667H256c25.6 0 42.667-17.067 42.667-42.667V64c0-25.6-17.067-42.667-42.667-42.667zm-128 85.334h85.333v256H128v-256z"/><glyph unicode="" glyph-name="bar-chart" d="M938.667 21.333H768c-25.6 0-42.667 17.067-42.667 42.667v768c0 25.6 17.067 42.667 42.667 42.667h170.667c25.6 0 42.667-17.067 42.667-42.667V64c0-25.6-17.067-42.667-42.667-42.667zm-128 85.334H896v682.667h-85.333V106.667zM597.333 21.333H426.666c-25.6 0-42.667 17.067-42.667 42.667v554.667c0 25.6 17.067 42.667 42.667 42.667h170.667c25.6 0 42.667-17.067 42.667-42.667V64c0-25.6-17.067-42.667-42.667-42.667zm-128 85.334h85.333V576h-85.333V106.667zM256 21.333H85.333c-25.6 0-42.667 17.067-42.667 42.667v341.333c0 25.6 17.067 42.667 42.667 42.667H256c25.6 0 42.667-17.067 42.667-42.667V64c0-25.6-17.067-42.667-42.667-42.667zm-128 85.334h85.333v256H128v-256z"/><glyph unicode="" glyph-name="battery-charging" d="M725.333 149.333H588.8c-25.6 0-42.667 17.067-42.667 42.667s17.067 42.667 42.667 42.667h136.533c25.6 0 42.667 17.067 42.667 42.667v341.333c0 25.6-17.067 42.667-42.667 42.667H640c-25.6 0-42.667 17.067-42.667 42.667S614.4 746.668 640 746.668h85.333c72.533 0 128-55.467 128-128V277.335c0-72.533-55.467-128-128-128zm-512 0H128c-72.533 0-128 55.467-128 128v341.333c0 72.533 55.467 128 128 128h136.533c25.6 0 42.667-17.067 42.667-42.667s-17.067-42.667-42.667-42.667H128c-25.6 0-42.667-17.067-42.667-42.667V277.332c0-25.6 17.067-42.667 42.667-42.667h85.333c25.6 0 42.667-17.067 42.667-42.667s-17.067-42.667-42.667-42.667zm768 213.334c-25.6 0-42.667 17.067-42.667 42.667v85.333c0 25.6 17.067 42.667 42.667 42.667S1024 516.267 1024 490.667v-85.333c0-25.6-17.067-42.667-42.667-42.667zM384 149.333c-8.533 0-17.067 4.267-25.6 8.533-21.333 12.8-25.6 38.4-12.8 59.733l128 187.733H298.667c-17.067 0-29.867 8.533-38.4 21.333s-8.533 29.867 0 42.667l170.667 256c12.8 21.333 38.4 25.6 59.733 12.8s25.6-38.4 12.8-59.733l-128-187.733h179.2c17.067 0 29.867-8.533 38.4-21.333s8.533-29.867 0-42.667l-170.667-256c-12.8-12.8-25.6-21.333-38.4-21.333z"/><glyph unicode="" glyph-name="battery" d="M725.333 149.333H128c-72.533 0-128 55.467-128 128v341.333c0 72.533 55.467 128 128 128h597.333c72.533 0 128-55.467 128-128V277.333c0-72.533-55.467-128-128-128zM128 661.333c-25.6 0-42.667-17.067-42.667-42.667V277.333c0-25.6 17.067-42.667 42.667-42.667h597.333c25.6 0 42.667 17.067 42.667 42.667v341.333c0 25.6-17.067 42.667-42.667 42.667H128zm853.333-298.666c-25.6 0-42.667 17.067-42.667 42.667v85.333c0 25.6 17.067 42.667 42.667 42.667S1024 516.267 1024 490.667v-85.333c0-25.6-17.067-42.667-42.667-42.667z"/><glyph unicode="" glyph-name="bell-off" d="M512-21.333c-21.333 0-42.667 4.267-64 17.067s-34.133 25.6-46.933 46.933C388.267 64 396.8 89.6 418.134 102.4s46.933 4.267 59.733-17.067c4.267-4.267 8.533-12.8 17.067-17.067 4.267-4.267 17.067-4.267 29.867-4.267 12.8 4.267 21.333 8.533 25.6 21.333 12.8 21.333 38.4 25.6 59.733 17.067 21.333-12.8 25.6-38.4 17.067-59.733-17.067-29.867-46.933-51.2-76.8-59.733-17.067-4.267-25.6-4.267-38.4-4.267zM725.333 192h-640c-25.6 0-42.667 17.067-42.667 42.667s17.067 42.667 42.667 42.667c46.933 0 85.333 38.4 85.333 85.333V576c0 55.467 12.8 106.667 38.4 157.867 12.8 21.333 38.4 29.867 55.467 17.067 21.333-12.8 29.867-38.4 17.067-55.467-17.067-38.4-25.6-76.8-25.6-119.467V362.667c0-29.867-8.533-59.733-21.333-85.333h490.667c25.6 0 42.667-17.067 42.667-42.667S750.934 192 725.334 192zm85.334 170.667c-25.6 0-42.667 17.067-42.667 42.667v170.667c0 42.667-12.8 89.6-34.133 128C665.6 827.734 507.734 870.401 384 802.134c-17.067-12.8-42.667-8.533-55.467 12.8s-4.267 46.933 17.067 59.733c162.133 93.867 371.2 34.133 465.067-128 29.867-51.2 42.667-110.933 42.667-166.4V409.6c0-29.867-17.067-46.933-42.667-46.933zM981.333-64c-12.8 0-21.333 4.267-29.867 12.8L12.799 887.467c-17.067 17.067-17.067 42.667 0 59.733s42.667 17.067 59.733 0L1011.199 8.533c17.067-17.067 17.067-42.667 0-59.733-8.533-8.533-17.067-12.8-29.867-12.8z"/><glyph unicode="" glyph-name="bell" d="M512-21.333c-21.333 0-42.667 4.267-64 17.067s-34.133 25.6-46.933 46.933C388.267 64 396.8 89.6 418.134 102.4s46.933 4.267 59.733-17.067c4.267-4.267 8.533-12.8 17.067-17.067 4.267-4.267 17.067-4.267 29.867-4.267 12.8 4.267 21.333 8.533 25.6 21.333 12.8 21.333 38.4 25.6 59.733 17.067 21.333-12.8 25.6-38.4 17.067-59.733-17.067-29.867-46.933-51.2-76.8-59.733-17.067-4.267-25.6-4.267-38.4-4.267zM938.667 192H85.334c-25.6 0-42.667 17.067-42.667 42.667s17.067 42.667 42.667 42.667c46.933 0 85.333 38.4 85.333 85.333V576c0 187.733 153.6 341.333 341.333 341.333S853.333 763.733 853.333 576V362.667c0-46.933 38.4-85.333 85.333-85.333 25.6 0 42.667-17.067 42.667-42.667S964.266 192 938.666 192zm-704 85.333H793.6c-12.8 25.6-21.333 55.467-21.333 85.333v213.333c0 140.8-115.2 256-256 256S256 716.799 256 575.999V362.666c0-29.867-8.533-59.733-21.333-85.333z"/><glyph unicode="" glyph-name="bluetooth" d="M512-64c-4.267 0-12.8 0-17.067 4.267-17.067 4.267-25.6 21.333-25.6 38.4V345.6L307.2 183.467c-17.067-17.067-42.667-17.067-59.733 0s-17.067 42.667 0 59.733l204.8 204.8-204.8 204.8c-17.067 17.067-17.067 42.667 0 59.733s42.667 17.067 59.733 0L469.333 550.4v366.933c0 17.067 8.533 34.133 25.6 38.4C512 964.266 529.066 960 541.866 947.2l234.667-234.667c17.067-17.067 17.067-42.667 0-59.733L571.733 448l204.8-204.8c17.067-17.067 17.067-42.667 0-59.733L541.866-51.2c-8.533-8.533-17.067-12.8-29.867-12.8zm42.667 409.6V81.067l132.267 132.267-132.267 132.267zm0 469.333V550.4l132.267 132.267-132.267 132.267z"/><glyph unicode="" glyph-name="book" d="M170.667 85.333C145.067 85.333 128 102.4 128 128c0 81.067 68.267 149.333 149.333 149.333h576c25.6 0 42.667-17.067 42.667-42.667s-17.067-42.667-42.667-42.667h-576c-34.133 0-64-29.867-64-64 0-25.6-17.067-42.667-42.667-42.667zM853.333-21.333h-576C196.266-21.333 128 46.934 128 128v640c0 81.067 68.267 149.333 149.333 149.333h576c25.6 0 42.667-17.067 42.667-42.667V21.333c0-25.6-17.067-42.667-42.667-42.667zM277.333 832c-34.133 0-64-29.867-64-64V128c0-34.133 29.867-64 64-64h533.333v768H277.333z"/><glyph unicode="" glyph-name="bookmark" d="M810.667 21.333c-8.533 0-17.067 4.267-25.6 8.533L512 226.133 238.933 29.866c-12.8-8.533-29.867-8.533-42.667-4.267s-25.6 21.333-25.6 38.4v682.667c0 72.533 55.467 128 128 128h426.667c72.533 0 128-55.467 128-128V63.999c0-17.067-8.533-29.867-21.333-38.4-8.533-4.267-12.8-4.267-21.333-4.267zM512 320c8.533 0 17.067-4.267 25.6-8.533l230.4-166.4v601.6c0 25.6-17.067 42.667-42.667 42.667H298.666c-25.6 0-42.667-17.067-42.667-42.667v-601.6l230.4 166.4c8.533 4.267 17.067 8.533 25.6 8.533z"/><glyph unicode="" glyph-name="box" d="M512-55.467c-21.333 0-38.4 4.267-55.467 12.8L115.2 128c-42.667 21.333-72.533 68.267-72.533 115.2v409.6c0 46.933 25.6 93.867 72.533 115.2l341.333 170.667c34.133 17.067 76.8 17.067 115.2 0L913.066 768c42.667-21.333 72.533-64 72.533-115.2V247.467c0-46.933-25.6-93.867-72.533-115.2L571.733-38.4C550.4-51.2 533.333-55.467 512-55.467zm0 921.6c-8.533 0-12.8 0-17.067-4.267L153.6 691.199c-17.067-8.533-25.6-25.6-25.6-38.4V247.466c0-17.067 8.533-29.867 25.6-38.4L494.933 38.399c12.8-4.267 25.6-4.267 38.4 0l341.333 170.667c12.8 8.533 25.6 21.333 25.6 38.4v405.333c0 17.067-8.533 29.867-25.6 38.4L533.333 861.866c-8.533 0-12.8 4.267-21.333 4.267zM512 448c-8.533 0-12.8 0-17.067 4.267l-413.867 204.8c-21.333 12.8-29.867 38.4-21.333 59.733 12.8 21.333 38.4 29.867 59.733 17.067L511.999 537.6l392.533 196.267c21.333 8.533 46.933 0 55.467-17.067s0-46.933-17.067-55.467l-413.867-204.8C524.798 448 520.532 448 511.998 448zm0-503.467c-25.6 0-42.667 17.067-42.667 42.667v503.467c0 25.6 17.067 42.667 42.667 42.667s42.667-17.067 42.667-42.667V-12.8c0-21.333-17.067-42.667-42.667-42.667z"/><glyph unicode="" glyph-name="briefcase" d="M853.333 21.333H170.666c-72.533 0-128 55.467-128 128V576c0 72.533 55.467 128 128 128h682.667c72.533 0 128-55.467 128-128V149.333c0-72.533-55.467-128-128-128zM170.667 618.667C145.067 618.667 128 601.6 128 576V149.333c0-25.6 17.067-42.667 42.667-42.667h682.667c25.6 0 42.667 17.067 42.667 42.667V576c0 25.6-17.067 42.667-42.667 42.667H170.667zm512-597.334C657.067 21.333 640 38.4 640 64v682.667c0 25.6-17.067 42.667-42.667 42.667H426.666c-25.6 0-42.667-17.067-42.667-42.667V64c0-25.6-17.067-42.667-42.667-42.667S298.665 38.4 298.665 64v682.667c0 72.533 55.467 128 128 128h170.667c72.533 0 128-55.467 128-128V64c0-25.6-17.067-42.667-42.667-42.667z"/><glyph unicode="" glyph-name="calendar" d="M810.667-21.333H213.334c-72.533 0-128 55.467-128 128V704c0 72.533 55.467 128 128 128h597.333c72.533 0 128-55.467 128-128V106.667c0-72.533-55.467-128-128-128zm-597.334 768c-25.6 0-42.667-17.067-42.667-42.667V106.667c0-25.6 17.067-42.667 42.667-42.667h597.333c25.6 0 42.667 17.067 42.667 42.667V704c0 25.6-17.067 42.667-42.667 42.667H213.333zm469.334-85.334C657.067 661.333 640 678.4 640 704v170.667c0 25.6 17.067 42.667 42.667 42.667s42.667-17.067 42.667-42.667V704c0-25.6-17.067-42.667-42.667-42.667zm-341.334 0c-25.6 0-42.667 17.067-42.667 42.667v170.667c0 25.6 17.067 42.667 42.667 42.667S384 900.267 384 874.667V704c0-25.6-17.067-42.667-42.667-42.667zM896 490.667H128c-25.6 0-42.667 17.067-42.667 42.667S102.4 576.001 128 576.001h768c25.6 0 42.667-17.067 42.667-42.667S921.6 490.667 896 490.667z"/><glyph unicode="" glyph-name="camera-off" d="M981.333-64c-12.8 0-21.333 4.267-29.867 12.8L12.799 887.467c-17.067 17.067-17.067 42.667 0 59.733s42.667 17.067 59.733 0L1011.199 8.533c17.067-17.067 17.067-42.667 0-59.733-8.533-8.533-17.067-12.8-29.867-12.8zM896 21.333H128c-72.533 0-128 55.467-128 128v469.333c0 72.533 55.467 128 128 128h128c25.6 0 42.667-17.067 42.667-42.667S281.6 661.332 256 661.332H128c-25.6 0-42.667-17.067-42.667-42.667V149.332c0-25.6 17.067-42.667 42.667-42.667h768c25.6 0 42.667-17.067 42.667-42.667S921.6 21.331 896 21.331zM981.333 179.2c-25.6 0-42.667 17.067-42.667 42.667v396.8c0 25.6-17.067 42.667-42.667 42.667H725.332c-12.8 0-25.6 8.533-34.133 17.067l-72.533 110.933H383.999c-25.6 0-42.667 17.067-42.667 42.667s17.067 42.667 42.667 42.667h256c12.8 0 25.6-8.533 34.133-17.067l72.533-110.933h149.333c72.533 0 128-55.467 128-128v-396.8c0-25.6-17.067-42.667-42.667-42.667zM512 192c-42.667 0-85.333 12.8-119.467 38.4-46.933 34.133-76.8 81.067-89.6 136.533-8.533 55.467 0 110.933 34.133 157.867 17.067 21.333 34.133 42.667 55.467 55.467s46.933 8.533 59.733-12.8c12.8-21.333 8.533-46.933-12.8-59.733-12.8-8.533-25.6-17.067-34.133-29.867-17.067-29.867-25.6-64-21.333-98.133s25.6-64 55.467-81.067c29.867-21.333 64-25.6 93.867-21.333 34.133 4.267 64 25.6 81.067 55.467 12.8 21.333 38.4 25.6 59.733 12.8s25.6-38.4 12.8-59.733c-34.133-46.933-81.067-76.8-136.533-89.6-12.8-4.267-25.6-4.267-38.4-4.267z"/><glyph unicode="" glyph-name="camera" d="M896 21.333H128c-72.533 0-128 55.467-128 128v469.333c0 72.533 55.467 128 128 128h149.333l72.533 110.933c8.533 8.533 21.333 17.067 34.133 17.067h256c12.8 0 25.6-8.533 34.133-17.067l72.533-110.933h149.333c72.533 0 128-55.467 128-128V149.333c0-72.533-55.467-128-128-128zm-768 640c-25.6 0-42.667-17.067-42.667-42.667V149.333c0-25.6 17.067-42.667 42.667-42.667h768c25.6 0 42.667 17.067 42.667 42.667v469.333c0 25.6-17.067 42.667-42.667 42.667H725.333c-12.8 0-25.6 8.533-34.133 17.067l-72.533 110.933H405.334L332.801 678.4c-8.533-8.533-21.333-17.067-34.133-17.067H128.001zM512 192c-119.467 0-213.333 93.867-213.333 213.333S392.534 618.666 512 618.666s213.333-93.867 213.333-213.333S631.466 192 512 192zm0 341.333c-72.533 0-128-55.467-128-128s55.467-128 128-128 128 55.467 128 128-55.467 128-128 128z"/><glyph unicode="" glyph-name="cast" d="M251.733 64c-21.333 0-38.4 12.8-42.667 34.133-12.8 68.267-64 119.467-132.267 132.267-21.333 4.267-38.4 29.867-34.133 51.2s25.6 38.4 51.2 34.133c102.4-21.333 179.2-98.133 200.533-200.533 4.267-21.333-12.8-46.933-34.133-51.2h-8.533zM422.4 64c-21.333 0-38.4 17.067-42.667 38.4C362.666 260.267 238.933 384 76.8 405.333c-21.333 0-38.4 21.333-34.133 46.933 4.267 21.333 25.6 38.4 46.933 38.4 200.533-21.333 354.133-179.2 375.467-375.467 4.267-21.333-12.8-42.667-38.4-46.933 0-4.267 0-4.267-4.267-4.267zm430.933 0h-256c-25.6 0-42.667 17.067-42.667 42.667s17.067 42.667 42.667 42.667h256c25.6 0 42.667 17.067 42.667 42.667v512c0 25.6-17.067 42.667-42.667 42.667H170.666c-25.6 0-42.667-17.067-42.667-42.667v-85.333c0-25.6-17.067-42.667-42.667-42.667s-42.667 17.067-42.667 42.667v85.333c0 72.533 55.467 128 128 128h682.667c72.533 0 128-55.467 128-128v-512c0-72.533-55.467-128-128-128zm-768 0C72.533 64 64 68.267 55.466 76.8s-12.8 17.067-12.8 29.867c0 4.267 0 12.8 4.267 17.067s4.267 8.533 8.533 12.8c17.067 17.067 42.667 17.067 59.733 0 8.533-8.533 12.8-17.067 12.8-29.867s-4.267-21.333-12.8-29.867C106.666 68.267 98.132 64 85.332 64z"/><glyph unicode="" glyph-name="check-circle" d="M512-21.333C251.733-21.333 42.667 187.734 42.667 448c0 128 46.933 243.2 136.533 332.8S388.267 917.333 512 917.333c68.267 0 132.267-12.8 192-42.667 21.333-8.533 29.867-34.133 21.333-55.467s-34.133-29.867-55.467-21.333c-51.2 21.333-102.4 34.133-157.867 34.133-102.4 0-200.533-38.4-273.067-110.933S127.999 550.399 127.999 447.999c0-213.333 170.667-384 384-384 102.4 0 200.533 38.4 273.067 110.933s110.933 170.667 110.933 273.067v38.4c0 25.6 17.067 42.667 42.667 42.667s42.667-17.067 42.667-42.667v-38.4c0-123.733-46.933-243.2-136.533-332.8S635.733-21.334 512-21.334zM512 320c-12.8 0-21.333 4.267-29.867 12.8l-128 128c-17.067 17.067-17.067 42.667 0 59.733s42.667 17.067 59.733 0l98.133-98.133 439.467 439.467c17.067 17.067 42.667 17.067 59.733 0s17.067-42.667 0-59.733L541.866 332.801c-8.533-8.533-17.067-12.8-29.867-12.8z"/><glyph unicode="" glyph-name="check-square" d="M512 320c-12.8 0-21.333 4.267-29.867 12.8l-128 128c-17.067 17.067-17.067 42.667 0 59.733s42.667 17.067 59.733 0l98.133-98.133 439.467 439.467c17.067 17.067 42.667 17.067 59.733 0s17.067-42.667 0-59.733L541.866 332.801c-8.533-8.533-17.067-12.8-29.867-12.8zM810.667 21.333H213.334c-72.533 0-128 55.467-128 128v597.333c0 72.533 55.467 128 128 128h469.333c25.6 0 42.667-17.067 42.667-42.667s-17.067-42.667-42.667-42.667H213.334c-25.6 0-42.667-17.067-42.667-42.667V149.332c0-25.6 17.067-42.667 42.667-42.667h597.333c25.6 0 42.667 17.067 42.667 42.667v298.667c0 25.6 17.067 42.667 42.667 42.667s42.667-17.067 42.667-42.667V149.332c0-72.533-55.467-128-128-128z"/><glyph unicode="" glyph-name="check" d="M384 192c-12.8 0-21.333 4.267-29.867 12.8L140.8 418.133c-17.067 17.067-17.067 42.667 0 59.733s42.667 17.067 59.733 0L384 294.399l439.467 439.467c17.067 17.067 42.667 17.067 59.733 0s17.067-42.667 0-59.733L413.867 204.8C405.334 196.267 396.8 192 384 192z"/><glyph unicode="" glyph-name="chevron-down" d="M512 277.333c-12.8 0-21.333 4.267-29.867 12.8l-256 256c-17.067 17.067-17.067 42.667 0 59.733s42.667 17.067 59.733 0l226.133-226.133 226.133 226.133c17.067 17.067 42.667 17.067 59.733 0s17.067-42.667 0-59.733l-256-256c-8.533-8.533-17.067-12.8-29.867-12.8z"/><glyph unicode="" glyph-name="chevron-left" d="M640 149.333c-12.8 0-21.333 4.267-29.867 12.8l-256 256c-17.067 17.067-17.067 42.667 0 59.733l256 256c17.067 17.067 42.667 17.067 59.733 0s17.067-42.667 0-59.733L443.733 448l226.133-226.133c17.067-17.067 17.067-42.667 0-59.733-8.533-8.533-17.067-12.8-29.867-12.8z"/><glyph unicode="" glyph-name="chevron-right" d="M384 149.333c-12.8 0-21.333 4.267-29.867 12.8-17.067 17.067-17.067 42.667 0 59.733l226.133 226.133-226.133 226.133c-17.067 17.067-17.067 42.667 0 59.733s42.667 17.067 59.733 0l256-256c17.067-17.067 17.067-42.667 0-59.733l-256-256c-8.533-8.533-17.067-12.8-29.867-12.8z"/><glyph unicode="" glyph-name="chevron-up" d="M768 277.333c-12.8 0-21.333 4.267-29.867 12.8L512 516.266 285.867 290.133c-17.067-17.067-42.667-17.067-59.733 0s-17.067 42.667 0 59.733l256 256c17.067 17.067 42.667 17.067 59.733 0l256-256c17.067-17.067 17.067-42.667 0-59.733-8.533-8.533-17.067-12.8-29.867-12.8z"/><glyph unicode="" glyph-name="chevrons-down" d="M512 149.333c-12.8 0-21.333 4.267-29.867 12.8L268.8 375.466c-17.067 17.067-17.067 42.667 0 59.733s42.667 17.067 59.733 0L512 251.732l183.467 183.467c17.067 17.067 42.667 17.067 59.733 0s17.067-42.667 0-59.733L541.867 162.133c-8.533-8.533-17.067-12.8-29.867-12.8zM512 448c-12.8 0-21.333 4.267-29.867 12.8L268.8 674.133c-17.067 17.067-17.067 42.667 0 59.733s42.667 17.067 59.733 0L512 550.399l183.467 183.467c17.067 17.067 42.667 17.067 59.733 0s17.067-42.667 0-59.733L541.867 460.8C533.334 452.267 524.8 448 512 448z"/><glyph unicode="" glyph-name="chevrons-left" d="M469.333 192c-12.8 0-21.333 4.267-29.867 12.8L226.133 418.133c-17.067 17.067-17.067 42.667 0 59.733l213.333 213.333c17.067 17.067 42.667 17.067 59.733 0s17.067-42.667 0-59.733L315.732 447.999l183.467-183.467c17.067-17.067 17.067-42.667 0-59.733-8.533-8.533-17.067-12.8-29.867-12.8zM768 192c-12.8 0-21.333 4.267-29.867 12.8L524.8 418.133c-17.067 17.067-17.067 42.667 0 59.733l213.333 213.333c17.067 17.067 42.667 17.067 59.733 0s17.067-42.667 0-59.733L614.399 447.999l183.467-183.467c17.067-17.067 17.067-42.667 0-59.733-8.533-8.533-17.067-12.8-29.867-12.8z"/><glyph unicode="" glyph-name="chevrons-right" d="M554.667 192c-12.8 0-21.333 4.267-29.867 12.8-17.067 17.067-17.067 42.667 0 59.733L708.267 448 524.8 631.467c-17.067 17.067-17.067 42.667 0 59.733s42.667 17.067 59.733 0l213.333-213.333c17.067-17.067 17.067-42.667 0-59.733L584.533 204.801c-8.533-8.533-17.067-12.8-29.867-12.8zM256 192c-12.8 0-21.333 4.267-29.867 12.8-17.067 17.067-17.067 42.667 0 59.733L409.6 448 226.133 631.467c-17.067 17.067-17.067 42.667 0 59.733s42.667 17.067 59.733 0l213.333-213.333c17.067-17.067 17.067-42.667 0-59.733L285.866 204.801c-8.533-8.533-17.067-12.8-29.867-12.8z"/><glyph unicode="" glyph-name="chevrons-up" d="M725.333 448c-12.8 0-21.333 4.267-29.867 12.8L511.999 644.267 328.532 460.8c-17.067-17.067-42.667-17.067-59.733 0s-17.067 42.667 0 59.733l213.333 213.333c17.067 17.067 42.667 17.067 59.733 0l213.333-213.333c17.067-17.067 17.067-42.667 0-59.733-8.533-8.533-17.067-12.8-29.867-12.8zm0-298.667c-12.8 0-21.333 4.267-29.867 12.8L511.999 345.6 328.532 162.133c-17.067-17.067-42.667-17.067-59.733 0s-17.067 42.667 0 59.733l213.333 213.333c17.067 17.067 42.667 17.067 59.733 0l213.333-213.333c17.067-17.067 17.067-42.667 0-59.733-8.533-8.533-17.067-12.8-29.867-12.8z"/><glyph unicode="" glyph-name="chrome" d="M512-21.333C251.733-21.333 42.667 187.734 42.667 448S251.734 917.333 512 917.333 981.333 708.266 981.333 448 772.266-21.333 512-21.333zM512 832c-213.333 0-384-170.667-384-384S298.667 64 512 64s384 170.667 384 384-170.667 384-384 384zm0-597.333c-119.467 0-213.333 93.867-213.333 213.333S392.534 661.333 512 661.333 725.333 567.466 725.333 448 631.466 234.667 512 234.667zM512 576c-72.533 0-128-55.467-128-128s55.467-128 128-128 128 55.467 128 128-55.467 128-128 128zm392.533 0H512c-25.6 0-42.667 17.067-42.667 42.667S486.4 661.334 512 661.334h392.533c25.6 0 42.667-17.067 42.667-42.667S925.867 576 904.533 576zM362.667 320c-12.8 0-29.867 8.533-38.4 21.333l-192 337.067c-12.8 21.333-4.267 46.933 12.8 59.733C166.4 750.933 192 742.4 204.8 721.066l196.267-337.067c12.8-21.333 4.267-46.933-17.067-59.733-4.267-4.267-12.8-4.267-21.333-4.267zm102.4-337.067c-8.533 0-12.8 0-21.333 4.267-21.333 12.8-25.6 38.4-17.067 59.733L622.934 384c12.8 21.333 38.4 25.6 59.733 17.067 21.333-12.8 25.6-38.4 17.067-59.733L503.467 4.267c-8.533-17.067-25.6-21.333-38.4-21.333z"/><glyph unicode="" glyph-name="circle" d="M512-21.333C251.733-21.333 42.667 187.734 42.667 448S251.734 917.333 512 917.333 981.333 708.266 981.333 448 772.266-21.333 512-21.333zM512 832c-213.333 0-384-170.667-384-384S298.667 64 512 64s384 170.667 384 384-170.667 384-384 384z"/><glyph unicode="" glyph-name="clipboard" d="M768-21.333H256c-72.533 0-128 55.467-128 128V704c0 72.533 55.467 128 128 128h85.333c25.6 0 42.667-17.067 42.667-42.667s-17.067-42.667-42.667-42.667H256c-25.6 0-42.667-17.067-42.667-42.667V106.666c0-25.6 17.067-42.667 42.667-42.667h512c25.6 0 42.667 17.067 42.667 42.667v597.333c0 25.6-17.067 42.667-42.667 42.667h-85.333c-25.6 0-42.667 17.067-42.667 42.667S657.067 832 682.667 832H768c72.533 0 128-55.467 128-128V106.667c0-72.533-55.467-128-128-128zM640 661.333H384c-46.933 0-85.333 38.4-85.333 85.333v85.333c0 46.933 38.4 85.333 85.333 85.333h256c46.933 0 85.333-38.4 85.333-85.333v-85.333c0-46.933-38.4-85.333-85.333-85.333zM384 832v-85.333h256V832H384z"/><glyph unicode="" glyph-name="clock" d="M512-21.333C251.733-21.333 42.667 187.734 42.667 448S251.734 917.333 512 917.333 981.333 708.266 981.333 448 772.266-21.333 512-21.333zM512 832c-213.333 0-384-170.667-384-384S298.667 64 512 64s384 170.667 384 384-170.667 384-384 384zm128-554.667c-12.8 0-21.333 4.267-29.867 12.8l-128 128c-8.533 8.533-12.8 17.067-12.8 29.867v256c0 25.6 17.067 42.667 42.667 42.667S554.667 729.6 554.667 704V465.067l115.2-115.2c17.067-17.067 17.067-42.667 0-59.733-8.533-8.533-17.067-12.8-29.867-12.8z"/><glyph unicode="" glyph-name="cloud-drizzle" d="M341.333 21.333c-25.6 0-42.667 17.067-42.667 42.667v85.333c0 25.6 17.067 42.667 42.667 42.667S384 174.933 384 149.333V64c0-25.6-17.067-42.667-42.667-42.667zm0 256c-25.6 0-42.667 17.067-42.667 42.667v85.333c0 25.6 17.067 42.667 42.667 42.667S384 430.933 384 405.333V320c0-25.6-17.067-42.667-42.667-42.667zm341.334-256C657.067 21.333 640 38.4 640 64v85.333c0 25.6 17.067 42.667 42.667 42.667s42.667-17.067 42.667-42.667V64c0-25.6-17.067-42.667-42.667-42.667zm0 256C657.067 277.333 640 294.4 640 320v85.333c0 25.6 17.067 42.667 42.667 42.667s42.667-17.067 42.667-42.667V320c0-25.6-17.067-42.667-42.667-42.667zM512-64c-25.6 0-42.667 17.067-42.667 42.667V64c0 25.6 17.067 42.667 42.667 42.667S554.667 89.6 554.667 64v-85.333C554.667-46.933 537.6-64 512-64zm0 256c-25.6 0-42.667 17.067-42.667 42.667V320c0 25.6 17.067 42.667 42.667 42.667S554.667 345.6 554.667 320v-85.333C554.667 209.067 537.6 192 512 192zm341.333 17.067c-17.067 0-34.133 8.533-38.4 25.6-8.533 21.333 0 46.933 21.333 55.467 85.333 38.4 123.733 136.533 89.6 226.133-29.867 64-89.6 102.4-157.867 102.4h-55.467c-21.333 0-38.4 12.8-42.667 34.133-21.333 76.8-68.267 140.8-136.533 183.467-68.267 38.4-145.067 46.933-226.133 29.867-157.867-42.667-256-204.8-213.333-362.667 17.067-64 51.2-119.467 102.4-157.867 17.067-12.8 21.333-42.667 8.533-59.733s-42.667-21.333-59.733-8.533c-64 51.2-110.933 123.733-132.267 204.8-55.467 204.8 68.267 413.867 273.067 465.067 98.133 25.6 204.8 12.8 290.133-42.667 81.067-42.667 140.8-115.2 170.667-200.533h21.333c102.4 0 192-59.733 234.667-153.6 55.467-128-4.267-281.6-132.267-337.067-4.267-4.267-12.8-4.267-17.067-4.267z"/><glyph unicode="" glyph-name="cloud-lightning" d="M810.667 196.267c-21.333 0-38.4 12.8-42.667 34.133s8.533 46.933 34.133 51.2C896 298.667 955.733 392.533 934.4 482.133 917.333 563.2 849.067 618.666 768 618.666h-55.467c-21.333 0-38.4 12.8-42.667 34.133-42.667 157.867-204.8 256-362.667 213.333-76.8-21.333-140.8-68.267-179.2-136.533-42.667-72.533-55.467-149.333-34.133-230.4s72.533-145.067 145.067-187.733c21.333-8.533 29.867-34.133 17.067-55.467s-38.4-29.867-59.733-17.067C102.4 290.132 38.4 375.465 8.534 477.865c-25.6 98.133-12.8 200.533 42.667 290.133 51.2 89.6 136.533 149.333 234.667 174.933 192 51.2 392.533-59.733 456.533-243.2h25.6c119.467 0 226.133-85.333 251.733-204.8 29.867-136.533-59.733-273.067-200.533-302.933-4.267 4.267-4.267 4.267-8.533 4.267zM469.333-64c-8.533 0-17.067 4.267-25.6 8.533-21.333 12.8-25.6 38.4-12.8 59.733l128 187.733H384c-17.067 0-29.867 8.533-38.4 21.333s-8.533 29.867 0 42.667l170.667 256c12.8 21.333 38.4 25.6 59.733 12.8s25.6-38.4 12.8-59.733l-128-187.733H640c17.067 0 29.867-8.533 38.4-21.333s8.533-29.867 0-42.667l-170.667-256c-12.8-12.8-25.6-21.333-38.4-21.333z"/><glyph unicode="" glyph-name="cloud-off" d="M379.733 64c-140.8 0-268.8 76.8-337.067 196.267-51.2 89.6-59.733 192-34.133 290.133C38.4 648.533 102.4 729.6 192 780.8c21.333 12.8 46.933 8.533 59.733-12.8 8.533-21.333 4.267-46.933-17.067-59.733-68.267-38.4-119.467-102.4-140.8-179.2s-12.8-157.867 25.6-226.133c51.2-98.133 153.6-157.867 264.533-153.6h384c21.333 0 38.4 4.267 59.733 8.533 21.333 8.533 46.933-4.267 55.467-25.6s-4.267-46.933-25.6-55.467c-29.867-8.533-55.467-17.067-85.333-17.067H383.999c0 4.267-4.267 4.267-4.267 4.267zm584.534 132.267c-4.267 0-12.8 0-17.067 4.267-21.333 8.533-29.867 34.133-21.333 55.467 38.4 85.333-4.267 187.733-89.6 221.867-21.333 8.533-42.667 12.8-68.267 12.8h-55.467c-21.333 0-38.4 12.8-42.667 34.133-29.867 119.467-132.267 209.067-260.267 221.867-25.6 0-42.667 21.333-38.4 46.933 0 25.6 21.333 42.667 46.933 38.4 149.333-12.8 277.333-115.2 328.533-256h21.333c34.133 0 68.267-8.533 98.133-21.333 128-55.467 192-204.8 136.533-337.067-4.267-12.8-21.333-21.333-38.4-21.333zM981.333-64c-12.8 0-21.333 4.267-29.867 12.8L12.799 887.467c-17.067 17.067-17.067 42.667 0 59.733s42.667 17.067 59.733 0L1011.199 8.533c17.067-17.067 17.067-42.667 0-59.733-8.533-8.533-17.067-12.8-29.867-12.8z"/><glyph unicode="" glyph-name="cloud-rain" d="M682.667 21.333C657.067 21.333 640 38.4 640 64v341.333c0 25.6 17.067 42.667 42.667 42.667s42.667-17.067 42.667-42.667V64c0-25.6-17.067-42.667-42.667-42.667zm-341.334 0c-25.6 0-42.667 17.067-42.667 42.667v341.333c0 25.6 17.067 42.667 42.667 42.667S384 430.933 384 405.333V64c0-25.6-17.067-42.667-42.667-42.667zM512-64c-25.6 0-42.667 17.067-42.667 42.667V320c0 25.6 17.067 42.667 42.667 42.667S554.667 345.6 554.667 320V-21.333C554.667-46.933 537.6-64 512-64zm341.333 273.067c-17.067 0-34.133 8.533-38.4 25.6-8.533 21.333 0 46.933 21.333 55.467 85.333 38.4 123.733 136.533 89.6 226.133-29.867 64-89.6 102.4-157.867 102.4h-55.467c-21.333 0-38.4 12.8-42.667 34.133-21.333 76.8-68.267 140.8-136.533 183.467-68.267 38.4-145.067 46.933-226.133 29.867-157.867-42.667-256-204.8-213.333-362.667 17.067-64 51.2-119.467 102.4-157.867 17.067-12.8 21.333-42.667 8.533-59.733s-42.667-21.333-59.733-8.533c-64 51.2-110.933 123.733-132.267 204.8-55.467 204.8 68.267 413.867 273.067 465.067 98.133 25.6 204.8 12.8 290.133-42.667 81.067-42.667 140.8-115.2 170.667-200.533h21.333c102.4 0 192-59.733 234.667-153.6 55.467-128-4.267-281.6-132.267-337.067-4.267-4.267-12.8-4.267-17.067-4.267z"/><glyph unicode="" glyph-name="cloud-snow" d="M853.333 166.4c-17.067 0-34.133 8.533-38.4 25.6-8.533 21.333 0 46.933 21.333 55.467 42.667 17.067 72.533 51.2 89.6 93.867s17.067 89.6-4.267 132.267c-25.6 64-85.333 102.4-153.6 102.4h-55.467c-21.333 0-38.4 12.8-42.667 34.133-21.333 76.8-68.267 140.8-136.533 183.467-68.267 38.4-145.067 46.933-226.133 29.867-157.867-42.667-256-204.8-213.333-362.667 17.067-64 51.2-119.467 102.4-157.867 17.067-12.8 21.333-42.667 8.533-59.733s-42.667-21.333-59.733-8.533c-64 51.2-110.933 123.733-132.267 204.8-55.467 204.8 68.267 413.867 273.067 465.067 98.133 25.6 204.8 12.8 290.133-42.667 81.067-42.667 140.8-115.2 170.667-200.533h21.333c102.4 0 192-59.733 234.667-153.6 25.6-64 29.867-132.267 4.267-196.267s-72.533-115.2-136.533-140.8c-4.267-4.267-12.8-4.267-17.067-4.267zm-512 68.267c-12.8 0-21.333 4.267-29.867 12.8s-12.8 17.067-12.8 29.867 4.267 21.333 12.8 29.867c17.067 17.067 42.667 17.067 59.733 0 4.267-4.267 8.533-8.533 8.533-12.8 4.267-4.267 4.267-12.8 4.267-17.067 0-12.8-4.267-21.333-12.8-29.867s-17.067-12.8-29.867-12.8zm0-170.667c-12.8 0-21.333 4.267-29.867 12.8s-12.8 17.067-12.8 29.867 4.267 21.333 12.8 29.867c17.067 17.067 42.667 17.067 59.733 0 8.533-8.533 12.8-17.067 12.8-29.867s-4.267-21.333-12.8-29.867c-8.533-8.533-17.067-12.8-29.867-12.8zM512 149.333c-12.8 0-21.333 4.267-29.867 12.8s-12.8 17.067-12.8 29.867 4.267 21.333 12.8 29.867c4.267 4.267 8.533 8.533 12.8 8.533 17.067 8.533 34.133 4.267 46.933-8.533 8.533-8.533 12.8-21.333 12.8-29.867 0-12.8-4.267-21.333-12.8-29.867s-17.067-12.8-29.867-12.8zm0-170.666c-12.8 0-21.333 4.267-29.867 12.8s-12.8 17.067-12.8 29.867c0 4.267 0 12.8 4.267 17.067s4.267 8.533 8.533 12.8c17.067 17.067 42.667 17.067 59.733 0 8.533-8.533 12.8-21.333 12.8-29.867 0-12.8-4.267-21.333-12.8-29.867s-17.067-12.8-29.867-12.8zm170.667 256c-4.267 0-12.8 0-17.067 4.267s-8.533 4.267-12.8 8.533C644.267 256 640 264.534 640 277.334s4.267 21.333 12.8 29.867c8.533 8.533 25.6 12.8 38.4 12.8 4.267 0 4.267 0 8.533-4.267 4.267 0 4.267 0 8.533-4.267 0 0 4.267-4.267 8.533-4.267 8.533-8.533 12.8-17.067 12.8-29.867s-4.267-21.333-12.8-29.867c-12.8-8.533-21.333-12.8-34.133-12.8zm0-170.667c-12.8 0-21.333 4.267-29.867 12.8S640 93.867 640 106.667c0 4.267 0 12.8 4.267 17.067 0 4.267 4.267 8.533 8.533 12.8 8.533 8.533 25.6 12.8 38.4 12.8 4.267 0 4.267 0 8.533-4.267 4.267 0 4.267 0 8.533-4.267 0 0 4.267-4.267 8.533-4.267 8.533-8.533 12.8-21.333 12.8-29.867 0-12.8-4.267-21.333-12.8-29.867-12.8-8.533-21.333-12.8-34.133-12.8z"/><glyph unicode="" glyph-name="cloud" d="M384 64C209.067 64 55.467 183.467 12.8 354.133c-25.6 98.133-12.8 204.8 42.667 290.133 51.2 89.6 136.533 149.333 234.667 174.933s200.533 12.8 290.133-42.667c76.8-42.667 136.533-115.2 166.4-200.533H768c140.8 0 256-115.2 256-256s-115.2-256-256-256H384zm0 682.667c-25.6 0-51.2-4.267-76.8-8.533-76.8-21.333-140.8-68.267-179.2-136.533S76.8 452.268 98.133 375.468C128 243.201 247.466 149.335 384 149.335h384c93.867 0 170.667 76.8 170.667 170.667S861.867 490.669 768 490.669h-55.467c-21.333 0-38.4 12.8-42.667 34.133-29.867 132.267-153.6 221.867-285.867 221.867z"/><glyph unicode="" glyph-name="codepen" d="M512-21.333c-8.533 0-17.067 4.267-21.333 8.533L64 264.533c-12.8 4.267-21.333 21.333-21.333 34.133v298.667c0 12.8 8.533 29.867 21.333 34.133l426.667 277.333c12.8 8.533 34.133 8.533 46.933 0l426.667-277.333c8.533-4.267 17.067-21.333 17.067-34.133V298.666c0-12.8-8.533-29.867-21.333-34.133L533.334-12.8c-4.267-4.267-12.8-8.533-21.333-8.533zM128 320L512 68.267 896 320v256L512 823.467 128 576V320zM512-21.333c-25.6 0-42.667 17.067-42.667 42.667v277.333c0 25.6 17.067 42.667 42.667 42.667s42.667-17.067 42.667-42.667V21.334c0-25.6-17.067-42.667-42.667-42.667zM512 256c-8.533 0-17.067 4.267-25.6 8.533L59.733 563.2C42.666 576 38.4 601.6 51.2 622.933s38.4 25.6 59.733 8.533L512 349.866l401.067 281.6c21.333 12.8 46.933 8.533 59.733-8.533 12.8-21.333 8.533-46.933-8.533-59.733L537.6 264.533C529.067 260.266 520.533 256 512 256zm426.667 0c-8.533 0-17.067 4.267-25.6 8.533L512 546.133l-401.067-281.6C89.6 251.733 64 256 51.2 273.066c-12.8 21.333-8.533 46.933 8.533 59.733L486.4 631.466c12.8 8.533 34.133 8.533 46.933 0L960 332.799c21.333-12.8 25.6-38.4 8.533-59.733-4.267-12.8-17.067-17.067-29.867-17.067zM512 554.667c-25.6 0-42.667 17.067-42.667 42.667v277.333c0 25.6 17.067 42.667 42.667 42.667s42.667-17.067 42.667-42.667V597.334c0-25.6-17.067-42.667-42.667-42.667z"/><glyph unicode="" glyph-name="command" d="M768 21.333c-93.867 0-170.667 76.8-170.667 170.667v85.333H426.666V192c0-93.867-76.8-170.667-170.667-170.667S85.332 98.133 85.332 192s76.8 170.667 170.667 170.667h85.333v170.667h-85.333c-93.867 0-170.667 76.8-170.667 170.667s76.8 170.667 170.667 170.667 170.667-76.8 170.667-170.667v-85.333h170.667v85.333c0 93.867 76.8 170.667 170.667 170.667s170.667-76.8 170.667-170.667S861.867 533.334 768 533.334h-85.333V362.667H768c93.867 0 170.667-76.8 170.667-170.667S861.867 21.333 768 21.333zm-85.333 256V192c0-46.933 38.4-85.333 85.333-85.333s85.333 38.4 85.333 85.333-38.4 85.333-85.333 85.333h-85.333zm-426.667 0c-46.933 0-85.333-38.4-85.333-85.333s38.4-85.333 85.333-85.333 85.333 38.4 85.333 85.333v85.333H256zm170.667 85.334h170.667v170.667H426.667V362.667zm256 256H768c46.933 0 85.333 38.4 85.333 85.333s-38.4 85.333-85.333 85.333-85.333-38.4-85.333-85.333v-85.333zM256 789.333c-46.933 0-85.333-38.4-85.333-85.333s38.4-85.333 85.333-85.333h85.333V704c0 46.933-38.4 85.333-85.333 85.333z"/><glyph unicode="" glyph-name="compass" d="M512-21.333C251.733-21.333 42.667 187.734 42.667 448S251.734 917.333 512 917.333 981.333 708.266 981.333 448 772.266-21.333 512-21.333zM512 832c-213.333 0-384-170.667-384-384S298.667 64 512 64s384 170.667 384 384-170.667 384-384 384zM332.8 226.133c-12.8 0-21.333 4.267-29.867 12.8-12.8 12.8-17.067 29.867-8.533 42.667L384 554.667c0 8.533 12.8 21.333 25.6 25.6l273.067 89.6c17.067 4.267 34.133 0 42.667-8.533 12.8-12.8 17.067-29.867 8.533-42.667l-89.6-273.067c-4.267-12.8-12.8-21.333-25.6-25.6L345.6 230.4c-4.267-4.267-8.533-4.267-12.8-4.267zm123.733 277.334L401.066 332.8l170.667 55.467L627.2 558.934l-170.667-55.467z"/><glyph unicode="" glyph-name="copy" d="M853.333-21.333h-384c-72.533 0-128 55.467-128 128v384c0 72.533 55.467 128 128 128h384c72.533 0 128-55.467 128-128v-384c0-72.533-55.467-128-128-128zm-384 554.666c-25.6 0-42.667-17.067-42.667-42.667v-384c0-25.6 17.067-42.667 42.667-42.667h384c25.6 0 42.667 17.067 42.667 42.667v384c0 25.6-17.067 42.667-42.667 42.667h-384zm-256-256h-42.667c-72.533 0-128 55.467-128 128v384c0 72.533 55.467 128 128 128h384c72.533 0 128-55.467 128-128v-42.667c0-25.6-17.067-42.667-42.667-42.667s-42.667 17.067-42.667 42.667v42.667c0 25.6-17.067 42.667-42.667 42.667h-384c-25.6 0-42.667-17.067-42.667-42.667v-384c0-25.6 17.067-42.667 42.667-42.667h42.667c25.6 0 42.667-17.067 42.667-42.667s-17.067-42.667-42.667-42.667z"/><glyph unicode="" glyph-name="corner-down-left" d="M384 64c-12.8 0-21.333 4.267-29.867 12.8L140.8 290.133c-17.067 17.067-17.067 42.667 0 59.733l213.333 213.333c17.067 17.067 42.667 17.067 59.733 0s17.067-42.667 0-59.733L230.399 319.999l183.467-183.467c17.067-17.067 17.067-42.667 0-59.733-8.533-8.533-17.067-12.8-29.867-12.8zm298.667 213.333h-512C145.067 277.333 128 294.4 128 320s17.067 42.667 42.667 42.667h512c72.533 0 128 55.467 128 128v298.667c0 25.6 17.067 42.667 42.667 42.667s42.667-17.067 42.667-42.667V490.667c0-119.467-93.867-213.333-213.333-213.333z"/><glyph unicode="" glyph-name="corner-down-right" d="M640 64c-12.8 0-21.333 4.267-29.867 12.8-17.067 17.067-17.067 42.667 0 59.733L793.6 320 610.133 503.467c-17.067 17.067-17.067 42.667 0 59.733s42.667 17.067 59.733 0l213.333-213.333c17.067-17.067 17.067-42.667 0-59.733L669.866 76.801c-8.533-8.533-17.067-12.8-29.867-12.8zm213.333 213.333h-512C221.866 277.333 128 371.2 128 490.666v298.667c0 25.6 17.067 42.667 42.667 42.667s42.667-17.067 42.667-42.667V490.666c0-72.533 55.467-128 128-128h512c25.6 0 42.667-17.067 42.667-42.667s-17.067-42.667-42.667-42.667z"/><glyph unicode="" glyph-name="corner-left-down" d="M384 64c-12.8 0-21.333 4.267-29.867 12.8L140.8 290.133c-17.067 17.067-17.067 42.667 0 59.733s42.667 17.067 59.733 0L384 166.399l183.467 183.467c17.067 17.067 42.667 17.067 59.733 0s17.067-42.667 0-59.733L413.867 76.8C405.334 68.267 396.8 64 384 64zm0 0c-25.6 0-42.667 17.067-42.667 42.667v512C341.333 738.134 435.2 832 554.666 832h298.667c25.6 0 42.667-17.067 42.667-42.667s-17.067-42.667-42.667-42.667H554.666c-72.533 0-128-55.467-128-128v-512c0-25.6-17.067-42.667-42.667-42.667z"/><glyph unicode="" glyph-name="corner-left-up" d="M597.333 533.333c-12.8 0-21.333 4.267-29.867 12.8L383.999 729.6 200.532 546.133c-17.067-17.067-42.667-17.067-59.733 0s-17.067 42.667 0 59.733l213.333 213.333c17.067 17.067 42.667 17.067 59.733 0l213.333-213.333c17.067-17.067 17.067-42.667 0-59.733-8.533-8.533-17.067-12.8-29.867-12.8zM853.333 64H554.666c-119.467 0-213.333 93.867-213.333 213.333v512C341.333 814.933 358.4 832 384 832s42.667-17.067 42.667-42.667v-512c0-72.533 55.467-128 128-128h298.667c25.6 0 42.667-17.067 42.667-42.667s-17.067-42.667-42.667-42.667z"/><glyph unicode="" glyph-name="corner-right-down" d="M640 64c-12.8 0-21.333 4.267-29.867 12.8L396.8 290.133c-17.067 17.067-17.067 42.667 0 59.733s42.667 17.067 59.733 0L640 166.399l183.467 183.467c17.067 17.067 42.667 17.067 59.733 0s17.067-42.667 0-59.733L669.867 76.8C661.334 68.267 652.8 64 640 64zm0 0c-25.6 0-42.667 17.067-42.667 42.667v512c0 72.533-55.467 128-128 128H170.666c-25.6 0-42.667 17.067-42.667 42.667s17.067 42.667 42.667 42.667h298.667c119.467 0 213.333-93.867 213.333-213.333v-512c0-25.6-17.067-42.667-42.667-42.667z"/><glyph unicode="" glyph-name="corner-right-up" d="M853.333 533.333c-12.8 0-21.333 4.267-29.867 12.8L639.999 729.6 456.532 546.133c-17.067-17.067-42.667-17.067-59.733 0s-17.067 42.667 0 59.733l213.333 213.333c17.067 17.067 42.667 17.067 59.733 0l213.333-213.333c17.067-17.067 17.067-42.667 0-59.733-8.533-8.533-17.067-12.8-29.867-12.8zM469.333 64H170.666c-25.6 0-42.667 17.067-42.667 42.667s17.067 42.667 42.667 42.667h298.667c72.533 0 128 55.467 128 128v512c0 25.6 17.067 42.667 42.667 42.667s42.667-17.067 42.667-42.667v-512c0-119.467-93.867-213.333-213.333-213.333z"/><glyph unicode="" glyph-name="corner-up-left" d="M384 320c-12.8 0-21.333 4.267-29.867 12.8L140.8 546.133c-17.067 17.067-17.067 42.667 0 59.733l213.333 213.333c17.067 17.067 42.667 17.067 59.733 0s17.067-42.667 0-59.733L230.399 575.999l183.467-183.467c17.067-17.067 17.067-42.667 0-59.733-8.533-8.533-17.067-12.8-29.867-12.8zM853.333 64c-25.6 0-42.667 17.067-42.667 42.667v298.667c0 72.533-55.467 128-128 128h-512c-25.6 0-42.667 17.067-42.667 42.667s17.067 42.667 42.667 42.667h512c119.467 0 213.333-93.867 213.333-213.333V106.668c0-25.6-17.067-42.667-42.667-42.667z"/><glyph unicode="" glyph-name="corner-up-right" d="M640 320c-12.8 0-21.333 4.267-29.867 12.8-17.067 17.067-17.067 42.667 0 59.733L793.6 576 610.133 759.467c-17.067 17.067-17.067 42.667 0 59.733s42.667 17.067 59.733 0l213.333-213.333c17.067-17.067 17.067-42.667 0-59.733L669.866 332.801c-8.533-8.533-17.067-12.8-29.867-12.8zM170.667 64C145.067 64 128 81.067 128 106.667v298.667c0 119.467 93.867 213.333 213.333 213.333h512C878.933 618.667 896 601.6 896 576s-17.067-42.667-42.667-42.667h-512c-72.533 0-128-55.467-128-128V106.666c0-25.6-17.067-42.667-42.667-42.667z"/><glyph unicode="" glyph-name="cpu" d="M768 64H256c-72.533 0-128 55.467-128 128v512c0 72.533 55.467 128 128 128h512c72.533 0 128-55.467 128-128V192c0-72.533-55.467-128-128-128zM256 746.667c-25.6 0-42.667-17.067-42.667-42.667V192c0-25.6 17.067-42.667 42.667-42.667h512c25.6 0 42.667 17.067 42.667 42.667v512c0 25.6-17.067 42.667-42.667 42.667H256zm384-469.334H384c-25.6 0-42.667 17.067-42.667 42.667v256c0 25.6 17.067 42.667 42.667 42.667h256c25.6 0 42.667-17.067 42.667-42.667V320c0-25.6-17.067-42.667-42.667-42.667zm-213.333 85.334h170.667v170.667H426.667V362.667zm-42.667 384c-25.6 0-42.667 17.067-42.667 42.667v128c0 25.6 17.067 42.667 42.667 42.667s42.667-17.067 42.667-42.667v-128c0-25.6-17.067-42.667-42.667-42.667zm256 0c-25.6 0-42.667 17.067-42.667 42.667v128c0 25.6 17.067 42.667 42.667 42.667s42.667-17.067 42.667-42.667v-128c0-25.6-17.067-42.667-42.667-42.667zM384-64c-25.6 0-42.667 17.067-42.667 42.667v128c0 25.6 17.067 42.667 42.667 42.667s42.667-17.067 42.667-42.667v-128C426.667-46.933 409.6-64 384-64zm256 0c-25.6 0-42.667 17.067-42.667 42.667v128c0 25.6 17.067 42.667 42.667 42.667s42.667-17.067 42.667-42.667v-128C682.667-46.933 665.6-64 640-64zm341.333 597.333h-128c-25.6 0-42.667 17.067-42.667 42.667s17.067 42.667 42.667 42.667h128c25.6 0 42.667-17.067 42.667-42.667s-17.067-42.667-42.667-42.667zm0-213.333h-128c-25.6 0-42.667 17.067-42.667 42.667s17.067 42.667 42.667 42.667h128c25.6 0 42.667-17.067 42.667-42.667S1006.933 320 981.333 320zM170.667 533.333h-128C17.067 533.333 0 550.4 0 576s17.067 42.667 42.667 42.667h128c25.6 0 42.667-17.067 42.667-42.667s-17.067-42.667-42.667-42.667zm0-213.333h-128C17.067 320 0 337.067 0 362.667s17.067 42.667 42.667 42.667h128c25.6 0 42.667-17.067 42.667-42.667S196.267 320 170.667 320z"/><glyph unicode="" glyph-name="credit-card" d="M896 64H128C55.467 64 0 119.467 0 192v512c0 72.533 55.467 128 128 128h768c72.533 0 128-55.467 128-128V192c0-72.533-55.467-128-128-128zM128 746.667c-25.6 0-42.667-17.067-42.667-42.667V192c0-25.6 17.067-42.667 42.667-42.667h768c25.6 0 42.667 17.067 42.667 42.667v512c0 25.6-17.067 42.667-42.667 42.667H128zm853.333-256H42.666c-25.6 0-42.667 17.067-42.667 42.667s17.067 42.667 42.667 42.667h938.667c25.6 0 42.667-17.067 42.667-42.667s-17.067-42.667-42.667-42.667z"/><glyph unicode="" glyph-name="crosshair" d="M512-21.333C251.733-21.333 42.667 187.734 42.667 448S251.734 917.333 512 917.333 981.333 708.266 981.333 448 772.266-21.333 512-21.333zM512 832c-213.333 0-384-170.667-384-384S298.667 64 512 64s384 170.667 384 384-170.667 384-384 384zm426.667-426.667H768c-25.6 0-42.667 17.067-42.667 42.667S742.4 490.667 768 490.667h170.667c25.6 0 42.667-17.067 42.667-42.667s-17.067-42.667-42.667-42.667zm-682.667 0H85.333c-25.6 0-42.667 17.067-42.667 42.667s17.067 42.667 42.667 42.667H256c25.6 0 42.667-17.067 42.667-42.667S281.6 405.333 256 405.333zm256 256c-25.6 0-42.667 17.067-42.667 42.667v170.667c0 25.6 17.067 42.667 42.667 42.667s42.667-17.067 42.667-42.667V704c0-25.6-17.067-42.667-42.667-42.667zm0-682.666c-25.6 0-42.667 17.067-42.667 42.667v170.667c0 25.6 17.067 42.667 42.667 42.667s42.667-17.067 42.667-42.667V21.334c0-25.6-17.067-42.667-42.667-42.667z"/><glyph unicode="" glyph-name="delete" d="M896 64H341.333c-12.8 0-25.6 4.267-34.133 12.8L8.533 418.133c-12.8 17.067-12.8 38.4 0 55.467L307.2 814.933c8.533 12.8 21.333 17.067 34.133 17.067H896c72.533 0 128-55.467 128-128V192c0-72.533-55.467-128-128-128zm-533.333 85.333H896c25.6 0 42.667 17.067 42.667 42.667v512c0 25.6-17.067 42.667-42.667 42.667H362.667L102.4 448l260.267-298.667zm149.333 128c-12.8 0-21.333 4.267-29.867 12.8-17.067 17.067-17.067 42.667 0 59.733l256 256c17.067 17.067 42.667 17.067 59.733 0s17.067-42.667 0-59.733l-256-256c-8.533-8.533-17.067-12.8-29.867-12.8zm256 0c-12.8 0-21.333 4.267-29.867 12.8l-256 256c-17.067 17.067-17.067 42.667 0 59.733s42.667 17.067 59.733 0l256-256c17.067-17.067 17.067-42.667 0-59.733-8.533-8.533-17.067-12.8-29.867-12.8z"/><glyph unicode="" glyph-name="disc" d="M512-21.333C251.733-21.333 42.667 187.734 42.667 448S251.734 917.333 512 917.333 981.333 708.266 981.333 448 772.266-21.333 512-21.333zM512 832c-213.333 0-384-170.667-384-384S298.667 64 512 64s384 170.667 384 384-170.667 384-384 384zm0-554.667c-93.867 0-170.667 76.8-170.667 170.667S418.133 618.667 512 618.667 682.667 541.867 682.667 448 605.867 277.333 512 277.333zm0 256c-46.933 0-85.333-38.4-85.333-85.333s38.4-85.333 85.333-85.333 85.333 38.4 85.333 85.333-38.4 85.333-85.333 85.333z"/><glyph unicode="" glyph-name="download-cloud" d="M512 21.333c-12.8 0-21.333 4.267-29.867 12.8L311.466 204.8c-17.067 17.067-17.067 42.667 0 59.733s42.667 17.067 59.733 0l140.8-140.8 140.8 140.8c17.067 17.067 42.667 17.067 59.733 0s17.067-42.667 0-59.733L541.865 34.133c-8.533-8.533-17.067-12.8-29.867-12.8zm0 0c-25.6 0-42.667 17.067-42.667 42.667v384c0 25.6 17.067 42.667 42.667 42.667S554.667 473.6 554.667 448V64c0-25.6-17.067-42.667-42.667-42.667zm379.733 123.734c-12.8 0-25.6 4.267-34.133 17.067-12.8 21.333-8.533 46.933 8.533 59.733 38.4 25.6 64 64 68.267 110.933s-4.267 89.6-29.867 128c-29.867 46.933-85.333 72.533-140.8 72.533h-55.467c-21.333 0-38.4 12.8-42.667 34.133-42.667 157.867-204.8 256-362.667 213.333s-256-204.8-213.333-362.667c12.8-46.933 34.133-89.6 64-123.733 17.067-17.067 12.8-42.667-4.267-59.733s-42.667-12.8-59.733 4.267c-38.4 46.933-68.267 102.4-85.333 157.867-46.933 204.8 76.8 413.867 285.867 465.067 192 51.2 392.533-55.467 456.533-243.2h21.333c85.333 0 162.133-42.667 209.067-106.667 38.4-55.467 55.467-123.733 42.667-192S972.8 192 913.066 153.6c-4.267-4.267-12.8-8.533-21.333-8.533z"/><glyph unicode="" glyph-name="download" d="M810.667-21.333H213.334c-72.533 0-128 55.467-128 128v128c0 25.6 17.067 42.667 42.667 42.667s42.667-17.067 42.667-42.667v-128c0-25.6 17.067-42.667 42.667-42.667h597.333c25.6 0 42.667 17.067 42.667 42.667v128c0 25.6 17.067 42.667 42.667 42.667s42.667-17.067 42.667-42.667v-128c0-72.533-55.467-128-128-128zM512 234.667c-12.8 0-21.333 4.267-29.867 12.8L311.466 418.134c-17.067 17.067-17.067 42.667 0 59.733s42.667 17.067 59.733 0l140.8-140.8 140.8 140.8c17.067 17.067 42.667 17.067 59.733 0s17.067-42.667 0-59.733L541.865 247.467c-8.533-8.533-17.067-12.8-29.867-12.8zm0 0c-25.6 0-42.667 17.067-42.667 42.667v597.333c0 25.6 17.067 42.667 42.667 42.667s42.667-17.067 42.667-42.667V277.334c0-25.6-17.067-42.667-42.667-42.667z"/><glyph unicode="" glyph-name="droplet" d="M512-21.333c-102.4 0-200.533 38.4-273.067 110.933S128 260.267 128 362.667 166.4 563.2 238.933 635.734l243.2 238.933c8.533 8.533 17.067 12.8 29.867 12.8s21.333-4.267 29.867-12.8l243.2-243.2C934.4 482.134 934.4 238.934 785.067 89.6 712.534 17.067 614.4-21.333 512-21.333zm0 806.4L302.933 571.734c-59.733-55.467-89.6-128-89.6-209.067s29.867-153.6 89.6-209.067c115.2-115.2 307.2-115.2 422.4 0s115.2 307.2 0 422.4L512 785.067z"/><glyph unicode="" glyph-name="edit-2" d="M341.333 21.333H128C102.4 21.333 85.333 38.4 85.333 64v213.333c0 12.8 4.267 21.333 12.8 29.867L652.8 861.867c17.067 17.067 42.667 17.067 59.733 0l213.333-213.333c17.067-17.067 17.067-42.667 0-59.733L371.199 34.134c-8.533-8.533-17.067-12.8-29.867-12.8zm-170.666 85.334h153.6l512 512-153.6 153.6-512-512v-153.6z"/><glyph unicode="" glyph-name="edit-3" d="M298.667 192H128c-25.6 0-42.667 17.067-42.667 42.667v170.667c0 12.8 4.267 21.333 12.8 29.867l469.333 469.333c17.067 17.067 42.667 17.067 59.733 0l170.667-170.667c17.067-17.067 17.067-42.667 0-59.733L328.533 204.801c-8.533-8.533-17.067-12.8-29.867-12.8zm-128 85.333H281.6L708.267 704 597.334 814.933 170.667 388.266V277.333zM896-21.333H128c-25.6 0-42.667 17.067-42.667 42.667S102.4 64.001 128 64.001h768c25.6 0 42.667-17.067 42.667-42.667S921.6-21.333 896-21.333z"/><glyph unicode="" glyph-name="edit" d="M768-21.333H170.667c-72.533 0-128 55.467-128 128V704c0 72.533 55.467 128 128 128H396.8c25.6 0 42.667-17.067 42.667-42.667S422.4 746.666 396.8 746.666H170.667c-25.6 0-42.667-17.067-42.667-42.667V106.666c0-25.6 17.067-42.667 42.667-42.667H768c25.6 0 42.667 17.067 42.667 42.667v226.133c0 25.6 17.067 42.667 42.667 42.667s42.667-17.067 42.667-42.667V106.666c0-72.533-55.467-128-128-128zm-256 256H341.333c-25.6 0-42.667 17.067-42.667 42.667v170.667c0 12.8 4.267 21.333 12.8 29.867l426.667 426.667c17.067 17.067 42.667 17.067 59.733 0l170.667-170.667c17.067-17.067 17.067-42.667 0-59.733L541.866 247.468c-8.533-8.533-17.067-12.8-29.867-12.8zM384 320h110.933l384 384L768 814.933l-384-384V320z"/><glyph unicode="" glyph-name="external-link" d="M682.667 21.333H213.334c-72.533 0-128 55.467-128 128v469.333c0 72.533 55.467 128 128 128h256c25.6 0 42.667-17.067 42.667-42.667s-17.067-42.667-42.667-42.667h-256c-25.6 0-42.667-17.067-42.667-42.667V149.332c0-25.6 17.067-42.667 42.667-42.667h469.333c25.6 0 42.667 17.067 42.667 42.667v256c0 25.6 17.067 42.667 42.667 42.667s42.667-17.067 42.667-42.667v-256c0-72.533-55.467-128-128-128zm213.333 512c-25.6 0-42.667 17.067-42.667 42.667v213.333H640c-25.6 0-42.667 17.067-42.667 42.667S614.4 874.667 640 874.667h256c25.6 0 42.667-17.067 42.667-42.667V576c0-25.6-17.067-42.667-42.667-42.667zM426.667 320c-12.8 0-21.333 4.267-29.867 12.8-17.067 17.067-17.067 42.667 0 59.733l469.333 469.333c17.067 17.067 42.667 17.067 59.733 0s17.067-42.667 0-59.733L456.533 332.8C448 324.267 439.466 320 426.666 320z"/><glyph unicode="" glyph-name="eye-off" d="M512 64C192 64 12.8 413.867 4.267 430.933c-4.267 12.8-4.267 25.6 0 38.4 55.467 102.4 132.267 192 230.4 264.533 17.067 17.067 42.667 12.8 59.733-8.533s12.8-46.933-8.533-59.733C204.8 605.867 140.8 533.333 89.6 448c38.4-68.267 192-298.667 422.4-298.667 81.067 0 162.133 29.867 226.133 81.067 17.067 12.8 46.933 8.533 59.733-8.533s8.533-46.933-8.533-59.733c-76.8-64-174.933-98.133-277.333-98.133zm375.467 204.8c-8.533 0-21.333 4.267-25.6 8.533C844.8 294.4 840.534 320 857.6 337.066c29.867 34.133 55.467 68.267 76.8 106.667C896 512 742.4 742.4 512 742.4c-25.6 0-55.467-4.267-81.067-8.533-21.333 0-42.667 12.8-51.2 34.133-4.267 25.6 8.533 46.933 34.133 51.2 29.867 8.533 64 12.8 98.133 12.8 320 0 499.2-349.867 507.733-366.933 4.267-12.8 4.267-25.6 0-38.4-25.6-51.2-59.733-98.133-98.133-145.067-8.533-8.533-21.333-12.8-34.133-12.8zm-379.734 4.267c-42.667 0-85.333 17.067-115.2 46.933-34.133 29.867-51.2 72.533-55.467 119.467s17.067 89.6 46.933 123.733l8.533 8.533c17.067 17.067 42.667 12.8 59.733-4.267s17.067-42.667-4.267-59.733l-4.267-4.267c-17.067-17.067-25.6-38.4-21.333-59.733 0-21.333 8.533-42.667 25.6-59.733s38.4-25.6 59.733-21.333c21.333 0 42.667 8.533 59.733 25.6s42.667 17.067 59.733 0c17.067-17.067 17.067-42.667 0-59.733-29.867-34.133-72.533-51.2-119.467-55.467 4.267 0 4.267 0 0 0zM981.333-64c-12.8 0-21.333 4.267-29.867 12.8L12.799 887.467c-17.067 17.067-17.067 42.667 0 59.733s42.667 17.067 59.733 0L1011.199 8.533c17.067-17.067 17.067-42.667 0-59.733-8.533-8.533-17.067-12.8-29.867-12.8z"/><glyph unicode="" glyph-name="eye" d="M512 64C192 64 12.8 413.867 4.267 430.933c-4.267 12.8-4.267 25.6 0 38.4C12.8 482.133 192 832 512 832s499.2-349.867 507.733-366.933c4.267-12.8 4.267-25.6 0-38.4C1011.2 413.867 832 64 512 64zM89.6 448c38.4-68.267 192-298.667 422.4-298.667S891.733 379.733 934.4 448C896 516.267 742.4 746.667 512 746.667S132.267 516.267 89.6 448zM512 277.333c-93.867 0-170.667 76.8-170.667 170.667S418.133 618.667 512 618.667 682.667 541.867 682.667 448 605.867 277.333 512 277.333zm0 256c-46.933 0-85.333-38.4-85.333-85.333s38.4-85.333 85.333-85.333 85.333 38.4 85.333 85.333-38.4 85.333-85.333 85.333z"/><glyph unicode="" glyph-name="facebook" d="M597.333-21.333H426.666c-25.6 0-42.667 17.067-42.667 42.667v298.667h-85.333c-25.6 0-42.667 17.067-42.667 42.667v170.667c0 25.6 17.067 42.667 42.667 42.667h85.333v85.333c0 140.8 115.2 256 256 256h128c25.6 0 42.667-17.067 42.667-42.667V704.001c0-25.6-17.067-42.667-42.667-42.667h-128v-85.333h128c12.8 0 25.6-4.267 34.133-17.067s8.533-21.333 8.533-34.133l-42.667-170.667c-4.267-17.067-21.333-34.133-42.667-34.133h-85.333V21.334c0-25.6-17.067-42.667-42.667-42.667zM469.333 64h85.333v298.667c0 25.6 17.067 42.667 42.667 42.667H691.2l21.333 85.333h-115.2c-25.6 0-42.667 17.067-42.667 42.667v128c0 46.933 38.4 85.333 85.333 85.333h85.333V832h-85.333c-93.867 0-170.667-76.8-170.667-170.667v-128c0-25.6-17.067-42.667-42.667-42.667h-85.333v-85.333h85.333c25.6 0 42.667-17.067 42.667-42.667V63.999z"/><glyph unicode="" glyph-name="fast-forward" d="M554.667 106.667c-4.267 0-12.8 0-17.067 4.267-17.067 8.533-25.6 21.333-25.6 38.4v597.333c0 17.067 8.533 29.867 25.6 38.4 12.8 8.533 34.133 4.267 46.933-4.267l384-298.667C977.066 473.6 985.6 460.8 985.6 448s-4.267-25.6-17.067-34.133l-384-298.667c-12.8-4.267-21.333-8.533-29.867-8.533zm42.666 554.666V234.666L870.4 447.999 597.333 661.332zm-512-554.666c-4.267 0-12.8 0-17.067 4.267-17.067 8.533-25.6 21.333-25.6 38.4v597.333c0 17.067 8.533 29.867 25.6 38.4 12.8 8.533 29.867 4.267 42.667-4.267l384-298.667C503.466 473.6 512 460.8 512 448s-4.267-25.6-17.067-34.133l-384-298.667c-8.533-4.267-17.067-8.533-25.6-8.533zM128 661.333V234.666l273.067 213.333L128 661.332z"/><glyph unicode="" glyph-name="feather" d="M576 106.667H213.333c-25.6 0-42.667 17.067-42.667 42.667v362.667c0 12.8 4.267 21.333 12.8 29.867l285.867 290.133c115.2 115.2 307.2 115.2 422.4 0s115.2-307.2 0-422.4L605.866 119.468c-8.533-8.533-17.067-12.8-29.867-12.8zM256 192h302.933L832 469.333c85.333 85.333 85.333 217.6 0 302.933s-217.6 85.333-302.933 0L256 494.933V192zM85.333-21.333c-12.8 0-21.333 4.267-29.867 12.8-17.067 17.067-17.067 42.667 0 59.733l597.333 597.333c17.067 17.067 42.667 17.067 59.733 0s17.067-42.667 0-59.733L115.199-8.533c-8.533-8.533-17.067-12.8-29.867-12.8zm640 298.666H384c-25.6 0-42.667 17.067-42.667 42.667S358.4 362.667 384 362.667h341.333C750.933 362.667 768 345.6 768 320s-17.067-42.667-42.667-42.667z"/><glyph unicode="" glyph-name="file-minus" d="M768-21.333H256c-72.533 0-128 55.467-128 128v682.667c0 72.533 55.467 128 128 128h341.333c12.8 0 21.333-4.267 29.867-12.8l256-256c8.533-8.533 12.8-17.067 12.8-29.867v-512c0-72.533-55.467-128-128-128zM256 832c-25.6 0-42.667-17.067-42.667-42.667V106.666c0-25.6 17.067-42.667 42.667-42.667h512c25.6 0 42.667 17.067 42.667 42.667v494.933l-230.4 230.4H256zm597.333-256h-256c-25.6 0-42.667 17.067-42.667 42.667v256c0 25.6 17.067 42.667 42.667 42.667S640 900.267 640 874.667V661.334h213.333c25.6 0 42.667-17.067 42.667-42.667S878.933 576 853.333 576zM640 277.333H384c-25.6 0-42.667 17.067-42.667 42.667S358.4 362.667 384 362.667h256c25.6 0 42.667-17.067 42.667-42.667S665.6 277.333 640 277.333z"/><glyph unicode="" glyph-name="file-plus" d="M768-21.333H256c-72.533 0-128 55.467-128 128v682.667c0 72.533 55.467 128 128 128h341.333c12.8 0 21.333-4.267 29.867-12.8l256-256c8.533-8.533 12.8-17.067 12.8-29.867v-512c0-72.533-55.467-128-128-128zM256 832c-25.6 0-42.667-17.067-42.667-42.667V106.666c0-25.6 17.067-42.667 42.667-42.667h512c25.6 0 42.667 17.067 42.667 42.667v494.933l-230.4 230.4H256zm597.333-256h-256c-25.6 0-42.667 17.067-42.667 42.667v256c0 25.6 17.067 42.667 42.667 42.667S640 900.267 640 874.667V661.334h213.333c25.6 0 42.667-17.067 42.667-42.667S878.933 576 853.333 576zM512 149.333c-25.6 0-42.667 17.067-42.667 42.667v256c0 25.6 17.067 42.667 42.667 42.667S554.667 473.6 554.667 448V192c0-25.6-17.067-42.667-42.667-42.667zm128 128H384c-25.6 0-42.667 17.067-42.667 42.667S358.4 362.667 384 362.667h256c25.6 0 42.667-17.067 42.667-42.667S665.6 277.333 640 277.333z"/><glyph unicode="" glyph-name="file-text" d="M768-21.333H256c-72.533 0-128 55.467-128 128v682.667c0 72.533 55.467 128 128 128h341.333c12.8 0 21.333-4.267 29.867-12.8l256-256c8.533-8.533 12.8-17.067 12.8-29.867v-512c0-72.533-55.467-128-128-128zM256 832c-25.6 0-42.667-17.067-42.667-42.667V106.666c0-25.6 17.067-42.667 42.667-42.667h512c25.6 0 42.667 17.067 42.667 42.667v494.933l-230.4 230.4H256zm597.333-256h-256c-25.6 0-42.667 17.067-42.667 42.667v256c0 25.6 17.067 42.667 42.667 42.667S640 900.267 640 874.667V661.334h213.333c25.6 0 42.667-17.067 42.667-42.667S878.933 576 853.333 576zM682.667 362.667H341.334c-25.6 0-42.667 17.067-42.667 42.667s17.067 42.667 42.667 42.667h341.333c25.6 0 42.667-17.067 42.667-42.667s-17.067-42.667-42.667-42.667zm0-170.667H341.334c-25.6 0-42.667 17.067-42.667 42.667s17.067 42.667 42.667 42.667h341.333c25.6 0 42.667-17.067 42.667-42.667S708.267 192 682.667 192zm-256 341.333h-85.333c-25.6 0-42.667 17.067-42.667 42.667s17.067 42.667 42.667 42.667h85.333c25.6 0 42.667-17.067 42.667-42.667s-17.067-42.667-42.667-42.667z"/><glyph unicode="" glyph-name="file" d="M768-21.333H256c-72.533 0-128 55.467-128 128v682.667c0 72.533 55.467 128 128 128h298.667c12.8 0 21.333-4.267 29.867-12.8l298.667-298.667c8.533-8.533 12.8-17.067 12.8-29.867V106.667c0-72.533-55.467-128-128-128zM256 832c-25.6 0-42.667-17.067-42.667-42.667V106.666c0-25.6 17.067-42.667 42.667-42.667h512c25.6 0 42.667 17.067 42.667 42.667v452.267L537.6 832H256zm597.333-298.667H554.666c-25.6 0-42.667 17.067-42.667 42.667v298.667c0 25.6 17.067 42.667 42.667 42.667s42.667-17.067 42.667-42.667v-256h256C878.933 618.667 896 601.6 896 576s-17.067-42.667-42.667-42.667z"/><glyph unicode="" glyph-name="film" d="M844.8-21.333H179.2C102.4-21.333 42.667 38.4 42.667 115.2v665.6c0 76.8 59.733 136.533 136.533 136.533h665.6c76.8 0 136.533-59.733 136.533-136.533V115.2c0-76.8-59.733-136.533-136.533-136.533zM179.2 832c-29.867 0-51.2-21.333-51.2-51.2V115.2c0-29.867 21.333-51.2 51.2-51.2h665.6c29.867 0 51.2 21.333 51.2 51.2v665.6c0 29.867-21.333 51.2-51.2 51.2H179.2zM298.667-21.333c-25.6 0-42.667 17.067-42.667 42.667v853.333c0 25.6 17.067 42.667 42.667 42.667s42.667-17.067 42.667-42.667V21.334c0-25.6-17.067-42.667-42.667-42.667zm426.666 0c-25.6 0-42.667 17.067-42.667 42.667v853.333c0 25.6 17.067 42.667 42.667 42.667S768 900.267 768 874.667V21.334c0-25.6-17.067-42.667-42.667-42.667zm213.334 426.666H85.334c-25.6 0-42.667 17.067-42.667 42.667s17.067 42.667 42.667 42.667h853.333c25.6 0 42.667-17.067 42.667-42.667s-17.067-42.667-42.667-42.667zm-640 213.334H85.334c-25.6 0-42.667 17.067-42.667 42.667s17.067 42.667 42.667 42.667h213.333c25.6 0 42.667-17.067 42.667-42.667s-17.067-42.667-42.667-42.667zm0-426.667H85.334c-25.6 0-42.667 17.067-42.667 42.667s17.067 42.667 42.667 42.667h213.333c25.6 0 42.667-17.067 42.667-42.667S324.267 192 298.667 192zm640 0H725.334c-25.6 0-42.667 17.067-42.667 42.667s17.067 42.667 42.667 42.667h213.333c25.6 0 42.667-17.067 42.667-42.667S964.267 192 938.667 192zm0 426.667H725.334c-25.6 0-42.667 17.067-42.667 42.667s17.067 42.667 42.667 42.667h213.333c25.6 0 42.667-17.067 42.667-42.667s-17.067-42.667-42.667-42.667z"/><glyph unicode="" glyph-name="filter" d="M597.333 21.333c-8.533 0-12.8 0-17.067 4.267l-170.667 85.333c-17.067 8.533-25.6 21.333-25.6 38.4v264.533l-332.8 392.533c-8.533 12.8-12.8 29.867-4.267 42.667 8.533 17.067 21.333 25.6 38.4 25.6h853.333c17.067 0 29.867-8.533 38.4-25.6s4.267-34.133-4.267-46.933l-332.8-388.267V63.999c0-12.8-8.533-29.867-21.333-38.4-4.267 0-12.8-4.267-21.333-4.267zm-128 153.6l85.333-42.667v294.4c0 8.533 4.267 21.333 8.533 25.6l281.6 337.067h-665.6l281.6-332.8c8.533-8.533 8.533-17.067 8.533-25.6v-256z"/><glyph unicode="" glyph-name="flag" d="M682.667 234.667c-72.533 0-132.267 21.333-187.733 46.933-51.2 17.067-98.133 38.4-153.6 38.4-102.4 0-140.8-29.867-140.8-29.867-12.8-12.8-29.867-17.067-46.933-8.533s-25.6 21.333-25.6 38.4v512c0 12.8 4.267 21.333 12.8 29.867s64 55.467 200.533 55.467c72.533 0 132.267-21.333 187.733-46.933 51.2-17.067 98.133-38.4 153.6-38.4 102.4 0 140.8 29.867 140.8 29.867 12.8 12.8 29.867 17.067 46.933 8.533s25.6-21.333 25.6-38.4v-512c0-12.8-4.267-21.333-12.8-29.867s-64-55.467-200.533-55.467zM341.333 405.333c72.533 0 132.267-21.333 187.733-46.933 51.2-21.333 98.133-38.4 153.6-38.4 68.267 0 110.933 12.8 128 21.333v422.4c-29.867-8.533-72.533-17.067-128-17.067-72.533 0-132.267 21.333-187.733 46.933-51.2 17.067-98.133 38.4-153.6 38.4-68.267 0-110.933-12.8-128-21.333v-422.4c29.867 8.533 72.533 17.067 128 17.067zM170.667-21.333c-25.6 0-42.667 17.067-42.667 42.667v298.667c0 25.6 17.067 42.667 42.667 42.667s42.667-17.067 42.667-42.667V21.334c0-25.6-17.067-42.667-42.667-42.667z"/><glyph unicode="" glyph-name="folder" d="M853.333 21.333H170.666c-72.533 0-128 55.467-128 128v597.333c0 72.533 55.467 128 128 128h213.333c12.8 0 25.6-8.533 34.133-17.067l72.533-110.933h362.667c72.533 0 128-55.467 128-128V149.333c0-72.533-55.467-128-128-128zm-682.666 768c-25.6 0-42.667-17.067-42.667-42.667V149.333c0-25.6 17.067-42.667 42.667-42.667h682.667c25.6 0 42.667 17.067 42.667 42.667v469.333c0 25.6-17.067 42.667-42.667 42.667h-384c-12.8 0-25.6 8.533-34.133 17.067l-72.533 110.933h-192z"/><glyph unicode="" glyph-name="github" d="M682.667-21.333c-25.6 0-42.667 17.067-42.667 42.667v166.4c4.267 34.133-8.533 59.733-29.867 81.067-12.8 12.8-17.067 29.867-8.533 42.667s21.333 25.6 34.133 29.867c123.733 12.8 238.933 55.467 238.933 256 0 46.933-17.067 93.867-51.2 132.267-12.8 12.8-12.8 29.867-8.533 42.667 12.8 34.133 12.8 68.267 4.267 102.4-21.333-4.267-55.467-17.067-110.933-55.467-8.533-8.533-21.333-8.533-34.133-4.267-89.6 25.6-187.733 25.6-277.333 0-12.8-4.267-25.6-4.267-38.4 4.267-51.2 38.4-89.6 51.2-110.933 55.467-8.533-34.133-8.533-68.267 4.267-102.4 4.267-17.067 4.267-34.133-8.533-42.667-34.133-38.4-51.2-85.333-51.2-132.267 0-200.533 115.2-243.2 238.933-256 17.067 0 29.867-12.8 34.133-29.867s0-34.133-8.533-42.667c-21.333-21.333-29.867-46.933-29.867-76.8v-166.4c0-25.6-17.067-42.667-42.667-42.667S341.334.001 341.334 25.601v72.533c-128-21.333-183.467 51.2-221.867 98.133-17.067 21.333-29.867 38.4-46.933 42.667-21.333 4.267-38.4 29.867-29.867 51.2 4.267 21.333 29.867 38.4 51.2 29.867 42.667-12.8 68.267-42.667 93.867-72.533 34.133-46.933 64-81.067 153.6-64v4.267c0 25.6 4.267 55.467 12.8 76.8-119.467 25.6-247.467 102.4-247.467 328.533 0 64 21.333 123.733 59.733 170.667-17.067 59.733-12.8 115.2 12.8 170.667 4.267 12.8 12.8 21.333 25.6 25.6 17.067 4.267 72.533 12.8 187.733-59.733 93.867 21.333 192 21.333 281.6 0 110.933 72.533 170.667 64 187.733 59.733 12.8-4.267 21.333-12.8 25.6-25.6 21.333-55.467 25.6-110.933 12.8-166.4 38.4-46.933 59.733-106.667 59.733-170.667 0-243.2-145.067-307.2-247.467-332.8 8.533-25.6 12.8-55.467 12.8-81.067V21.335c0-25.6-17.067-42.667-42.667-42.667z"/><glyph unicode="" glyph-name="gitlab" d="M512-25.6c-8.533 0-17.067 4.267-25.6 8.533L34.133 311.466c-25.6 21.333-38.4 55.467-29.867 89.6l157.867 477.867c4.267 12.8 8.533 21.333 12.8 25.6 25.6 21.333 59.733 21.333 81.067 0 8.533-8.533 12.8-17.067 17.067-25.6L366.934 588.8h281.6l93.867 290.133c4.267 12.8 8.533 17.067 17.067 25.6 25.6 21.333 59.733 21.333 81.067 0 8.533-8.533 12.8-17.067 17.067-25.6l157.867-477.867c8.533-34.133-4.267-68.267-29.867-89.6L533.335-17.067c-4.267-8.533-12.8-8.533-21.333-8.533zM85.333 375.467L512 68.267l426.667 311.467-51.2 153.6L806.4 780.801l-81.067-247.467c-4.267-17.067-21.333-29.867-42.667-29.867H341.333c-17.067 0-34.133 12.8-42.667 29.867l-81.067 247.467L85.332 375.468zm0-4.267zm110.934 482.133zm584.533 0z"/><glyph unicode="" glyph-name="globe" d="M512-21.333C251.733-21.333 42.667 187.734 42.667 448S251.734 917.333 512 917.333 981.333 708.266 981.333 448 772.266-21.333 512-21.333zM512 832c-213.333 0-384-170.667-384-384S298.667 64 512 64s384 170.667 384 384-170.667 384-384 384zm426.667-426.667H85.334c-25.6 0-42.667 17.067-42.667 42.667s17.067 42.667 42.667 42.667h853.333c25.6 0 42.667-17.067 42.667-42.667s-17.067-42.667-42.667-42.667zM512-21.333c-12.8 0-21.333 4.267-29.867 12.8C366.933 115.2 302.933 277.334 298.666 448c4.267 170.667 68.267 332.8 183.467 456.533 8.533 8.533 17.067 12.8 29.867 12.8s21.333-4.267 29.867-12.8C657.067 780.8 721.067 618.666 725.334 448c-4.267-170.667-68.267-332.8-183.467-456.533-8.533-8.533-17.067-12.8-29.867-12.8zm0 827.733C430.933 704 388.267 580.267 384 448c4.267-128 46.933-256 128-358.4C593.067 192 635.733 320 640 452.267c-4.267 128-46.933 251.733-128 354.133z"/><glyph unicode="" glyph-name="grid" d="M426.667 490.667H128c-25.6 0-42.667 17.067-42.667 42.667v298.667c0 25.6 17.067 42.667 42.667 42.667h298.667c25.6 0 42.667-17.067 42.667-42.667V533.334c0-25.6-17.067-42.667-42.667-42.667zm-256 85.333H384v213.333H170.667V576zM896 490.667H597.333c-25.6 0-42.667 17.067-42.667 42.667v298.667c0 25.6 17.067 42.667 42.667 42.667H896c25.6 0 42.667-17.067 42.667-42.667V533.334c0-25.6-17.067-42.667-42.667-42.667zM640 576h213.333v213.333H640V576zM896 21.333H597.333c-25.6 0-42.667 17.067-42.667 42.667v298.667c0 25.6 17.067 42.667 42.667 42.667H896c25.6 0 42.667-17.067 42.667-42.667V64c0-25.6-17.067-42.667-42.667-42.667zm-256 85.334h213.333V320H640V106.667zM426.667 21.333H128C102.4 21.333 85.333 38.4 85.333 64v298.667c0 25.6 17.067 42.667 42.667 42.667h298.667c25.6 0 42.667-17.067 42.667-42.667V64c0-25.6-17.067-42.667-42.667-42.667zm-256 85.334H384V320H170.667V106.667z"/><glyph unicode="" glyph-name="hash" d="M853.333 533.333H170.666c-25.6 0-42.667 17.067-42.667 42.667s17.067 42.667 42.667 42.667h682.667C878.933 618.667 896 601.6 896 576s-17.067-42.667-42.667-42.667zm0-256H170.666c-25.6 0-42.667 17.067-42.667 42.667s17.067 42.667 42.667 42.667h682.667C878.933 362.667 896 345.6 896 320s-17.067-42.667-42.667-42.667zm-512-256h-4.267c-21.333 4.267-38.4 25.6-38.4 46.933l85.333 768c4.267 25.6 25.6 42.667 46.933 38.4s38.4-25.6 38.4-46.933l-85.333-768c-4.267-21.333-21.333-38.4-42.667-38.4zm256 0h-4.267c-21.333 4.267-38.4 25.6-38.4 46.933l85.333 768c4.267 21.333 25.6 38.4 46.933 38.4 21.333-4.267 38.4-25.6 38.4-46.933l-85.333-768c-4.267-21.333-21.333-38.4-42.667-38.4z"/><glyph unicode="" glyph-name="headphones" d="M896 149.333c-25.6 0-42.667 17.067-42.667 42.667v256c0 187.733-153.6 341.333-341.333 341.333S170.667 635.733 170.667 448V192c0-25.6-17.067-42.667-42.667-42.667S85.333 166.4 85.333 192v256c0 234.667 192 426.667 426.667 426.667s426.667-192 426.667-426.667V192c0-25.6-17.067-42.667-42.667-42.667zm-85.333-128H768c-72.533 0-128 55.467-128 128v128c0 72.533 55.467 128 128 128h128c25.6 0 42.667-17.067 42.667-42.667V149.333c0-72.533-55.467-128-128-128zM768 320c-25.6 0-42.667-17.067-42.667-42.667v-128c0-25.6 17.067-42.667 42.667-42.667h42.667c25.6 0 42.667 17.067 42.667 42.667V320h-85.333zM256 21.333h-42.667c-72.533 0-128 55.467-128 128v213.333c0 25.6 17.067 42.667 42.667 42.667h128c72.533 0 128-55.467 128-128v-128c0-72.533-55.467-128-128-128zM170.667 320V149.333c0-25.6 17.067-42.667 42.667-42.667h42.667c25.6 0 42.667 17.067 42.667 42.667v128c0 25.6-17.067 42.667-42.667 42.667h-85.333z"/><glyph unicode="" glyph-name="heart" d="M512 12.8c-12.8 0-21.333 4.267-29.867 12.8L106.666 401.067c-51.2 51.2-81.067 123.733-81.067 196.267s29.867 145.067 81.067 196.267 119.467 81.067 192 81.067 145.067-29.867 196.267-81.067L512 776.534l17.067 17.067c51.2 51.2 119.467 81.067 192 81.067s145.067-29.867 196.267-81.067c51.2-51.2 81.067-123.733 81.067-196.267s-29.867-145.067-81.067-196.267L541.867 25.6C533.334 17.067 524.8 12.8 512 12.8zM298.667 789.333c-46.933 0-98.133-17.067-132.267-55.467-76.8-76.8-76.8-196.267 0-273.067l345.6-345.6 345.6 345.6c38.4 38.4 55.467 85.333 55.467 136.533s-21.333 98.133-55.467 136.533c-34.133 34.133-81.067 55.467-132.267 55.467S627.2 767.999 588.8 733.865l-46.933-46.933c-17.067-17.067-42.667-17.067-59.733 0l-46.933 46.933c-34.133 38.4-85.333 55.467-136.533 55.467z"/><glyph unicode="" glyph-name="home" d="M810.667-21.333H213.334c-72.533 0-128 55.467-128 128V576c0 12.8 4.267 25.6 17.067 34.133l384 298.667c17.067 12.8 38.4 12.8 51.2 0l384-298.667c12.8-8.533 17.067-21.333 17.067-34.133V106.667c0-72.533-55.467-128-128-128zm-640 576v-448c0-25.6 17.067-42.667 42.667-42.667h597.333c25.6 0 42.667 17.067 42.667 42.667v448L512.001 819.2 170.668 554.667zM640-21.333c-25.6 0-42.667 17.067-42.667 42.667v384H426.666v-384c0-25.6-17.067-42.667-42.667-42.667s-42.667 17.067-42.667 42.667v426.667c0 25.6 17.067 42.667 42.667 42.667h256c25.6 0 42.667-17.067 42.667-42.667V21.334c0-25.6-17.067-42.667-42.667-42.667z"/><glyph unicode="" glyph-name="image" d="M810.667 21.333H213.334c-72.533 0-128 55.467-128 128v597.333c0 72.533 55.467 128 128 128h597.333c72.533 0 128-55.467 128-128V149.333c0-72.533-55.467-128-128-128zm-597.334 768c-25.6 0-42.667-17.067-42.667-42.667V149.333c0-25.6 17.067-42.667 42.667-42.667h597.333c25.6 0 42.667 17.067 42.667 42.667v597.333c0 25.6-17.067 42.667-42.667 42.667H213.333zm149.334-298.666C302.934 490.667 256 537.6 256 597.334s46.933 106.667 106.667 106.667 106.667-46.933 106.667-106.667-46.933-106.667-106.667-106.667zm0 128c-12.8 0-21.333-8.533-21.333-21.333s8.533-21.333 21.333-21.333S384 584.534 384 597.334s-8.533 21.333-21.333 21.333zM213.333 21.333c-12.8 0-21.333 4.267-29.867 12.8-17.067 17.067-17.067 42.667 0 59.733l469.333 469.333c17.067 17.067 42.667 17.067 59.733 0l213.333-213.333c17.067-17.067 17.067-42.667 0-59.733s-42.667-17.067-59.733 0L682.665 473.6 243.198 34.133c-8.533-8.533-17.067-12.8-29.867-12.8z"/><glyph unicode="" glyph-name="inbox" d="M597.333 234.667H426.666c-12.8 0-25.6 8.533-34.133 17.067L320 362.667H85.333c-25.6 0-42.667 17.067-42.667 42.667s17.067 42.667 42.667 42.667h256c12.8 0 25.6-8.533 34.133-17.067l72.533-110.933h123.733l72.533 110.933c8.533 12.8 21.333 17.067 34.133 17.067h256c25.6 0 42.667-17.067 42.667-42.667s-17.067-42.667-42.667-42.667H699.731l-72.533-110.933c-4.267-8.533-17.067-17.067-29.867-17.067zM853.333 64H170.666c-72.533 0-128 55.467-128 128v213.333c0 4.267 0 12.8 4.267 17.067l149.333 332.8c17.067 46.933 64 76.8 115.2 76.8h401.067c51.2 0 98.133-29.867 115.2-76.8l149.333-332.8c4.267-4.267 4.267-12.8 4.267-17.067V192c0-72.533-55.467-128-128-128zM128 396.8V192c0-25.6 17.067-42.667 42.667-42.667h682.667c25.6 0 42.667 17.067 42.667 42.667v204.8L750.934 721.067c-4.267 17.067-21.333 25.6-38.4 25.6H311.467c-17.067 0-34.133-8.533-38.4-25.6L128 396.8zm106.667 341.333z"/><glyph unicode="" glyph-name="info" d="M512-21.333C251.733-21.333 42.667 187.734 42.667 448S251.734 917.333 512 917.333 981.333 708.266 981.333 448 772.266-21.333 512-21.333zM512 832c-213.333 0-384-170.667-384-384S298.667 64 512 64s384 170.667 384 384-170.667 384-384 384zm0-597.333c-25.6 0-42.667 17.067-42.667 42.667v170.667c0 25.6 17.067 42.667 42.667 42.667s42.667-17.067 42.667-42.667V277.334c0-25.6-17.067-42.667-42.667-42.667zM512 576c-4.267 0-12.8 0-17.067 4.267-4.267 0-8.533 4.267-12.8 8.533 0 0-4.267 4.267-4.267 8.533s-4.267 4.267-4.267 8.533c0 4.267 0 4.267-4.267 8.533v8.533c0 12.8 4.267 21.333 12.8 29.867 4.267 4.267 8.533 8.533 12.8 8.533h25.6c4.267 0 4.267 0 8.533-4.267 4.267 0 4.267 0 8.533-4.267l4.267-4.267c8.533-8.533 12.8-17.067 12.8-29.867s-4.267-21.333-12.8-29.867c-4.267 0-4.267-4.267-4.267-4.267-4.267 0-4.267-4.267-8.533-4.267s-4.267-4.267-8.533-4.267h-8.533z"/><glyph unicode="" glyph-name="instagram" d="M725.333-21.333H298.666c-140.8 0-256 115.2-256 256v426.667c0 140.8 115.2 256 256 256h426.667c140.8 0 256-115.2 256-256V234.667c0-140.8-115.2-256-256-256zM298.667 832C204.8 832 128 755.2 128 661.333V234.666c0-93.867 76.8-170.667 170.667-170.667h426.667c93.867 0 170.667 76.8 170.667 170.667v426.667c0 93.867-76.8 170.667-170.667 170.667H298.667zM512 234.667c-102.4 0-196.267 76.8-209.067 183.467-17.067 115.2 64 226.133 179.2 243.2 21.333 4.267 42.667 4.267 64 0 93.867-12.8 166.4-85.333 179.2-179.2 17.067-115.2-64-226.133-179.2-243.2-12.8 0-21.333-4.267-34.133-4.267zM512 576h-17.067c-68.267-8.533-119.467-76.8-106.667-145.067 8.533-68.267 76.8-119.467 145.067-106.667 34.133 4.267 64 21.333 85.333 51.2s29.867 59.733 25.6 93.867c-8.533 55.467-51.2 98.133-106.667 106.667h-25.6zm234.667 64c-12.8 0-21.333 4.267-29.867 12.8S704 669.867 704 682.667s4.267 21.333 12.8 29.867c17.067 17.067 42.667 17.067 59.733 0 8.533-8.533 12.8-21.333 12.8-29.867 0-12.8-4.267-21.333-12.8-29.867S759.466 640 746.666 640z"/><glyph unicode="" glyph-name="layers" d="M512 405.333c-8.533 0-12.8 0-17.067 4.267L68.266 622.933c-17.067 8.533-25.6 21.333-25.6 38.4s8.533 29.867 25.6 38.4l426.667 213.333c12.8 4.267 25.6 4.267 38.4 0L960 699.733c12.8-8.533 21.333-21.333 21.333-38.4s-8.533-29.867-25.6-38.4L529.066 409.6c-4.267-4.267-8.533-4.267-17.067-4.267zm-332.8 256l332.8-166.4 332.8 166.4-332.8 166.4-332.8-166.4zM512-21.333c-8.533 0-12.8 0-17.067 4.267L68.266 196.267C46.933 204.8 38.399 230.4 51.199 251.734s34.133 29.867 55.467 17.067l409.6-204.8 409.6 204.8c21.333 8.533 46.933 0 55.467-17.067 8.533-21.333 0-46.933-17.067-55.467L537.599-17.066c-12.8-4.267-17.067-4.267-25.6-4.267zM512 192c-8.533 0-12.8 0-17.067 4.267L68.266 409.6c-21.333 8.533-29.867 34.133-17.067 55.467 8.533 21.333 34.133 29.867 55.467 17.067l409.6-204.8 409.6 204.8c21.333 8.533 46.933 0 55.467-17.067 8.533-21.333 0-46.933-17.067-55.467L537.599 196.267c-12.8-4.267-17.067-4.267-25.6-4.267z"/><glyph unicode="" glyph-name="layout" d="M810.667 21.333H213.334c-72.533 0-128 55.467-128 128v597.333c0 72.533 55.467 128 128 128h597.333c72.533 0 128-55.467 128-128V149.333c0-72.533-55.467-128-128-128zm-597.334 768c-25.6 0-42.667-17.067-42.667-42.667V149.333c0-25.6 17.067-42.667 42.667-42.667h597.333c25.6 0 42.667 17.067 42.667 42.667v597.333c0 25.6-17.067 42.667-42.667 42.667H213.333zm682.667-256H128c-25.6 0-42.667 17.067-42.667 42.667S102.4 618.667 128 618.667h768c25.6 0 42.667-17.067 42.667-42.667S921.6 533.333 896 533.333zm-512-512c-25.6 0-42.667 17.067-42.667 42.667v512c0 25.6 17.067 42.667 42.667 42.667S426.667 601.6 426.667 576V64c0-25.6-17.067-42.667-42.667-42.667z"/><glyph unicode="" glyph-name="life-buoy" d="M512-21.333C251.733-21.333 42.667 187.734 42.667 448S251.734 917.333 512 917.333 981.333 708.266 981.333 448 772.266-21.333 512-21.333zM512 832c-213.333 0-384-170.667-384-384S298.667 64 512 64s384 170.667 384 384-170.667 384-384 384zm0-597.333c-119.467 0-213.333 93.867-213.333 213.333S392.534 661.333 512 661.333 725.333 567.466 725.333 448 631.466 234.667 512 234.667zM512 576c-72.533 0-128-55.467-128-128s55.467-128 128-128 128 55.467 128 128-55.467 128-128 128zm-119.467-51.2c-12.8 0-21.333 4.267-29.867 12.8L179.199 721.067c-17.067 17.067-17.067 42.667 0 59.733s42.667 17.067 59.733 0l179.2-179.2c17.067-17.067 17.067-42.667 0-59.733-4.267-12.8-17.067-17.067-25.6-17.067zm422.4-422.4c-12.8 0-21.333 4.267-29.867 12.8l-179.2 179.2c-17.067 17.067-17.067 42.667 0 59.733s42.667 17.067 59.733 0l179.2-179.2c17.067-17.067 17.067-42.667 0-59.733-8.533-8.533-21.333-12.8-29.867-12.8zM631.467 524.8c-12.8 0-21.333 4.267-29.867 12.8-17.067 17.067-17.067 42.667 0 59.733l179.2 179.2c17.067 17.067 42.667 17.067 59.733 0s17.067-42.667 0-59.733l-179.2-179.2c-8.533-8.533-17.067-12.8-29.867-12.8zm0 0c-12.8 0-21.333 4.267-29.867 12.8-17.067 17.067-17.067 42.667 0 59.733l149.333 149.333c17.067 17.067 42.667 17.067 59.733 0s17.067-42.667 0-59.733L661.333 537.6c-8.533-8.533-17.067-12.8-29.867-12.8zm-422.4-422.4c-12.8 0-21.333 4.267-29.867 12.8-17.067 17.067-17.067 42.667 0 59.733l179.2 179.2c17.067 17.067 42.667 17.067 59.733 0s17.067-42.667 0-59.733l-179.2-179.2c-8.533-8.533-17.067-12.8-29.867-12.8z"/><glyph unicode="" glyph-name="link-2" d="M768 192H640c-25.6 0-42.667 17.067-42.667 42.667S614.4 277.334 640 277.334h128c93.867 0 170.667 76.8 170.667 170.667S861.867 618.668 768 618.668H640c-25.6 0-42.667 17.067-42.667 42.667S614.4 704.002 640 704.002h128c140.8 0 256-115.2 256-256s-115.2-256-256-256zm-384 0H256C115.2 192 0 307.2 0 448s115.2 256 256 256h128c25.6 0 42.667-17.067 42.667-42.667S409.6 618.666 384 618.666H256c-93.867 0-170.667-76.8-170.667-170.667S162.133 277.332 256 277.332h128c25.6 0 42.667-17.067 42.667-42.667S409.6 191.998 384 191.998zm298.667 213.333H341.334c-25.6 0-42.667 17.067-42.667 42.667s17.067 42.667 42.667 42.667h341.333c25.6 0 42.667-17.067 42.667-42.667s-17.067-42.667-42.667-42.667z"/><glyph unicode="" glyph-name="link" d="M597.333 277.333c-12.8 0-25.6 0-38.4 4.267-68.267 8.533-128 46.933-166.4 98.133-12.8 17.067-8.533 46.933 8.533 59.733s46.933 8.533 59.733-8.533c25.6-38.4 68.267-59.733 110.933-68.267 46.933-4.267 89.6 4.267 128 34.133 8.533 4.267 12.8 8.533 17.067 17.067l128 128c64 68.267 64 174.933-4.267 238.933s-170.667 64-238.933 0l-72.533-72.533c-17.067-17.067-42.667-17.067-59.733 0s-17.067 42.667 0 59.733l72.533 72.533c98.133 98.133 256 98.133 354.133 0 102.4-98.133 102.4-260.267 4.267-362.667l-128-128c-8.533-8.533-17.067-17.067-29.867-25.6-38.4-29.867-89.6-46.933-145.067-46.933zm-294.4-294.4c-64 0-128 25.6-179.2 72.533s-76.8 110.933-76.8 179.2c0 68.267 25.6 132.267 72.533 183.467l128 128c8.533 4.267 17.067 12.8 25.6 21.333 55.467 42.667 123.733 59.733 187.733 46.933 68.267-8.533 128-46.933 166.4-98.133 12.8-17.067 8.533-46.933-8.533-59.733s-46.933-8.533-59.733 8.533c-25.6 38.4-68.267 59.733-110.933 68.267-46.933 8.533-89.6-4.267-128-34.133-8.533-4.267-12.8-8.533-17.067-17.067l-128-128C145.066 324.266 128 281.6 132.266 234.666s21.333-89.6 51.2-119.467c68.267-64 170.667-64 238.933 0l72.533 72.533c17.067 17.067 42.667 17.067 59.733 0s17.067-42.667 0-59.733l-72.533-72.533c-51.2-51.2-115.2-72.533-179.2-72.533z"/><glyph unicode="" glyph-name="list" d="M896 661.333H341.333c-25.6 0-42.667 17.067-42.667 42.667s17.067 42.667 42.667 42.667H896c25.6 0 42.667-17.067 42.667-42.667S921.6 661.333 896 661.333zm0-256H341.333c-25.6 0-42.667 17.067-42.667 42.667s17.067 42.667 42.667 42.667H896c25.6 0 42.667-17.067 42.667-42.667S921.6 405.333 896 405.333zm0-256H341.333c-25.6 0-42.667 17.067-42.667 42.667s17.067 42.667 42.667 42.667H896c25.6 0 42.667-17.067 42.667-42.667S921.6 149.333 896 149.333zm-768 512h-8.533c-4.266 0-4.267 0-8.533 4.267-4.267 0-4.267 0-8.533 4.267-4.267 0-4.267 4.267-4.267 4.267-8.533 8.533-12.8 17.067-12.8 29.867v8.533c0 4.266 0 4.267 4.267 8.533 0 4.267 4.267 4.267 4.267 8.533l4.267 4.267 4.267 4.267c4.267 0 4.267 4.267 8.533 4.267s4.267 0 8.533 4.267c8.533 0 17.067 0 25.6-4.267 4.267 0 8.533-4.267 12.8-8.533 0-4.267 4.267-4.267 4.267-4.267 0-4.267 4.267-4.267 4.267-8.533s0-4.267 4.267-8.533v-8.533c0-4.266 0-12.8-4.267-17.067 0-4.267-4.267-8.533-8.533-12.8-8.533-8.533-17.067-12.8-29.867-12.8zm0-256h-8.533c-4.266 0-4.267 0-8.533 4.267-4.267 0-4.267 0-8.533 4.267-4.267 0-4.267 4.267-4.267 4.267-4.267 4.267-8.533 8.533-8.533 12.8-4.267 4.267-4.267 12.8-4.267 17.067s0 12.8 4.267 17.067c4.267 4.267 4.267 8.533 8.533 12.8l4.267 4.267c4.267 0 4.267 4.267 8.533 4.267s4.267 0 8.533 4.267c12.8 4.267 29.867 0 38.4-12.8 8.533-8.533 12.8-17.067 12.8-29.867s-4.267-21.333-12.8-29.867c-8.533-8.533-17.067-12.8-29.867-12.8zm0-256c-12.8 0-21.333 4.267-29.867 12.8S85.333 179.2 85.333 192s4.267 21.333 12.8 29.867c17.067 17.067 42.667 17.067 59.733 0 8.533-8.533 12.8-17.067 12.8-29.867s-4.267-21.333-12.8-29.867c-8.533-8.533-17.067-12.8-29.867-12.8z"/><glyph unicode="" glyph-name="loader" d="M512 661.333c-25.6 0-42.667 17.067-42.667 42.667v170.667c0 25.6 17.067 42.667 42.667 42.667s42.667-17.067 42.667-42.667V704c0-25.6-17.067-42.667-42.667-42.667zm0-682.666c-25.6 0-42.667 17.067-42.667 42.667v170.667c0 25.6 17.067 42.667 42.667 42.667s42.667-17.067 42.667-42.667V21.334c0-25.6-17.067-42.667-42.667-42.667zM332.8 584.533c-12.8 0-21.333 4.267-29.867 12.8L179.2 721.066c-17.067 17.067-17.067 42.667 0 59.733s42.667 17.067 59.733 0L358.4 661.332c17.067-17.067 17.067-42.667 0-59.733-4.267-12.8-17.067-17.067-25.6-17.067zM814.933 102.4c-12.8 0-21.333 4.267-29.867 12.8L665.599 234.667c-17.067 17.067-17.067 42.667 0 59.733s42.667 17.067 59.733 0l119.467-119.467c17.067-17.067 17.067-42.667 0-59.733-8.533-8.533-21.333-12.8-29.867-12.8zM256 405.333H85.333c-25.6 0-42.667 17.067-42.667 42.667s17.067 42.667 42.667 42.667H256c25.6 0 42.667-17.067 42.667-42.667S281.6 405.333 256 405.333zm682.667 0H768c-25.6 0-42.667 17.067-42.667 42.667S742.4 490.667 768 490.667h170.667c25.6 0 42.667-17.067 42.667-42.667s-17.067-42.667-42.667-42.667zM209.067 102.4c-12.8 0-21.333 4.267-29.867 12.8-17.067 17.067-17.067 42.667 0 59.733L298.667 294.4c17.067 17.067 42.667 17.067 59.733 0s17.067-42.667 0-59.733L238.933 115.2c-8.533-8.533-17.067-12.8-29.867-12.8zM691.2 584.533c-12.8 0-21.333 4.267-29.867 12.8-17.067 17.067-17.067 42.667 0 59.733L780.8 776.533c17.067 17.067 42.667 17.067 59.733 0s17.067-42.667 0-59.733L721.066 597.333c-4.267-8.533-17.067-12.8-29.867-12.8z"/><glyph unicode="" glyph-name="lock" d="M810.667-21.333H213.334c-72.533 0-128 55.467-128 128v298.667c0 72.533 55.467 128 128 128h597.333c72.533 0 128-55.467 128-128V106.667c0-72.533-55.467-128-128-128zM213.333 448c-25.6 0-42.667-17.067-42.667-42.667V106.666c0-25.6 17.067-42.667 42.667-42.667h597.333c25.6 0 42.667 17.067 42.667 42.667v298.667c0 25.6-17.067 42.667-42.667 42.667H213.333zm512 0c-25.6 0-42.667 17.067-42.667 42.667v170.667c0 93.867-76.8 170.667-170.667 170.667s-170.667-76.8-170.667-170.667V490.667c0-25.6-17.067-42.667-42.667-42.667s-42.667 17.067-42.667 42.667v170.667c0 140.8 115.2 256 256 256s256-115.2 256-256V490.667c0-25.6-17.067-42.667-42.667-42.667z"/><glyph unicode="" glyph-name="log-in" d="M810.667-21.333H597.334c-25.6 0-42.667 17.067-42.667 42.667s17.067 42.667 42.667 42.667h213.333c25.6 0 42.667 17.067 42.667 42.667v682.667c0 25.6-17.067 42.667-42.667 42.667H597.334c-25.6 0-42.667 17.067-42.667 42.667s17.067 42.667 42.667 42.667h213.333c72.533 0 128-55.467 128-128V106.669c0-72.533-55.467-128-128-128zm-341.334 256c-12.8 0-21.333 4.267-29.867 12.8-17.067 17.067-17.067 42.667 0 59.733l140.8 140.8-140.8 140.8c-17.067 17.067-17.067 42.667 0 59.733s42.667 17.067 59.733 0l170.667-170.667c17.067-17.067 17.067-42.667 0-59.733L499.199 247.466c-8.533-8.533-17.067-12.8-29.867-12.8zM640 405.333H128c-25.6 0-42.667 17.067-42.667 42.667S102.4 490.667 128 490.667h512c25.6 0 42.667-17.067 42.667-42.667S665.6 405.333 640 405.333z"/><glyph unicode="" glyph-name="log-out" d="M426.667-21.333H213.334c-72.533 0-128 55.467-128 128v682.667c0 72.533 55.467 128 128 128h213.333c25.6 0 42.667-17.067 42.667-42.667S452.267 832 426.667 832H213.334c-25.6 0-42.667-17.067-42.667-42.667V106.666c0-25.6 17.067-42.667 42.667-42.667h213.333c25.6 0 42.667-17.067 42.667-42.667s-17.067-42.667-42.667-42.667zm298.666 256c-12.8 0-21.333 4.267-29.867 12.8-17.067 17.067-17.067 42.667 0 59.733l140.8 140.8-140.8 140.8c-17.067 17.067-17.067 42.667 0 59.733s42.667 17.067 59.733 0l170.667-170.667c17.067-17.067 17.067-42.667 0-59.733L755.199 247.466c-8.533-8.533-17.067-12.8-29.867-12.8zM896 405.333H384c-25.6 0-42.667 17.067-42.667 42.667S358.4 490.667 384 490.667h512c25.6 0 42.667-17.067 42.667-42.667S921.6 405.333 896 405.333z"/><glyph unicode="" glyph-name="mail" d="M853.333 64H170.666c-72.533 0-128 55.467-128 128v512c0 72.533 55.467 128 128 128h682.667c72.533 0 128-55.467 128-128V192c0-72.533-55.467-128-128-128zM170.667 746.667C145.067 746.667 128 729.6 128 704V192c0-25.6 17.067-42.667 42.667-42.667h682.667c25.6 0 42.667 17.067 42.667 42.667v512c0 25.6-17.067 42.667-42.667 42.667H170.667zm341.333-384c-8.533 0-17.067 4.267-25.6 8.533L59.733 669.867c-17.067 12.8-21.333 38.4-8.533 59.733 12.8 17.067 38.4 21.333 59.733 8.533L512 456.533l401.067 281.6c21.333 12.8 46.933 8.533 59.733-8.533 12.8-21.333 8.533-46.933-8.533-59.733L537.6 371.2c-8.533-4.267-17.067-8.533-25.6-8.533z"/><glyph unicode="" glyph-name="map-pin" d="M512-64c-8.533 0-17.067 4.267-25.6 8.533-12.8 8.533-401.067 273.067-401.067 588.8C85.333 768 277.333 960 512 960s426.667-192 426.667-426.667c0-315.733-388.267-580.267-401.067-588.8C529.067-59.734 520.533-64 512-64zm0 938.667c-187.733 0-341.333-153.6-341.333-341.333 0-230.4 260.267-443.733 341.333-503.467C593.067 89.6 853.333 302.934 853.333 533.334c0 187.733-153.6 341.333-341.333 341.333zm0-512c-93.867 0-170.667 76.8-170.667 170.667S418.133 704.001 512 704.001s170.667-76.8 170.667-170.667S605.867 362.667 512 362.667zm0 256c-46.933 0-85.333-38.4-85.333-85.333s38.4-85.333 85.333-85.333 85.333 38.4 85.333 85.333-38.4 85.333-85.333 85.333z"/><glyph unicode="" glyph-name="map" d="M682.667-21.333c-8.533 0-12.8 0-17.067 4.267L341.333 145.067 64-12.8c-12.8-8.533-29.867-8.533-42.667 0C8.533-8.533 0 4.267 0 21.333V704c0 17.067 8.533 29.867 21.333 38.4L320 913.067c12.8 4.267 25.6 4.267 38.4 0l324.267-162.133L960 908.801c12.8 8.533 29.867 8.533 42.667 0 12.8-4.267 21.333-17.067 21.333-34.133V192.001c0-17.067-8.533-29.867-21.333-38.4L704-17.066c-8.533-4.267-12.8-4.267-21.333-4.267zm-341.334 256c8.533 0 12.8 0 17.067-4.267l320-162.133 256 145.067v588.8L699.733 669.867c-12.8-8.533-25.6-8.533-38.4 0l-320 157.867-256-149.333V93.868L320 226.135c8.533 8.533 12.8 8.533 21.333 8.533zm0-85.334c-25.6 0-42.667 17.067-42.667 42.667v682.667c0 25.6 17.067 42.667 42.667 42.667S384 900.267 384 874.667V192c0-25.6-17.067-42.667-42.667-42.667zM682.667-21.333c-25.6 0-42.667 17.067-42.667 42.667v682.667c0 25.6 17.067 42.667 42.667 42.667s42.667-17.067 42.667-42.667V21.334c0-25.6-17.067-42.667-42.667-42.667z"/><glyph unicode="" glyph-name="maximize-2" d="M896 533.333c-25.6 0-42.667 17.067-42.667 42.667v213.333H640c-25.6 0-42.667 17.067-42.667 42.667S614.4 874.667 640 874.667h256c25.6 0 42.667-17.067 42.667-42.667V576c0-25.6-17.067-42.667-42.667-42.667zm-512-512H128C102.4 21.333 85.333 38.4 85.333 64v256c0 25.6 17.067 42.667 42.667 42.667S170.667 345.6 170.667 320V106.667H384c25.6 0 42.667-17.067 42.667-42.667S409.6 21.333 384 21.333zm213.333 469.334c-12.8 0-21.333 4.267-29.867 12.8-17.067 17.067-17.067 42.667 0 59.733l298.667 298.667c17.067 17.067 42.667 17.067 59.733 0s17.067-42.667 0-59.733L627.199 503.467c-8.533-8.533-17.067-12.8-29.867-12.8zM128 21.333c-12.8 0-21.333 4.267-29.867 12.8-17.067 17.067-17.067 42.667 0 59.733L396.8 392.533c17.067 17.067 42.667 17.067 59.733 0s17.067-42.667 0-59.733L157.866 34.133c-8.533-8.533-17.067-12.8-29.867-12.8z"/><glyph unicode="" glyph-name="maximize" d="M810.667 21.333h-128C657.067 21.333 640 38.4 640 64s17.067 42.667 42.667 42.667h128c25.6 0 42.667 17.067 42.667 42.667v128c0 25.6 17.067 42.667 42.667 42.667s42.667-17.067 42.667-42.667v-128c0-72.533-55.467-128-128-128zm-469.334 0h-128c-72.533 0-128 55.467-128 128v128C85.333 302.933 102.4 320 128 320s42.667-17.067 42.667-42.667v-128c0-25.6 17.067-42.667 42.667-42.667h128c25.6 0 42.667-17.067 42.667-42.667s-17.067-42.667-42.667-42.667zM896 576c-25.6 0-42.667 17.067-42.667 42.667v128c0 25.6-17.067 42.667-42.667 42.667h-128c-25.6 0-42.667 17.067-42.667 42.667s17.067 42.667 42.667 42.667h128c72.533 0 128-55.467 128-128v-128c0-25.6-17.067-42.667-42.667-42.667zm-768 0c-25.6 0-42.667 17.067-42.667 42.667v128c0 72.533 55.467 128 128 128h128C366.933 874.667 384 857.6 384 832s-17.067-42.667-42.667-42.667h-128c-25.6 0-42.667-17.067-42.667-42.667v-128c0-25.6-17.067-42.667-42.667-42.667z"/><glyph unicode="" glyph-name="menu" d="M896 405.333H128c-25.6 0-42.667 17.067-42.667 42.667S102.4 490.667 128 490.667h768c25.6 0 42.667-17.067 42.667-42.667S921.6 405.333 896 405.333zm0 256H128c-25.6 0-42.667 17.067-42.667 42.667S102.4 746.667 128 746.667h768c25.6 0 42.667-17.067 42.667-42.667S921.6 661.333 896 661.333zm0-512H128c-25.6 0-42.667 17.067-42.667 42.667S102.4 234.667 128 234.667h768c25.6 0 42.667-17.067 42.667-42.667S921.6 149.333 896 149.333z"/><glyph unicode="" glyph-name="message-circle" d="M128 21.333c-12.8 0-21.333 4.267-29.867 12.8C85.333 46.933 81.066 64 89.6 76.8l76.8 226.133c-25.6 51.2-38.4 110.933-38.4 166.4 0 153.6 85.333 294.4 226.133 362.667 55.467 29.867 119.467 42.667 179.2 42.667h21.333c209.067-12.8 371.2-174.933 384-379.733v-25.6c0-64-12.8-123.733-42.667-183.467C827.732 149.334 686.932 64 533.332 64c-55.467 0-110.933 12.8-162.133 34.133l-226.133-76.8h-17.067zm405.333 768c-51.2 0-98.133-12.8-140.8-34.133-110.933-55.467-179.2-162.133-179.2-285.867 0-51.2 12.8-98.133 34.133-140.8 4.267-8.533 4.267-21.333 4.267-34.133l-55.467-162.133 162.133 55.467c12.8 4.267 21.333 4.267 34.133-4.267 42.667-21.333 93.867-34.133 140.8-34.133 123.733 0 230.4 68.267 285.867 174.933 21.333 42.667 34.133 93.867 34.133 140.8v25.6C844.799 652.8 716.799 780.8 550.399 789.334h-17.067z"/></font>
</defs>
</svg>
