<svg xmlns="http://www.w3.org/2000/svg" viewBox="0 0 1280 720">
    <defs>
        <style>
            .gray, .black, .glass, .frame { stroke-width: 2px; transition: all 0.5s ease-in-out; } .black { fill: #181818; stroke: #181818; animation: black 1s ease-in; } .gray { fill: #3d3d3d; stroke: #3d3d3d; } .glass { fill: #464759; stroke: #464759; } .frame { fill: #ffd000; stroke: #ffd000; } #mycontainer:hover .black { fill: #181818e0; } #mycontainer:hover .gray { fill: #3d3d3de0; } #mycontainer:hover .glass { fill: #464759e0; } #mycontainer:hover .frame { fill: #ffd000e0; } #hair { transform-origin: 50% 50%; stroke-dasharray: 3302; animation: hair 2s infinite alternate ease-out, black 4s infinite alternate ease-in-out; } #ls-head { transform-origin: 50% 50%; stroke-dasharray: 405; animation: ls-head 2s infinite alternate ease-in, gray 4s infinite alternate ease-in-out; } #rs-head { transform-origin: 50% 50%; stroke-dasharray: 305; animation: rs-head 2s infinite alternate ease-in, gray 4s infinite alternate ease-in-out; } #ls-eye { transform-origin: 50% 50%; stroke-dasharray: 283; animation: ls-eye 2s infinite alternate ease-in, gray 4s infinite alternate ease-in-out; } #rs-eye { transform-origin: 50% 50%; stroke-dasharray: 270; animation: rs-eye 2s infinite alternate ease-in, gray 4s infinite alternate ease-in-out; } #ls-frame { transform-origin: 50% 50%; stroke-dasharray: 186; animation: ls-frame 2s infinite alternate ease-in, yellow 4s infinite alternate ease-in-out; } #rs-frame { transform-origin: 50% 50%; stroke-dasharray: 114; animation: rs-frame 2s infinite alternate ease-in, yellow 4s infinite alternate ease-in-out; } #ms-frame { transform-origin: 50% 50%; stroke-dasharray: 343; animation: ms-frame 2s infinite alternate ease-in, yellow 4s infinite alternate ease-in-out; } #ls-glass { transform-origin: 50% 50%; stroke-dasharray: 522; animation: ls-glass 2s infinite alternate ease-in, blue 4s infinite alternate ease-in-out; } #rs-glass { transform-origin: 50% 50%; stroke-dasharray: 482; animation: rs-glass 2s infinite alternate ease-in, blue 4s infinite alternate ease-in-out; } #much { transform-origin: 50% 50%; stroke-dasharray: 778; animation: much 2s infinite alternate ease-in, black 4s infinite alternate ease-in-out; } #makhi { transform-origin: 50% 50%; stroke-dasharray: 418; animation: makhi 2s infinite alternate ease-in, gray 4s infinite alternate ease-in-out; } #bread { transform-origin: 50% 50%; stroke-dasharray: 1070; animation: bread 2s infinite alternate ease-out, gray 4s infinite alternate ease-in-out; } @keyframes hair { 0% { stroke-linecap: round; stroke-dashoffset: 3050; stroke-width: 8; } 100% { stroke-linecap: round; stroke-dashoffset: 0; stroke-width: 2; } } @keyframes ls-head { 0% { stroke-linecap: round; stroke-dashoffset: 405; stroke-width: 8; } 100% { stroke-linecap: round; stroke-dashoffset: 0; stroke-width: 2; } } @keyframes rs-head { 0% { stroke-linecap: round; stroke-dashoffset: 305; stroke-width: 8; } 100% { stroke-linecap: round; stroke-dashoffset: 0; stroke-width: 2; } } @keyframes ls-eye { 0% { stroke-linecap: round; stroke-dashoffset: 283; stroke-width: 8; } 100% { stroke-linecap: round; stroke-dashoffset: 0; stroke-width: 2; } } @keyframes rs-eye { 0% { stroke-linecap: round; stroke-dashoffset: 270; stroke-width: 8; } 100% { stroke-linecap: round; stroke-dashoffset: 0; stroke-width: 2; } } @keyframes ls-frame { 0% { stroke-linecap: round; stroke-dashoffset: 186; stroke-width: 8; } 100% { stroke-linecap: round; stroke-dashoffset: 0; stroke-width: 2; } } @keyframes rs-frame { 0% { stroke-linecap: round; stroke-dashoffset: 114; stroke-width: 8; } 100% { stroke-linecap: round; stroke-dashoffset: 0; stroke-width: 2; } } @keyframes ms-frame { 0% { stroke-linecap: round; stroke-dashoffset: 343; stroke-width: 8; } 100% { stroke-linecap: round; stroke-dashoffset: 0; stroke-width: 2; } } @keyframes ls-glass { 0% { stroke-linecap: round; stroke-dashoffset: 522; stroke-width: 8; } 100% { stroke-linecap: round; stroke-dashoffset: 0; stroke-width: 2; } } @keyframes rs-glass { 0% { stroke-linecap: round; stroke-dashoffset: 482; stroke-width: 8; } 100% { stroke-linecap: round; stroke-dashoffset: 0; stroke-width: 2; } } @keyframes much { 0% { stroke-linecap: round; stroke-dashoffset: 778; stroke-width: 8; } 100% { stroke-linecap: round; stroke-dashoffset: 0; stroke-width: 2; } } @keyframes makhi { 0% { stroke-linecap: round; stroke-dashoffset: 418; stroke-width: 8; } 100% { stroke-linecap: round; stroke-dashoffset: 0; stroke-width: 2; } } @keyframes gray { 0% { fill: #3d3d3d00; } 20% { fill: #3d3d3d00; } 60% { fill: #3d3d3de0; } 100% { fill: #3d3d3d; } } @keyframes black { 0% { fill: #18181800; } 20% { fill: #18181800; } 60% { fill: #181818e0; } 100% { fill: #181818; } } @keyframes yellow { 0% { fill: #ffd00000; } 20% { fill: #ffd00000; } 60% { fill: #ffd000e0; } 100% { fill: #ffd000; } } @keyframes blue { 0% { fill: #46475900; } 20% { fill: #46475900; } 40% { fill: #464759; } } @keyframes bread { 0% { stroke-linecap: round; stroke-dashoffset: 1070; stroke-width: 8; } 100% { stroke-linecap: round; stroke-dashoffset: 0; stroke-width: 2; } }
        </style>
        <style>
            .cls-1{fill:#3d3d3d;stroke:#3d3d3d;}.cls-1,.cls-2,.cls-3,.cls-4{stroke-miterlimit:10;stroke-width:2px;}.cls-2{fill:#181818;stroke:#181818;}.cls-3{fill:#464759;stroke:#464759;}.cls-4{fill:#ffd000;stroke:#fc3;}
        </style>
    </defs>
    <title>
        MyMocksPreloader
    </title>
    <g id="mycontainer">
        <g id="bs-face">
            <path id="bread" d="M768.87,436.41c0,.4,0,.79,0,1.2a70.39,70.39,0,0,1-3.79,22.14c0,.1-.07.19-.1.29a185.62,185.62,0,0,1-4.91,20.28c-2.57,8.5-3.91,12.92-7,18.77-1.92,3.65-3.24,5.42-7.7,13.36-2.2,3.93-4,7.19-5.12,9.39h0l-11.63,27.21c-.67,1.66-1.63,3.85-2.94,6.35,0,0-1.8,3.43-4.07,6.82-17.4,25.89-33.22,36.94-33.22,36.94-33.47,23.4-76.55,13.71-87.26,11.31a106.73,106.73,0,0,1-21.12-7.3,93.5,93.5,0,0,1-21.56-14.79,81.27,81.27,0,0,1-11.66-14.22,99,99,0,0,1-6.41-11.94l-.76-1.57v0c-2.56-5.29-6.21-12.81-10.88-22.27,0,0-15.72-30.19-19.55-60.55a99.5,99.5,0,0,1-.83-11.23c0-.34,0-.68,0-1,0-1,.13-6.28.21-8.05,0-.33,0-.55,0-.58.12.76.23,1.55.35,2.37,0,0,0,14.79,4.08,21s10.48,14.22,30.88,19.91c0,0,14.57,5.69,5.24,36.4,0,0,4.66,4,12.82-6.83,0,0,32,49.69,77.37,48.17,36.65-1.22,63.78-37.38,70.09-45.49.05-.07.39-.55.74-.49.68.11.21,2.12,1.56,3.5a4.09,4.09,0,0,0,2.88,1.2,4,4,0,0,0,.61-.06C711.11,523,727.62,512,729.76,496.82c0,0,0-11.94,23.89-17.63a53.51,53.51,0,0,0,11.24-19.7C766.73,450.54,768,442.24,768.87,436.41Z" class="cls-1"/>
            <path id="makhi" d="M601.57,526.39s16.9,11.38,17.48,17.06c0,0,1.75,2.85-.58,4.55,0,0,2.33,0,2.91-4a4.75,4.75,0,0,1-1.75,4.55s3.5-.57,5.24-5.69c0,0,1.75,6.83-2.33,8.53a5.86,5.86,0,0,0,4.67-2.84s0,4-1.17,4a4.2,4.2,0,0,0,2.91-2.84s1.17,3.41,0,4c0,0,1.75.57,2.92-6.83,0,0,2.33,6.26,0,9.67,0,0,2.91.57,4.08-7.39,0,0,1.16,4,0,5.69a4.73,4.73,0,0,0,1.74-4s.59,4.55-1.16,5.68a4.09,4.09,0,0,0,3.5-2.84s1.74,1.14,1.16,2.84c0,0,2.33-1.13,3.5-7.39a5.52,5.52,0,0,1,1.16-3.41s-2.33,8.53.58,10.23c0,0-1.16-3.41.59-5.68,0,0,0,4.55,1.16,5.12a5.92,5.92,0,0,1,0-3.42s.59,2.85,1.75,2.85c0,0-1.75-4,0-6.26,0,0,0,2.84.58,3.41,0,0-.58-5.12.59-6.25,0,0-1.17,5.68,1.74,8.53,0,0-1.16-4.55,0-6.26a5.49,5.49,0,0,0,1.17,3.41s-.58-2.27,0-2.84c0,0,.58,3.41,2.33,3.41,0,0-2.91-4.55-.58-7.39,0,0-.58,4.55,3.49,3.41,0,0-4.07-3.41-1.74-7.39,0,0-.59,2.84.58,4,0,0,0-2.84,1.16-3.41s4.67-10.24,12.24-12.51c0,0,7-4.55,5.83-5.69s0-1.71-12.24-2.28c0,0-21,12.52-43.7.57,0,0-12.82,4-21.56,1.71C599.82,523,599.24,524.68,601.57,526.39Z" class="cls-1"/>
            <path id="much" d="M750.42,519.36a21.36,21.36,0,0,1-2,10c-.78,1.54-3.3,6.54-9.06,8.42-6.18,2-11.48-1.07-12.61-1.73-3.39-2-5.14-4.67-6.74-7.15a36,36,0,0,1-4.4-10.8,57,57,0,0,1-1.55-7.78,24.26,24.26,0,0,0-5.39-9.41c-5.41-5.72-12.4-7.2-18-7.89l-39.48-4.88c-1.07-.33-7.67-2.49-10.54-9.22l0-.14c-.13.26-.29.51-.44.77-3.85,6.24-10.71,7.42-11.82,7.59l-39.78-.89c-5.62-.13-12.76.32-19,5.2a24.09,24.09,0,0,0-6.75,8.52,55.85,55.85,0,0,1-2.73,7.46,36.18,36.18,0,0,1-6,10.05c-2,2.22-4.09,4.63-7.75,6.1-1.21.48-6.93,2.78-12.73-.12-5.41-2.69-7.15-8-7.68-9.63a21.33,21.33,0,0,1-.46-10.18,27.44,27.44,0,0,1,1.59-5.92,27.19,27.19,0,0,0,.37,11.35,14.19,14.19,0,0,0,2.54,5.61c.82,1,2.85,3.53,6.18,3.8a7.56,7.56,0,0,0,4.17-.9c.69-.39,1.8-1.18,4.72-6.75a45.78,45.78,0,0,0,2.4-5,32,32,0,0,0,1.86-7.66c.55-5-.62-5.87-.35-9.59a21.21,21.21,0,0,1,4.58-11.17c2.39-3.19,5.51-5.54,13.24-9,6.94-3.08,10.75-4,20.11-6.89,15.76-4.93,18.81-6.73,27.5-7.73,7.26-.83,11.33-.28,15,1.16a20.3,20.3,0,0,1,10.41,8.17,17.33,17.33,0,0,1,1.42,2.82,18.86,18.86,0,0,1,2.18-3.22A20.61,20.61,0,0,1,655,456.19c3.86-.89,8-.84,15,1,8.45,2.25,11.19,4.46,26,11.62,8.81,4.25,12.44,5.68,18.85,9.73,7.12,4.5,9.85,7.27,11.72,10.78a21.13,21.13,0,0,1,2.86,11.71c-.31,3.72-1.6,4.44-1.81,9.43a31.88,31.88,0,0,0,.68,7.85,43.34,43.34,0,0,0,1.62,5.29c2,5.93,3,6.86,3.65,7.35a7.46,7.46,0,0,0,4,1.49c3.33.22,5.73-2,6.69-2.86a14.28,14.28,0,0,0,3.35-5.18,26.82,26.82,0,0,0,2.09-11.17A27.36,27.36,0,0,1,750.42,519.36Z" class="cls-2"/>
        </g>
        <g id="ts-face">
            <path id="hair" d="M827.65,186.3S833.48,169.24,830,151c0,0,0,3.41-1.17,5.12,0,0,1.17-6.83-.58-10.81,0,0,1.16-.57,1.75-4,0,0-3.5,4.55-4.67,4.55,0,0,1.17-16.49-2.33-21.61,0,0,.59,8-1.16,9.1,0,0,0-10.81-2.91-15.36,0,0,0,7.4-2.34,7.4,0,0,.59-26.17-9.32-32.42,0,0,4,15.2-1.09,24.87.28-2.94,1.05-14.19-3-18.62,0,0,.59,15.93-1.17,17.64s-4.65-17.07-4.65-17.07l-.59-10.8s3.5-12,6.41-14.79c0,0-5.82,4-6.41,6.26s-4.66-2.28-2.33-6.26c1.91-3.27-3.63-.4-5,2,.25,1.38.22,2.27-.21,1.42a1.46,1.46,0,0,1,.21-1.42c-.43-2.34-1.66-6.12-3.13-5.4C784,72,789.2,76,785.12,78.24c0,0,0-4.55-5.25-6.82,0,0,3.5,4.54,2.33,5.68,0,0-3.49-2.84-5.82-.57s-4.66,10.81-5.25,8.54c0,0,3.5-8,2.33-8,0,0-2.33,6.26-4.66,5.69,0-2.84-.58-5.69,4.08-8,0,0-3.49-1.14-7,3.41l-2.33-.57s-.58-3.41-2.91-3.41c0,0,1.74,2.84,0,4.55V76a7.9,7.9,0,0,1-4,4c.33-.23,3.4-2.35,2.3-4,0,0-2.91,4.56-5.83,4s-.58-.57-.58-.57l1.16-4s-4.08,5.69-6.41,6.25a8.35,8.35,0,0,0-4.08-8.53,27.19,27.19,0,0,0-4.66-1.7s7.58,5.68,2.92,13.08c0,0,0-6.83-3.5-10.24,0,0,3.5,8,1.75,13.65,0,0-4.08-1.71-4.08-7.39,0-3.92.82-5.13,1.34-5.52-1.74.8-8.52,4.33-10.07,11.71.17-1,2.22-12.5,0-13.59s-.58,0-.58,0,0,9.1-5.83,11.95c0,0-1.75-8-4.66-9.67s-.59,0-.59,0L711.7,76l.58-2.84H710l-3.5-3.41-2.91,3.41s-1.17-5.68-7.57-4.55c0,0,1.61-3.15,2.77-3.39-.84.11-5.16.77-5.69,2.82-.58,2.28-1.75-.56-1.75-.56a5.62,5.62,0,0,0-7-1.14s2.33.57,1.16,1.7-2.33-1.7-2.33-1.7-.58,2.27-3.49.57-4.08-1.14-5.83-.57-5.22-.57-4.09-2.83c-.11.2-1.3,2.2-4.07,1.12s-3.49-2.27-4.07,0c-.07.25-.1.4-.12.46.07-.38.94-4.55-.47-5-1.75-.57-3.49-.57-7,2.28a3.79,3.79,0,0,1-5.83-.57l3.5-3.41s-8.74,1.13-9.33,4L641.19,60a4.84,4.84,0,0,0-5.83,0s-4.08-1.7-5.24.57c0,0-4.08-2.27-5.25-.57s-6.4,1.14-6.4,1.14L622.54,60l-6.4-.57s6.4-2.84,7.57-1.13c0,0,0-2.85-8.15-1.15a15.53,15.53,0,0,1,11.06-2.27s-3.49-4-12.22-1.71c.35-.18,6.48-3.38,9.31-2.83,0,0-19.23-6.83-46,17.62s-.59,0-.59,0,4.67-6.82,7-6.82S580,60,574.18,64.59c0,0-15,5.43-18.42,8.33,1.68-1.6,12.78-11.78,21.92-12.31,0,0-4.09-2.27-17.48,4.55.29-.23,9.4-7.39,14.56-7.39,0,0-4.08-2.85-12.24,3.41,0,0,1.76-5.69,5.83-5.69,0,0-6.4-1.7-12.22,5.68.17-.31,3-5.14,6.39-6.25,0,0-8.15-.57-21,8.54,0,0,4.66-6.26,8.16-6.26a7.74,7.74,0,0,0-5.83,1.71s4.08-6.26,5.83-6.26c0,0-.59-1.71-8.74,7.39,0,0-9.89,3.4-15.14,12.48.35-.7,5.94-11.94,9.89-13,0,0-7-1.13-19.81,16.49-12.68,17.45-1.41.38-1.17,0-.27.11-8.8,3.62-12.82,17.06,0,0-2.91-17,9.31-23.31-.55.07-18.62,2.66-18,27.86,0,0-5.81-9.06-.05-15.89-.71.64-10.25,10-5.2,47.74,0,0-11.07-15.92-2.34-37-.2.13-8.67,6-3.49,34.68,0,0-10.49-18.77-3.49-40.95,0,0-18.07,20.48,2.9,56.3-.3-.21-9.9-7-9.9-17.62a15.94,15.94,0,0,0-4.07,15.35s-5.25-1.13-4.67-5.12c0,0-5.24,6.83,8.16,18.77,0,0-8.16-1.71-9.32-9.1a17.27,17.27,0,0,0,1.75,17.63c6.41,9.1-13.4-5.69-14.57-14.78,0,0-.59,23.31,22.14,32.41a21,21,0,0,1-21-5.69s0,19.91,21,27.3c0,0-11.66,8.53-22.14-3.41,0,0,5.24,23.32,28.55,26.73,0,0-4.66,14.79-1.75,18.2,0,0,.58-7.38,2.91-8.52-.11.16-2.29,3.45-1.16,5.11,0,0,1.17-4.55,2.33-4.55A29,29,0,0,0,481,252.27s-.59-11.38,5.82-13.08c0,0-2.95,2.88-3.47,5.84l-.9.73a5.26,5.26,0,0,0,.83-.16,4,4,0,0,0,0,1s.23-.51.61-1.2a8.55,8.55,0,0,0,3.1-2.19,15.93,15.93,0,0,0-3.11,6.23h0a14.51,14.51,0,0,0,.36,8.31l1.11-.91,1.79-.12.52,0a14.49,14.49,0,0,0,1.44,5.84,9.65,9.65,0,0,1,1.54,1.84c2.87,4.21,8.19,16.42,2,44.22,0,0,0,.07-.05.2h0c0,7.24-.15,14.77-.31,22.07,0,.31,0,.61,0,.92-.4,17.76-1.12,34.09-2,41.64,0,0,19.23-53.46,17.48-59.15,0,0-4.08-36.4,8.74-42.66s14.57-46.06,14.57-46.06,26.8-30.14,74.58-35.26c0,0,23.31-6.83,40.8,7.39,0,0,26.22,23.32,67.59,9.67,0,0,32.05,13.65,41.37,39.24a14.54,14.54,0,0,0,11.07,9.1s5.25,11.38,0,31.85c0,0,8.74,15.35,6.41,33,0,.31-.08.62-.12.91,0,.14,0,.29,0,.43-.06.43-.11.83-.16,1.21,0,.12,0,.25,0,.37s0,.48-.08.71-.06.43-.08.63,0,.41-.07.6q-.06.56-.12,1c-.06.61-.11,1.09-.14,1.46a2,2,0,0,1,0,.25c0,.5,0,.71,0,.71l0,0a7.87,7.87,0,0,0,.44-1.61c0-.21.1-.45.15-.68s.16-.78.24-1.17a4.63,4.63,0,0,0,.09-.49c.16-.79.3-1.52.39-2l.06-.29a.43.43,0,0,1,0-.12c0,.33-.17,1.06-.32,2.11v0c0,.26-.07.53-.12.83h0c-.13.93-.27,2-.42,3.26-.07.61-.15,1.25-.23,1.91l0,.27c-.11,1.08-.24,2.23-.35,3.43,0,0,0,0,0,0-.05.5-.09,1-.14,1.51v0c0,.51-.09,1-.14,1.55-.09,1.13-.17,2.28-.24,3.46,0,.39,0,.77-.07,1.16q-.08,1.26-.12,2.55c0,.32,0,.65,0,1-.26,8,.15,16.35,2.26,21.61,0,0-.52-10.28,3.44-11.3a105.14,105.14,0,0,0,5.13-16.3c.55-8,1.49-22.9,2.06-36.62v0c.19-6.86.32-14,.29-20.72l-.43.23.11-8.59c-.18-1-.4-1.55-.69-1.65a19.29,19.29,0,0,0,.74-2.47c0-.05,0-.1,0-.15l-.73-9.32c.33,2.61.57,5.78.73,9.32v.13l-.05,4.14c.09.52.17,1.15.24,1.88,0,2.09.07,4.26.08,6.48l6-3.18v4s5.82-8.53,7-17.06c0,0,16.89-13.65,21.56-25.59s12.23-27.87,7-33.56C825.91,206.77,833.48,198.81,827.65,186.3ZM806.1,118.62s-5.25,9.1,0-.57l.07-.14C806.12,118.36,806.1,118.62,806.1,118.62Z" class="cls-2"/>
            <path id="rs-head" d="M784.34,276.2c.07,4.35.3,8.91.27,13.44,0,4.71-.13,9.34-.27,13.87v0c-.57,13.73-1.51,28.59-2.06,36.63-1.14,5.57-3.92,11.75-5.72,16.3-3.95,1-3.43,11.3-3.43,11.3-2.11-5.27-2.52-13.57-2.26-21.62l0-1c0-.85.07-1.7.13-2.54,0-.39,0-.78.07-1.16.07-1.18.15-2.34.24-3.47,0-.52.09-1,.14-1.54,0,0,0,0,0,0,0-.51.09-1,.14-1.51v0c.12-1.2.24-2.35.36-3.43a1.24,1.24,0,0,1,0-.27c.08-.67.15-1.3.22-1.91.16-1.24.3-2.33.43-3.26,0,0,0,0,0,0,0-.3.08-.57.11-.83a0,0,0,0,1,0,0c.15-1,.26-1.77.32-2.1a1,1,0,0,0,0,.12c0,.09,0,.18-.05.29-.09.49-.23,1.22-.39,2l-.09.49c-.09.39-.17.79-.24,1.17s-.1.46-.15.67a8.61,8.61,0,0,1-.44,1.62l0,0c-.05,0-.06-.21,0-.71,0-.08,0-.16,0-.25,0-.37.08-.85.14-1.47,0-.3.08-.64.12-1,0-.19,0-.39.07-.59s0-.43.07-.65l.09-.7c0-.12,0-.25.05-.37,0-.38.09-.79.15-1.21l.06-.43c0-.3.08-.6.12-.92,2.33-17.63-6.41-33-6.41-33,5.24-20.48,0-32.46,0-32.46l17,4.55a61.41,61.41,0,0,1,1.16,10.28C784.34,272.21,784.27,274.22,784.34,276.2Z" class="cls-1"/>
            <path id="ls-head" d="M531.1,225.54s-1.75,39.81-14.57,46.06-8.74,42.66-8.74,42.66c1.75,5.69-18.1,59.15-18.1,59.15.83-7.55,1.55-23.88,1.95-41.64,0-.31,0-.61,0-.92.16-7.3.27-14.83.31-22.07h0l0-.2c6.24-27.8.9-40-2-44.22a9.65,9.65,0,0,0-1.54-1.84,150.13,150.13,0,0,1,17-17.29l2.07-1.8,1.37-1.16c.9-.48,1.89-.63,2,.28,0-.13,0-1.46,1.87-2.27s2.72-.68,2.26-1.84l-.07-.17c.2.4,1.09,2.13,2,1.71,1.17-.56,2.14-1.35,3.09-4.05a3.31,3.31,0,0,1,3.42-2.4l-.75,2.93s4.45-4.39,3.79-5.79L528,231a4.59,4.59,0,0,0,1.32-.49c.2-1.52.36-2.91.49-4.12Z" class="cls-1"/>
            <path id="ls-eye" d="M508.33,312.55s2.92-25.59,31.47-23.31c0,0,61.18-4,78.08,23.31,0,0-1.75,6.26-14,0C603.9,312.55,578.84,291.51,508.33,312.55Z" class="cls-1"/>
            <path id="rs-eye" d="M681.4,321.08s-5.83-17.06,25.05-18.76,42.54,4.55,64.1,18.76c0,0,8.74,12.52,5.83,19.91C776.38,341,749.57,300.61,681.4,321.08Z" class="cls-1"/>
        </g>
        <g id="ms-face">
            <path id="rs-glass" d="M666.41,339.62c-.48,3.56-.34,6.61-.45,7.88-.71,8.42,1.93,15.85,4.33,22.49a124.33,124.33,0,0,0,4.73,11.5s2.75,5.84,5.82,10.94c5.16,8.57,15.57,25.46,34.68,33.65a54.39,54.39,0,0,0,52.55-4.48c20.86-13.61,23.82-37.55,24.08-40.8-3-.05-5.62-2.6-5.28-4.55s3-3.68,5.82-2.84l-1.19-23.18a44,44,0,0,0-5.16-10.75c-15.27-22-49.11-24-78.72-26.36a284.72,284.72,0,0,0-31-.74,10.92,10.92,0,0,0-4.79,2.44c-2.75,2.51-3,5.79-4.08,14.72C667.46,331.68,667,335.19,666.41,339.62Z" class="cls-3"/>
            <path id="ls-glass" d="M634.7,340.1c-.23,3.39-2.18,19-13.09,35.9-9.34,14.5-20.77,22.31-27.44,26.78-8.72,5.84-20.4,13.66-37.41,15.82-7.19.91-30.21,3.84-49.25-11.56-22.2-18-20.79-46.1-20.58-49.29,3.57.31,6-2,6-3.8s-2.26-3.52-5.33-3.51c0-12.28,3.57-20.42,6.85-25.56,16.16-25.25,61.16-33.4,111.31-17.93,3.54-.83,13.62-2.73,21,2.77C635.72,316.39,635.43,329.59,634.7,340.1Z" class="cls-3"/>
            <path id="ls-frame" d="M492.89,354c.07,1.76-2.39,4.11-6,3.8,0,.06,0,.13,0,.21h-.62v-.57H480v-.57h-4.64c-.6,0-.6-.15-.6-.15v-2.58h1.05V353a4.48,4.48,0,0,1-1.8-.29l.15-3.58.75-.15c-.75-1.29.75-2.72.75-2.72-6.89-16.77,2.09-26.95,2.09-26.95,4.34-11.46,13.92,4.73,13.92,4.73-.06,2.1-.11,4.21-.18,6.31l-.87,2.13-4.93-3.71c-1.35-9-3.44-8.6-3.44-8.6-12.29,10.18-3.45,26.66-3.45,26.66H480v.57h1.05v2.87h6.49v.22C490.63,350.43,492.83,352.34,492.89,354Z" class="cls-4"/>
            <path id="rs-frame" d="M803.85,374.16v1.72h-1.19v3.3h-.9c-.31,1.72-1.35,1.72-1.35,1.72-1.65.06-3.38.09-5.21.05-1,0-2.06-.06-3.05-.11v0c-3-.06-5.62-2.6-5.28-4.55s3-3.68,5.83-2.84l-1.2-23.18c-.43-1.22-1-3-2-5,1.74,3.65,2.51,6.64,3.82,8.29,5.24,6.59,6.44,17.77,6.44,17.77h2.85V374Z" class="cls-4"/>
            <path id="ms-frame" d="M708.38,314.27a1.45,1.45,0,0,1-1.34,1.17q-14.89-1.63-30.26-3.06h-.19a10.92,10.92,0,0,0-4.79,2.44c-2.75,2.51-3,5.79-4.08,14.72-.26,2.14-.7,5.65-1.31,10.07-.75,1.29-1.19,0-1.19,0l1.19-9c-17.66-13.76-30.39.57-30.39.57v8.45c-.53.68-1,.56-1.31.34.72-10.48,1-23.59-8-30.23a15.91,15.91,0,0,0-2.29-1.44q-12.16-.78-24-1.38a1.5,1.5,0,0,1-.92-.58,1.43,1.43,0,0,1-.25-1.12.56.56,0,0,1,0-.12,1.49,1.49,0,0,1,1.71-1c.8,0,14.46.43,16.15.52,31.15,1.57,61.33,4.38,90.51,8.2a1.65,1.65,0,0,1,.45.38l.11.14A1.37,1.37,0,0,1,708.38,314.27Z" class="cls-4"/>
        </g>
        <path d="M251.18,644.35a15.39,15.39,0,0,1-.86,5.13,10.74,10.74,0,0,1-2.46,4.06,15.6,15.6,0,0,1-2.16,1.87,13.09,13.09,0,0,1-2.6,1.45,15.81,15.81,0,0,1-3.1.93,18.55,18.55,0,0,1-3.74.34h-5.08v12.61H221.5V632.18h15a23.66,23.66,0,0,1,5.76.61,13.57,13.57,0,0,1,4.39,1.93,9.68,9.68,0,0,1,3.37,3.87A13,13,0,0,1,251.18,644.35Zm-10,.23a5.08,5.08,0,0,0-.77-2.81,4.16,4.16,0,0,0-1.87-1.62,8.19,8.19,0,0,0-2.63-.68c-.84-.06-2-.09-3.4-.09h-1.38v11.55h.68c.91,0,1.78,0,2.59,0a15.42,15.42,0,0,0,2.12-.18,7.09,7.09,0,0,0,1.64-.5,4.3,4.3,0,0,0,1.34-.85,4.94,4.94,0,0,0,1.33-2A8.81,8.81,0,0,0,241.23,644.58Z"/>
        <path d="M264.9,670.74h-9.06v-40.3h9.06Z"/>
        <path d="M286.74,671.52q-8.24,0-12.63-3.94t-4.39-11.21q0-7.12,4.09-11.37t11.45-4.25q6.67,0,10.05,3.6t3.36,10.31v3.26H278.81a8.23,8.23,0,0,0,.86,3.38,5.81,5.81,0,0,0,1.91,2.16,7.86,7.86,0,0,0,2.72,1.16,15.7,15.7,0,0,0,3.39.34,14,14,0,0,0,3.11-.34,15.58,15.58,0,0,0,2.8-.92,18.9,18.9,0,0,0,2.06-1.07c.63-.38,1.14-.71,1.54-1h1v7.49l-2,.81a18.27,18.27,0,0,1-2.52.77,27.25,27.25,0,0,1-3,.61A29.27,29.27,0,0,1,286.74,671.52Zm3-19.06a7,7,0,0,0-1.33-4.38,4.74,4.74,0,0,0-3.85-1.5,5.37,5.37,0,0,0-4.13,1.58,6.57,6.57,0,0,0-1.64,4.3Z"/>
        <path d="M319.37,667.66l-1.67,1.4a10.34,10.34,0,0,1-2,1.24,13.79,13.79,0,0,1-2.37.91,13.44,13.44,0,0,1-3.23.31,8.65,8.65,0,0,1-6.41-2.59,8.93,8.93,0,0,1-2.55-6.53,9.4,9.4,0,0,1,1.3-5.23,8.85,8.85,0,0,1,3.73-3.16,19.64,19.64,0,0,1,5.87-1.66q3.42-.47,7.36-.72v-.16a3.43,3.43,0,0,0-1.77-3.33,12.06,12.06,0,0,0-5.33-.92,14.55,14.55,0,0,0-3.75.59,28.73,28.73,0,0,0-4.2,1.49h-.77v-7a44.27,44.27,0,0,1,4.35-.92,34.13,34.13,0,0,1,6.06-.53q7.5,0,10.94,2.5c2.29,1.66,3.43,4.21,3.43,7.62v19.79h-9Zm0-4.51v-6.06l-3.73.4a13.72,13.72,0,0,0-2.8.66,4,4,0,0,0-1.85,1.26,3.53,3.53,0,0,0-.66,2.24,3.21,3.21,0,0,0,1.1,2.81,5.7,5.7,0,0,0,3.25.76,6.13,6.13,0,0,0,2.44-.54A7.61,7.61,0,0,0,319.37,663.15Z"/>
        <path d="M344,671.54a25.34,25.34,0,0,1-6.08-.7,22.37,22.37,0,0,1-4.72-1.63v-7.66h.75c.43.32.92.69,1.47,1.08a12.77,12.77,0,0,0,2.31,1.25,17.32,17.32,0,0,0,2.86,1,13.49,13.49,0,0,0,3.46.43,8.9,8.9,0,0,0,3.38-.6,2,2,0,0,0,1.46-1.89,1.82,1.82,0,0,0-.67-1.53,7.72,7.72,0,0,0-2.62-1c-.69-.17-1.56-.36-2.61-.56a25.65,25.65,0,0,1-2.8-.68,10.51,10.51,0,0,1-5.14-3.15,8.32,8.32,0,0,1-1.72-5.48,7.79,7.79,0,0,1,.89-3.66,9.25,9.25,0,0,1,2.63-3.07,13.47,13.47,0,0,1,4.28-2.1,19.74,19.74,0,0,1,5.77-.78,24.7,24.7,0,0,1,5.62.61,21.27,21.27,0,0,1,4.32,1.47v7.35h-.72a17.53,17.53,0,0,0-1.48-1,18.1,18.1,0,0,0-2-1,14.12,14.12,0,0,0-2.55-.85,12.09,12.09,0,0,0-2.89-.34,7.46,7.46,0,0,0-3.33.67,2,2,0,0,0-1.35,1.79,1.91,1.91,0,0,0,.67,1.55,8.08,8.08,0,0,0,2.92,1.12c.78.19,1.68.37,2.69.55a22.12,22.12,0,0,1,2.91.74,9.93,9.93,0,0,1,4.75,3,7.86,7.86,0,0,1,1.62,5.19,8.39,8.39,0,0,1-1,3.9,8.82,8.82,0,0,1-2.72,3.12,14.11,14.11,0,0,1-4.39,2.12A21.38,21.38,0,0,1,344,671.54Z"/>
        <path d="M377.28,671.52q-8.23,0-12.63-3.94t-4.39-11.21q0-7.12,4.09-11.37t11.45-4.25q6.68,0,10.05,3.6t3.37,10.31v3.26H369.35a8.23,8.23,0,0,0,.86,3.38,5.81,5.81,0,0,0,1.91,2.16,7.86,7.86,0,0,0,2.72,1.16,15.73,15.73,0,0,0,3.4.34,14,14,0,0,0,3.1-.34,15.58,15.58,0,0,0,2.8-.92,18.9,18.9,0,0,0,2.06-1.07c.63-.38,1.14-.71,1.54-1h1v7.49l-2,.81a18.93,18.93,0,0,1-2.53.77,26.8,26.8,0,0,1-3,.61A29.27,29.27,0,0,1,377.28,671.52Zm3-19.06a7,7,0,0,0-1.33-4.38,4.74,4.74,0,0,0-3.85-1.5,5.37,5.37,0,0,0-4.13,1.58,6.57,6.57,0,0,0-1.64,4.3Z"/>
        <path d="M459.69,632.18l-9.77,38.56H439.3l-6.19-23.85-6,23.85H416.49l-9.77-38.56h10l5.31,25.87,6.48-25.87h9.6l6.14,25.87,5.6-25.87Z"/>
        <path d="M480,667.66l-1.67,1.4a10,10,0,0,1-2,1.24,13.19,13.19,0,0,1-2.37.91,13.34,13.34,0,0,1-3.22.31,8.65,8.65,0,0,1-6.41-2.59,8.93,8.93,0,0,1-2.55-6.53,9.49,9.49,0,0,1,1.29-5.23,9,9,0,0,1,3.73-3.16,19.62,19.62,0,0,1,5.88-1.66q3.42-.47,7.36-.72v-.16a3.43,3.43,0,0,0-1.78-3.33,12,12,0,0,0-5.32-.92,14.68,14.68,0,0,0-3.76.59A28.61,28.61,0,0,0,465,649.3h-.78v-7c.9-.26,2.35-.57,4.35-.92a34.21,34.21,0,0,1,6.06-.53q7.51,0,10.94,2.5C487.83,645,489,647.54,489,651v19.79h-9Zm0-4.51v-6.06l-3.73.4a13.48,13.48,0,0,0-2.79.66,3.92,3.92,0,0,0-1.85,1.26,3.54,3.54,0,0,0-.67,2.24,3.18,3.18,0,0,0,1.11,2.81,5.67,5.67,0,0,0,3.25.76,6.08,6.08,0,0,0,2.43-.54A7.36,7.36,0,0,0,480,663.15Z"/>
        <path d="M505,637.51h-9.59v-7.07H505Zm-.26,33.23h-9.07V641.66h9.07Z"/>
        <path d="M522.83,671.31q-5.55,0-8.07-2.28c-1.68-1.52-2.53-4-2.53-7.46V648h-3.47v-6.32h3.47v-8.32h9.07v8.32H530V648H521.3v10.3c0,1,0,1.91,0,2.67a5.55,5.55,0,0,0,.42,2,2.86,2.86,0,0,0,1.28,1.43,5.38,5.38,0,0,0,2.68.53,7.67,7.67,0,0,0,1.9-.31,7.11,7.11,0,0,0,1.65-.57H530v6.4a26.07,26.07,0,0,1-3.14.61A30.94,30.94,0,0,1,522.83,671.31Z"/>
        <path d="M544.71,660.56l-9.06,19.76h-5.52l5.1-19.76Z"/>
        <path d="M568.63,671.28a13.88,13.88,0,0,1-3.92-.47,19,19,0,0,1-3-1.18v-3.52h.2a10.21,10.21,0,0,0,3.16,2,9,9,0,0,0,3.4.72,5.5,5.5,0,0,0,3.53-1,3.17,3.17,0,0,0,1.19-2.57,3.22,3.22,0,0,0-.63-2.06,3.66,3.66,0,0,0-2-1.18c-.65-.19-1.25-.35-1.79-.47s-1.22-.29-2-.5a9.28,9.28,0,0,1-2-.73,5.22,5.22,0,0,1-1.53-1.15,4.84,4.84,0,0,1-1-1.64,6.13,6.13,0,0,1-.36-2.19,5.47,5.47,0,0,1,2-4.31,7.55,7.55,0,0,1,5.12-1.75,15.21,15.21,0,0,1,3.37.36,13.31,13.31,0,0,1,2.93,1v3.37H575a9.48,9.48,0,0,0-2.59-1.61,8.18,8.18,0,0,0-3.31-.69,5.1,5.1,0,0,0-3.17.91,2.9,2.9,0,0,0-1.21,2.42,3.06,3.06,0,0,0,.71,2.14,4.17,4.17,0,0,0,2.06,1.17l2.19.55c.86.2,1.58.39,2.15.56a6.06,6.06,0,0,1,3.2,2,5.42,5.42,0,0,1,1,3.33,6.47,6.47,0,0,1-.5,2.45,5.81,5.81,0,0,1-1.42,2,7.27,7.27,0,0,1-2.31,1.43A9.05,9.05,0,0,1,568.63,671.28Z"/>
        <path d="M591.87,663a9,9,0,0,1-1.93,6.2,6.56,6.56,0,0,1-5.15,2.18,6.48,6.48,0,0,1-5.22-2.25,9.27,9.27,0,0,1-1.9-6.13,9,9,0,0,1,2-6.19,7.14,7.14,0,0,1,10.31,0A9.05,9.05,0,0,1,591.87,663Zm-2.76,0a7.67,7.67,0,0,0-1.12-4.59,3.77,3.77,0,0,0-3.2-1.5,3.81,3.81,0,0,0-3.23,1.5,9.77,9.77,0,0,0,0,9.12,4.12,4.12,0,0,0,6.42,0A7.62,7.62,0,0,0,589.11,663Z"/>
        <path d="M612.66,670.9v-9.19c0-.73,0-1.41-.09-2a4.08,4.08,0,0,0-.36-1.45,1.83,1.83,0,0,0-.81-.84,3.12,3.12,0,0,0-1.42-.27,3.73,3.73,0,0,0-1.77.5,9.45,9.45,0,0,0-2,1.46c0,.16,0,.35,0,.58s0,.48,0,.78V670.9h-2.67v-9.19c0-.73,0-1.41-.09-2a3.88,3.88,0,0,0-.36-1.45,1.83,1.83,0,0,0-.81-.84,3.12,3.12,0,0,0-1.42-.27,3.71,3.71,0,0,0-1.82.54,9.67,9.67,0,0,0-1.85,1.38V670.9h-2.67V655h2.67v1.76a9.46,9.46,0,0,1,2.09-1.62,4.48,4.48,0,0,1,2.26-.58,4.8,4.8,0,0,1,2.5.64,4,4,0,0,1,1.66,2.1,10.36,10.36,0,0,1,2.36-2,4.7,4.7,0,0,1,2.5-.7,5.28,5.28,0,0,1,1.87.32,3.62,3.62,0,0,1,1.46,1,4.93,4.93,0,0,1,1,1.81,9,9,0,0,1,.35,2.71V670.9Z"/>
        <path d="M626,671.27a7.86,7.86,0,0,1-5.89-2.14,8.33,8.33,0,0,1-2.1-6.08,9,9,0,0,1,2-6.18,6.75,6.75,0,0,1,5.32-2.3A7.31,7.31,0,0,1,628,655a5.21,5.21,0,0,1,2,1.33,6.1,6.1,0,0,1,1.31,2.23,9.75,9.75,0,0,1,.46,3.22v1.45h-11a5.9,5.9,0,0,0,1.39,4.24,5.07,5.07,0,0,0,3.86,1.47,7.63,7.63,0,0,0,1.72-.2,8.31,8.31,0,0,0,1.53-.51,9.81,9.81,0,0,0,1.23-.64,7.14,7.14,0,0,0,.82-.57h.16v2.91l-1.17.47c-.46.18-.88.32-1.25.43s-1,.25-1.42.33A9.92,9.92,0,0,1,626,671.27Zm3.13-10.09a7.54,7.54,0,0,0-.25-1.86,3.72,3.72,0,0,0-.66-1.32,3,3,0,0,0-1.2-.91,4.58,4.58,0,0,0-1.81-.32,4.7,4.7,0,0,0-1.82.32A4.39,4.39,0,0,0,622,658a4.45,4.45,0,0,0-.92,1.38,6.07,6.07,0,0,0-.39,1.77Z"/>
        <path d="M639.23,671.21a4.59,4.59,0,0,1-3.42-1.24,5.46,5.46,0,0,1-1.22-3.93v-8.81h-1.81V655h1.81v-4.57h2.68V655h4.92v2.22h-4.92v7.55c0,.81,0,1.43,0,1.87a3.21,3.21,0,0,0,.33,1.22,1.58,1.58,0,0,0,.78.75,3.65,3.65,0,0,0,1.46.25,4.16,4.16,0,0,0,1.27-.2,5.62,5.62,0,0,0,.88-.32h.16v2.41a13.93,13.93,0,0,1-1.53.33A9.39,9.39,0,0,1,639.23,671.21Z"/>
        <path d="M656.66,670.9H654v-9a16.31,16.31,0,0,0-.11-2,4.28,4.28,0,0,0-.4-1.51,2.06,2.06,0,0,0-.91-.89,3.55,3.55,0,0,0-1.6-.29,4.5,4.5,0,0,0-2.05.53,10.14,10.14,0,0,0-2.07,1.39V670.9h-2.67V648.76h2.67v8a10.56,10.56,0,0,1,2.36-1.63,5.55,5.55,0,0,1,2.46-.57,4.56,4.56,0,0,1,3.67,1.54,6.71,6.71,0,0,1,1.33,4.48Z"/>
        <path d="M663.33,652.35h-3.05v-2.77h3.05Zm-.19,18.55h-2.67V655h2.67Z"/>
        <path d="M679.56,670.9h-2.68v-9a18.58,18.58,0,0,0-.1-2,4.27,4.27,0,0,0-.41-1.51,2.06,2.06,0,0,0-.91-.89,3.53,3.53,0,0,0-1.59-.29,4.54,4.54,0,0,0-2.06.53,10.72,10.72,0,0,0-2.07,1.39V670.9h-2.67V655h2.67v1.76a10.79,10.79,0,0,1,2.36-1.63,5.56,5.56,0,0,1,2.47-.57,4.59,4.59,0,0,1,3.67,1.54,6.71,6.71,0,0,1,1.32,4.48Z"/>
        <path d="M683.88,673.45l.8.3c.35.13.75.25,1.2.37s.94.22,1.36.29a7.28,7.28,0,0,0,1.37.12,5.93,5.93,0,0,0,2.1-.33,3.16,3.16,0,0,0,1.34-.91,3.52,3.52,0,0,0,.64-1.35,7.69,7.69,0,0,0,.19-1.75v-1.4a8.31,8.31,0,0,1-2.13,1.39,6.55,6.55,0,0,1-2.6.45,5.22,5.22,0,0,1-4.32-2,9.08,9.08,0,0,1-1.61-5.8,10.26,10.26,0,0,1,.55-3.51,8,8,0,0,1,1.5-2.6,6.2,6.2,0,0,1,2.12-1.58,6,6,0,0,1,2.53-.55,7.1,7.1,0,0,1,2.14.29,9.45,9.45,0,0,1,1.82.83L693,655h2.52v14.08c0,2.7-.59,4.67-1.76,5.94s-3,1.89-5.4,1.89a15.05,15.05,0,0,1-2.38-.19,17.73,17.73,0,0,1-2.27-.49v-2.79Zm9-6.86v-8.72a9.71,9.71,0,0,0-1.85-.69,6.9,6.9,0,0,0-1.68-.21,3.82,3.82,0,0,0-3.2,1.5,6.8,6.8,0,0,0-1.17,4.28,7.46,7.46,0,0,0,.89,4,3.15,3.15,0,0,0,2.88,1.39,6,6,0,0,0,2.14-.42A6.81,6.81,0,0,0,692.88,666.59Z"/>
        <path d="M725.14,670.9h-3.66l-6.71-8.42h-3.22v8.42h-2.81V649.72h5.46a18.72,18.72,0,0,1,3,.2,6,6,0,0,1,2.34.92,5.34,5.34,0,0,1,1.76,1.84,5.52,5.52,0,0,1,.65,2.78,6.26,6.26,0,0,1-1.19,3.9,6.8,6.8,0,0,1-3.21,2.32Zm-6.09-15.22a3.84,3.84,0,0,0-.33-1.64,2.8,2.8,0,0,0-1-1.18,4,4,0,0,0-1.39-.56,10,10,0,0,0-2-.16h-2.79v8H714a10.41,10.41,0,0,0,2.18-.21,3.4,3.4,0,0,0,1.65-.88,3.87,3.87,0,0,0,.9-1.43A5.89,5.89,0,0,0,719.05,655.68Z"/>
        <path d="M733,671.27a7.88,7.88,0,0,1-5.9-2.14,8.33,8.33,0,0,1-2.1-6.08,9,9,0,0,1,2-6.18,6.74,6.74,0,0,1,5.32-2.3A7.25,7.25,0,0,1,735,655a5.24,5.24,0,0,1,2,1.33,6.08,6.08,0,0,1,1.3,2.23,9.75,9.75,0,0,1,.46,3.22v1.45h-11a5.9,5.9,0,0,0,1.39,4.24,5.07,5.07,0,0,0,3.86,1.47,7.72,7.72,0,0,0,1.73-.2,8.85,8.85,0,0,0,1.53-.51,10.35,10.35,0,0,0,1.22-.64,6.35,6.35,0,0,0,.82-.57h.16v2.91l-1.16.47c-.47.18-.89.32-1.26.43s-1,.25-1.41.33A10,10,0,0,1,733,671.27Zm3.13-10.09a7.51,7.51,0,0,0-.26-1.86,3.88,3.88,0,0,0-.65-1.32,3.06,3.06,0,0,0-1.21-.91,4.55,4.55,0,0,0-1.81-.32,4.62,4.62,0,0,0-1.81.32,4.34,4.34,0,0,0-2.27,2.32,6.06,6.06,0,0,0-.4,1.77Z"/>
        <path d="M750.29,669.21c-.22.16-.51.38-.87.67a6.33,6.33,0,0,1-1.06.69,7.77,7.77,0,0,1-1.38.57,6.44,6.44,0,0,1-1.85.2,4.73,4.73,0,0,1-1.87-.37,4.58,4.58,0,0,1-2.57-2.65,5.77,5.77,0,0,1,.31-4.84,4.71,4.71,0,0,1,2.21-1.84,11,11,0,0,1,3.15-.85c1.22-.15,2.53-.27,3.93-.35v-.51a3.42,3.42,0,0,0-.28-1.51,2.1,2.1,0,0,0-.8-.89,3.24,3.24,0,0,0-1.25-.44,10.92,10.92,0,0,0-1.53-.1,10.48,10.48,0,0,0-2.17.27,15.25,15.25,0,0,0-2.51.81h-.15v-2.72c.49-.14,1.2-.3,2.12-.47a15,15,0,0,1,2.73-.25,12.74,12.74,0,0,1,2.76.25,5.26,5.26,0,0,1,2,.93,3.88,3.88,0,0,1,1.29,1.69A6.56,6.56,0,0,1,753,660V670.9h-2.66Zm0-2.22v-4.41c-.64,0-1.44.13-2.41.23a13.21,13.21,0,0,0-2.36.42,4.29,4.29,0,0,0-1.76,1,2.5,2.5,0,0,0-.7,1.88,2.64,2.64,0,0,0,.77,2.06,3.21,3.21,0,0,0,2.25.7,4.73,4.73,0,0,0,2.29-.55A9.9,9.9,0,0,0,750.29,667Z"/>
        <path d="M759.44,670.9h-2.68V648.76h2.68Z"/>
        <path d="M766.18,670.9h-2.67V648.76h2.67Z"/>
        <path d="M782.6,655l-8.55,21.75h-2.86l2.84-6.63L768.26,655h2.89l4.33,11.76L779.81,655Z"/>
        <path d="M799.84,671.28a13.93,13.93,0,0,1-3.92-.47,19,19,0,0,1-3-1.18v-3.52h.2a10.21,10.21,0,0,0,3.16,2,9,9,0,0,0,3.4.72,5.48,5.48,0,0,0,3.53-1,3.17,3.17,0,0,0,1.19-2.57,3.28,3.28,0,0,0-.62-2.06,3.7,3.7,0,0,0-2-1.18c-.66-.19-1.26-.35-1.8-.47s-1.22-.29-2-.5a9.19,9.19,0,0,1-2-.73,5.26,5.26,0,0,1-1.54-1.15,4.84,4.84,0,0,1-1-1.64,6.13,6.13,0,0,1-.36-2.19,5.5,5.5,0,0,1,2-4.31,7.56,7.56,0,0,1,5.13-1.75,15.18,15.18,0,0,1,3.36.36,13.4,13.4,0,0,1,2.94,1v3.37h-.22a9.41,9.41,0,0,0-2.58-1.61,8.23,8.23,0,0,0-3.32-.69,5.1,5.1,0,0,0-3.17.91A2.9,2.9,0,0,0,796,655.1a3.1,3.1,0,0,0,.71,2.14,4.17,4.17,0,0,0,2.06,1.17l2.19.55c.87.2,1.58.39,2.15.56a6.06,6.06,0,0,1,3.2,2,5.36,5.36,0,0,1,1,3.33,6.47,6.47,0,0,1-.5,2.45,5.81,5.81,0,0,1-1.42,2,7.27,7.27,0,0,1-2.31,1.43A9.05,9.05,0,0,1,799.84,671.28Z"/>
        <path d="M823.28,662.54a9.76,9.76,0,0,1-1.9,6.32,5.89,5.89,0,0,1-4.8,2.35,7.41,7.41,0,0,1-2.09-.27,8,8,0,0,1-1.86-.84v6.66H810V655h2.68v1.66a10.24,10.24,0,0,1,2.21-1.5,5.92,5.92,0,0,1,2.65-.6,4.93,4.93,0,0,1,4.26,2.16A9.88,9.88,0,0,1,823.28,662.54Zm-2.76.29a8.56,8.56,0,0,0-.86-4.21,3,3,0,0,0-2.82-1.5,5,5,0,0,0-2.2.5,9.45,9.45,0,0,0-2,1.3v9a9.18,9.18,0,0,0,1.8.69,6.83,6.83,0,0,0,1.71.19,3.82,3.82,0,0,0,3.23-1.52A7.3,7.3,0,0,0,820.52,662.83Z"/>
        <path d="M834.93,669.21c-.21.16-.51.38-.87.67a6.33,6.33,0,0,1-1.06.69,7.4,7.4,0,0,1-1.37.57,6.48,6.48,0,0,1-1.86.2,4.8,4.8,0,0,1-3.41-1.41,4.79,4.79,0,0,1-1-1.61,5.55,5.55,0,0,1-.38-2,5.39,5.39,0,0,1,.69-2.81,4.76,4.76,0,0,1,2.21-1.84,10.94,10.94,0,0,1,3.16-.85c1.21-.15,2.52-.27,3.92-.35v-.51a3.42,3.42,0,0,0-.28-1.51,2.1,2.1,0,0,0-.8-.89,3.24,3.24,0,0,0-1.25-.44,10.78,10.78,0,0,0-1.52-.1,10.57,10.57,0,0,0-2.18.27,15.15,15.15,0,0,0-2.5.81h-.16v-2.72c.5-.14,1.2-.3,2.12-.47a15,15,0,0,1,2.73-.25,12.74,12.74,0,0,1,2.76.25,5.19,5.19,0,0,1,2,.93,4,4,0,0,1,1.3,1.69,6.76,6.76,0,0,1,.42,2.53V670.9h-2.66Zm0-2.22v-4.41c-.63,0-1.43.13-2.41.23a13.07,13.07,0,0,0-2.35.42,4.4,4.4,0,0,0-1.77,1,2.5,2.5,0,0,0-.69,1.88,2.61,2.61,0,0,0,.77,2.06,3.2,3.2,0,0,0,2.24.7,4.7,4.7,0,0,0,2.29-.55A9.33,9.33,0,0,0,834.93,667Z"/>
        <path d="M847.67,671.26a8.51,8.51,0,0,1-3-.51,6.14,6.14,0,0,1-2.35-1.53,7,7,0,0,1-1.53-2.58,11.2,11.2,0,0,1-.54-3.66,10.34,10.34,0,0,1,.57-3.62,7.76,7.76,0,0,1,1.5-2.56,6.21,6.21,0,0,1,2.34-1.6,8.06,8.06,0,0,1,3-.56,8.49,8.49,0,0,1,2.52.37,13.83,13.83,0,0,1,2.17.85v3h-.16a8,8,0,0,0-.73-.56,9.28,9.28,0,0,0-1.09-.64,6.78,6.78,0,0,0-1.31-.5,5.35,5.35,0,0,0-1.45-.21,4,4,0,0,0-3.33,1.57,8.5,8.5,0,0,0,0,8.84,4,4,0,0,0,3.37,1.57,5.87,5.87,0,0,0,2.49-.54,7.58,7.58,0,0,0,2.09-1.4h.16v3l-1,.45a6.32,6.32,0,0,1-1.09.39,11.53,11.53,0,0,1-1.22.31A7.43,7.43,0,0,1,847.67,671.26Z"/>
        <path d="M857.71,652.35h-3v-2.77h3Zm-.19,18.55h-2.67V655h2.67Z"/>
        <path d="M870.33,669.21l-.88.67a6,6,0,0,1-1.06.69,7.4,7.4,0,0,1-1.37.57,6.48,6.48,0,0,1-1.86.2,4.71,4.71,0,0,1-1.86-.37,4.8,4.8,0,0,1-1.55-1,4.62,4.62,0,0,1-1-1.61,5.77,5.77,0,0,1,.31-4.84,4.73,4.73,0,0,1,2.2-1.84,11,11,0,0,1,3.16-.85c1.22-.15,2.52-.27,3.93-.35v-.51a3.41,3.41,0,0,0-.29-1.51,2.08,2.08,0,0,0-.79-.89,3.24,3.24,0,0,0-1.25-.44,11,11,0,0,0-1.53-.1,10.48,10.48,0,0,0-2.17.27,15.25,15.25,0,0,0-2.51.81h-.15v-2.72c.49-.14,1.2-.3,2.12-.47a15,15,0,0,1,2.73-.25,12.74,12.74,0,0,1,2.76.25,5.26,5.26,0,0,1,2,.93,3.88,3.88,0,0,1,1.29,1.69A6.56,6.56,0,0,1,873,660V670.9h-2.66Zm0-2.22v-4.41c-.64,0-1.44.13-2.41.23a13,13,0,0,0-2.36.42,4.29,4.29,0,0,0-1.76,1,2.47,2.47,0,0,0-.7,1.88,2.64,2.64,0,0,0,.77,2.06,3.21,3.21,0,0,0,2.25.7,4.76,4.76,0,0,0,2.29-.55A9.9,9.9,0,0,0,870.33,667Z"/>
        <path d="M879.47,670.9H876.8V648.76h2.67Z"/>
        <path d="M895.42,652.35h-3v-2.77h3Zm-.18,18.55h-2.68V655h2.68Z"/>
        <path d="M903.46,671.28a10.22,10.22,0,0,1-3-.42,13.93,13.93,0,0,1-2.3-.91v-3h.14c.23.18.5.38.81.59a8.18,8.18,0,0,0,1.23.69,11.82,11.82,0,0,0,1.5.55,6,6,0,0,0,1.7.24,6.65,6.65,0,0,0,1.36-.15,3.41,3.41,0,0,0,1.09-.37,2.15,2.15,0,0,0,.71-.7,2.2,2.2,0,0,0,.22-1.11,1.9,1.9,0,0,0-.51-1.44,4.35,4.35,0,0,0-1.85-.81l-1.33-.3c-.55-.11-1.06-.23-1.53-.37a4.82,4.82,0,0,1-2.64-1.63,4.61,4.61,0,0,1,.8-6.16,6.5,6.5,0,0,1,4.31-1.35,11.5,11.5,0,0,1,2.65.32,9.25,9.25,0,0,1,2.25.83v2.86H909a8.22,8.22,0,0,0-2.28-1.28,7.09,7.09,0,0,0-2.54-.47,4.25,4.25,0,0,0-2.24.55,1.85,1.85,0,0,0-.91,1.68,1.88,1.88,0,0,0,.55,1.49,4.1,4.1,0,0,0,1.73.8c.4.11.84.21,1.33.31s1,.21,1.54.35a5,5,0,0,1,2.66,1.46,4.12,4.12,0,0,1,.89,2.79,4.76,4.76,0,0,1-.41,1.94,4.26,4.26,0,0,1-1.19,1.57,6.09,6.09,0,0,1-1.92,1.09A8.65,8.65,0,0,1,903.46,671.28Z"/>
        <path d="M933.76,670.9h-2.67v-9a18.47,18.47,0,0,0-.11-2,4.27,4.27,0,0,0-.41-1.51,2,2,0,0,0-.91-.89,3.5,3.5,0,0,0-1.59-.29,4.54,4.54,0,0,0-2.06.53A10.37,10.37,0,0,0,924,659V670.9h-2.68V648.76H924v8a10.34,10.34,0,0,1,2.36-1.63,5.49,5.49,0,0,1,2.46-.57,4.57,4.57,0,0,1,3.67,1.54,6.71,6.71,0,0,1,1.32,4.48Z"/>
        <path d="M946.39,669.21c-.21.16-.51.38-.87.67a6.33,6.33,0,0,1-1.06.69,7.7,7.7,0,0,1-1.37.57,6.48,6.48,0,0,1-1.86.2,4.8,4.8,0,0,1-3.41-1.41,4.79,4.79,0,0,1-1-1.61,5.55,5.55,0,0,1-.38-2,5.39,5.39,0,0,1,.69-2.81,4.76,4.76,0,0,1,2.21-1.84,10.94,10.94,0,0,1,3.16-.85c1.21-.15,2.52-.27,3.92-.35v-.51a3.42,3.42,0,0,0-.28-1.51,2.1,2.1,0,0,0-.8-.89,3.24,3.24,0,0,0-1.25-.44,10.78,10.78,0,0,0-1.52-.1,10.57,10.57,0,0,0-2.18.27,15.15,15.15,0,0,0-2.5.81h-.16v-2.72c.49-.14,1.2-.3,2.12-.47a15,15,0,0,1,2.73-.25,12.74,12.74,0,0,1,2.76.25,5.19,5.19,0,0,1,2,.93,4,4,0,0,1,1.3,1.69,6.76,6.76,0,0,1,.42,2.53V670.9h-2.66Zm0-2.22v-4.41c-.63,0-1.44.13-2.41.23a13.07,13.07,0,0,0-2.35.42,4.4,4.4,0,0,0-1.77,1,2.5,2.5,0,0,0-.69,1.88,2.61,2.61,0,0,0,.77,2.06,3.2,3.2,0,0,0,2.24.7,4.7,4.7,0,0,0,2.29-.55A9.33,9.33,0,0,0,946.39,667Z"/>
        <path d="M966.14,662.54a9.82,9.82,0,0,1-1.9,6.32,5.92,5.92,0,0,1-4.8,2.35,7.31,7.31,0,0,1-2.09-.27,8.25,8.25,0,0,1-1.87-.84v6.66h-2.67V655h2.67v1.66a10.31,10.31,0,0,1,2.22-1.5,5.89,5.89,0,0,1,2.65-.6,4.93,4.93,0,0,1,4.26,2.16A9.88,9.88,0,0,1,966.14,662.54Zm-2.76.29a8.44,8.44,0,0,0-.87-4.21,3,3,0,0,0-2.82-1.5,5,5,0,0,0-2.19.5,9.77,9.77,0,0,0-2,1.3v9a9.43,9.43,0,0,0,1.8.69,6.86,6.86,0,0,0,1.72.19,3.84,3.84,0,0,0,3.23-1.52A7.37,7.37,0,0,0,963.38,662.83Z"/>
        <path d="M982.24,662.54a9.76,9.76,0,0,1-1.9,6.32,5.89,5.89,0,0,1-4.8,2.35,7.36,7.36,0,0,1-2.09-.27,8,8,0,0,1-1.86-.84v6.66h-2.68V655h2.68v1.66a10.24,10.24,0,0,1,2.21-1.5,5.92,5.92,0,0,1,2.65-.6,4.93,4.93,0,0,1,4.26,2.16A9.88,9.88,0,0,1,982.24,662.54Zm-2.76.29a8.56,8.56,0,0,0-.86-4.21,3,3,0,0,0-2.82-1.5,5,5,0,0,0-2.2.5,9.45,9.45,0,0,0-2,1.3v9a9.18,9.18,0,0,0,1.8.69,6.77,6.77,0,0,0,1.71.19,3.82,3.82,0,0,0,3.23-1.52A7.3,7.3,0,0,0,979.48,662.83Z"/>
        <path d="M991.92,671.27a7.87,7.87,0,0,1-5.9-2.14,8.33,8.33,0,0,1-2.1-6.08,9,9,0,0,1,2-6.18,6.72,6.72,0,0,1,5.32-2.3,7.29,7.29,0,0,1,2.61.43,5.24,5.24,0,0,1,2,1.33,6.22,6.22,0,0,1,1.3,2.23,9.75,9.75,0,0,1,.46,3.22v1.45h-11a5.9,5.9,0,0,0,1.39,4.24,5.07,5.07,0,0,0,3.86,1.47,7.72,7.72,0,0,0,1.73-.2,8.85,8.85,0,0,0,1.53-.51,10.35,10.35,0,0,0,1.22-.64,6.35,6.35,0,0,0,.82-.57h.16v2.91l-1.17.47c-.46.18-.88.32-1.25.43s-1,.25-1.41.33A10.1,10.1,0,0,1,991.92,671.27Zm3.13-10.09a7.51,7.51,0,0,0-.26-1.86,3.88,3.88,0,0,0-.65-1.32,3.06,3.06,0,0,0-1.21-.91,4.55,4.55,0,0,0-1.81-.32,4.62,4.62,0,0,0-1.81.32A4.31,4.31,0,0,0,988,658a4.41,4.41,0,0,0-.91,1.38,6.06,6.06,0,0,0-.4,1.77Z"/>
        <path d="M1012.84,670.9h-2.67v-9a18.47,18.47,0,0,0-.11-2,4.51,4.51,0,0,0-.4-1.51,2.11,2.11,0,0,0-.91-.89,3.55,3.55,0,0,0-1.6-.29,4.47,4.47,0,0,0-2,.53A10.14,10.14,0,0,0,1003,659V670.9h-2.68V655H1003v1.76a10.34,10.34,0,0,1,2.36-1.63,5.55,5.55,0,0,1,2.46-.57,4.57,4.57,0,0,1,3.67,1.54,6.71,6.71,0,0,1,1.32,4.48Z"/>
        <path d="M1019.51,652.35h-3v-2.77h3Zm-.18,18.55h-2.68V655h2.68Z"/>
        <path d="M1035.75,670.9h-2.68v-9a16.31,16.31,0,0,0-.11-2,4.28,4.28,0,0,0-.4-1.51,2.06,2.06,0,0,0-.91-.89,3.53,3.53,0,0,0-1.59-.29,4.51,4.51,0,0,0-2.06.53,10.14,10.14,0,0,0-2.07,1.39V670.9h-2.67V655h2.67v1.76a10.56,10.56,0,0,1,2.36-1.63,5.55,5.55,0,0,1,2.46-.57,4.56,4.56,0,0,1,3.67,1.54,6.66,6.66,0,0,1,1.33,4.48Z"/>
        <path d="M1040.07,673.45l.8.3c.35.13.75.25,1.19.37s1,.22,1.37.29a7.25,7.25,0,0,0,1.36.12,5.86,5.86,0,0,0,2.1-.33,3.19,3.19,0,0,0,1.35-.91,3.67,3.67,0,0,0,.64-1.35,7.72,7.72,0,0,0,.18-1.75v-1.4a8.27,8.27,0,0,1-2.12,1.39,6.55,6.55,0,0,1-2.6.45,5.25,5.25,0,0,1-4.33-2,9.15,9.15,0,0,1-1.6-5.8,10.26,10.26,0,0,1,.55-3.51,8,8,0,0,1,1.5-2.6,6.11,6.11,0,0,1,2.12-1.58,6,6,0,0,1,2.53-.55,7.15,7.15,0,0,1,2.14.29,9.11,9.11,0,0,1,1.81.83l.16-.68h2.52v14.08c0,2.7-.59,4.67-1.77,5.94s-3,1.89-5.39,1.89a15,15,0,0,1-2.38-.19,17.73,17.73,0,0,1-2.27-.49v-2.79Zm9-6.86v-8.72a9.64,9.64,0,0,0-1.84-.69,7,7,0,0,0-1.69-.21,3.84,3.84,0,0,0-3.2,1.5,6.86,6.86,0,0,0-1.16,4.28,7.37,7.37,0,0,0,.89,4,3.15,3.15,0,0,0,2.88,1.39,6,6,0,0,0,2.14-.42A6.76,6.76,0,0,0,1049.06,666.59Z"/>
        <path d="M1059.77,670.9h-3.4v-4h3.4Z"/>
    </g>
</svg>
